<svg id="svg" version="1.1" xmlns="http://www.w3.org/2000/svg" xmlns:xlink="http://www.w3.org/1999/xlink" width="400" height="400" viewBox="0, 0, 400,400"><g id="svgg"><path id="path0" d="M128.646 84.225 C 128.046 85.140,128.036 85.354,128.551 86.275 C 129.636 88.218,132.813 87.529,132.813 85.352 C 132.813 83.250,129.815 82.440,128.646 84.225 M119.228 87.717 C 117.575 88.875,118.798 92.020,120.786 91.723 C 122.161 91.518,123.225 89.738,122.638 88.623 C 121.768 86.974,120.696 86.689,119.228 87.717 M138.944 87.805 C 137.964 88.888,138.102 90.489,139.239 91.234 C 140.481 92.049,141.331 91.854,142.320 90.527 L 143.121 89.453 142.323 88.379 C 141.344 87.062,139.847 86.808,138.944 87.805 M266.089 88.687 C 264.267 90.385,265.596 93.359,268.177 93.359 C 269.702 93.359,270.741 92.286,270.788 90.663 C 270.859 88.169,267.956 86.948,266.089 88.687 M127.930 91.102 C 123.590 92.641,121.147 97.085,122.244 101.443 C 124.679 111.115,139.012 109.288,139.054 99.301 C 139.078 93.575,133.192 89.237,127.930 91.102 M86.656 93.103 C 82.728 94.849,81.576 99.603,82.839 108.858 C 84.937 124.243,95.485 138.306,111.085 146.519 C 114.628 148.384,114.844 148.569,114.847 149.737 C 114.887 163.653,128.949 184.023,143.274 190.917 C 152.924 195.561,158.175 184.326,148.908 178.864 C 136.735 171.691,128.888 159.372,127.908 145.898 C 127.515 140.498,126.321 138.499,122.656 137.105 C 106.091 130.801,96.347 118.165,95.874 102.374 C 95.637 94.439,91.964 90.745,86.656 93.103 M308.654 92.995 C 305.225 94.368,304.469 95.982,304.177 102.545 C 303.465 118.592,294.199 130.531,277.344 137.119 C 273.714 138.538,272.475 140.610,272.094 145.898 C 271.120 159.401,263.624 171.355,251.614 178.557 C 246.826 181.428,245.529 183.561,246.462 187.027 C 247.745 191.790,251.830 193.301,256.847 190.866 C 270.771 184.109,282.675 167.445,284.885 151.619 L 285.341 148.354 288.080 146.979 C 306.371 137.799,317.569 120.925,317.573 102.539 C 317.575 94.810,313.910 90.889,308.654 92.995 M253.706 93.755 C 252.103 95.526,253.316 98.438,255.657 98.438 C 257.150 98.438,258.594 97.066,258.594 95.648 C 258.594 93.406,255.209 92.095,253.706 93.755 M278.153 93.998 C 276.637 95.926,277.836 98.438,280.273 98.438 C 281.677 98.438,283.203 97.013,283.203 95.703 C 283.203 94.393,281.677 92.969,280.273 92.969 C 279.323 92.969,278.741 93.251,278.153 93.998 M115.748 97.289 C 113.256 98.232,114.051 101.563,116.768 101.563 C 118.441 101.563,119.343 99.068,118.066 97.972 C 116.984 97.042,116.657 96.946,115.748 97.289 M142.796 98.134 C 141.992 99.281,142.029 99.841,142.969 100.781 C 144.421 102.233,146.875 101.332,146.875 99.346 C 146.875 97.420,143.912 96.540,142.796 98.134 M264.798 97.805 C 255.223 101.226,254.913 114.439,264.325 117.960 C 273.296 121.317,281.776 111.945,277.561 103.331 C 275.262 98.630,269.486 96.130,264.798 97.805 M249.166 105.669 C 247.300 106.683,247.370 108.974,249.309 110.332 C 250.529 111.186,251.449 111.086,252.557 109.979 C 254.987 107.549,252.207 104.016,249.166 105.669 M283.733 105.770 C 282.618 106.669,282.271 107.972,282.855 109.067 C 283.949 111.121,285.638 111.471,287.248 109.980 C 289.821 107.595,286.462 103.571,283.733 105.770 M119.006 107.746 C 117.014 109.947,119.990 112.858,122.088 110.760 C 122.826 110.022,123.026 109.520,122.836 108.880 C 122.294 107.052,120.196 106.431,119.006 107.746 M138.898 107.778 C 137.316 109.526,139.374 112.416,141.421 111.320 C 143.544 110.184,142.793 107.055,140.393 107.037 C 139.942 107.034,139.270 107.367,138.898 107.778 M170.441 110.701 C 169.192 111.775,168.928 114.231,169.931 115.441 C 172.124 118.085,176.563 116.780,176.563 113.491 C 176.563 110.268,172.890 108.594,170.441 110.701 M129.084 111.896 C 127.544 113.436,128.437 115.625,130.604 115.625 C 133.029 115.625,133.587 112.552,131.373 111.387 C 130.230 110.785,130.186 110.795,129.084 111.896 M155.512 116.545 C 153.313 117.801,152.906 120.544,154.657 122.296 C 156.848 124.486,160.309 123.343,160.798 120.268 C 161.219 117.621,157.820 115.226,155.512 116.545 M187.022 116.609 C 184.760 117.870,184.426 120.800,186.358 122.426 C 188.505 124.232,191.399 123.451,192.141 120.866 C 193.025 117.782,189.772 115.076,187.022 116.609 M253.706 118.364 C 252.063 120.180,253.391 123.047,255.874 123.047 C 257.139 123.047,258.594 121.488,258.594 120.133 C 258.594 118.000,255.160 116.758,253.706 118.364 M278.153 118.607 C 276.637 120.535,277.836 123.047,280.273 123.047 C 281.677 123.047,283.203 121.623,283.203 120.313 C 283.203 119.002,281.677 117.578,280.273 117.578 C 279.323 117.578,278.741 117.861,278.153 118.607 M168.945 122.396 C 154.343 127.206,156.973 148.381,172.266 149.131 C 184.610 149.736,191.234 135.690,183.040 126.286 C 179.995 122.791,173.330 120.951,168.945 122.396 M266.089 123.453 C 264.267 125.150,265.596 128.125,268.177 128.125 C 269.768 128.125,270.703 127.073,270.703 125.284 C 270.703 122.873,267.904 121.762,266.089 123.453 M233.022 132.406 C 231.519 134.067,233.487 136.258,235.510 135.176 C 236.589 134.599,236.628 132.610,235.573 132.045 C 234.465 131.452,233.800 131.546,233.022 132.406 M148.017 133.173 C 145.272 135.918,148.287 140.282,152.028 138.978 C 155.642 137.718,154.462 132.031,150.586 132.031 C 149.529 132.031,148.862 132.328,148.017 133.173 M193.262 132.453 C 191.333 133.577,191.029 136.662,192.696 138.187 C 196.181 141.375,200.859 136.849,197.817 133.233 C 196.742 131.955,194.713 131.608,193.262 132.453 M224.512 135.578 C 223.726 136.036,223.594 137.891,224.297 138.594 C 225.040 139.337,226.872 139.163,227.330 138.307 C 228.354 136.394,226.384 134.488,224.512 135.578 M242.094 135.645 C 240.879 136.580,241.221 138.821,242.634 139.190 C 243.456 139.405,245.313 137.976,245.313 137.127 C 245.313 135.784,243.184 134.804,242.094 135.645 M231.848 138.904 C 224.469 141.605,225.773 152.676,233.558 153.424 C 242.612 154.294,245.262 141.440,236.561 138.856 C 234.239 138.167,233.850 138.171,231.848 138.904 M220.568 144.855 C 219.708 145.805,219.753 146.601,220.715 147.472 C 221.852 148.500,223.585 147.865,223.759 146.356 C 223.995 144.309,221.938 143.341,220.568 144.855 M245.391 144.609 C 244.322 145.678,245.392 148.047,246.943 148.047 C 247.695 148.047,248.828 146.812,248.828 145.993 C 248.828 144.500,246.455 143.545,245.391 144.609 M155.637 148.033 C 153.527 148.887,152.896 151.970,154.458 153.787 C 157.080 156.834,162.079 153.698,160.536 149.974 C 159.764 148.110,157.582 147.246,155.637 148.033 M186.298 148.798 C 182.910 152.186,187.479 157.180,191.049 153.991 C 192.020 153.122,192.266 152.593,192.266 151.367 C 192.266 148.127,188.563 146.533,186.298 148.798 M224.455 153.242 C 223.612 153.858,223.731 155.793,224.647 156.366 C 226.488 157.518,228.585 155.103,227.134 153.500 C 226.330 152.611,225.436 152.525,224.455 153.242 M241.566 153.711 C 240.734 154.979,241.641 156.641,243.164 156.641 C 244.687 156.641,245.594 154.979,244.762 153.711 C 244.368 153.108,243.755 152.734,243.164 152.734 C 242.573 152.734,241.960 153.108,241.566 153.711 M170.996 154.719 C 169.921 155.345,169.060 157.339,169.331 158.573 C 170.280 162.892,176.563 162.227,176.563 157.808 C 176.563 155.281,173.218 153.425,170.996 154.719 M233.290 156.858 C 231.675 157.989,232.388 160.156,234.375 160.156 C 236.281 160.156,237.032 158.180,235.614 156.896 C 234.729 156.095,234.387 156.090,233.290 156.858 M166.925 177.523 C 164.773 178.459,164.687 179.459,163.808 213.656 L 163.548 223.788 164.570 224.254 C 165.413 224.638,165.766 224.607,166.579 224.074 C 169.258 222.319,186.075 209.137,186.539 208.429 C 187.174 207.460,186.574 181.053,185.875 179.227 C 185.127 177.271,183.661 176.952,175.527 176.968 C 170.156 176.980,167.829 177.129,166.925 177.523 M214.586 177.709 C 212.799 178.798,212.701 180.022,211.869 211.806 C 211.500 225.895,210.794 225.673,224.023 215.626 C 236.623 206.058,235.199 208.967,234.730 193.750 C 234.284 179.306,234.158 178.482,232.262 177.582 C 230.124 176.567,216.295 176.666,214.586 177.709 M139.258 216.377 C 135.391 219.367,126.791 226.002,120.147 231.122 C 110.644 238.445,107.895 240.763,107.257 241.992 C 106.456 243.534,106.444 244.005,106.341 277.083 C 106.229 313.356,106.206 312.924,108.359 315.078 C 110.564 317.283,107.917 317.205,176.488 317.094 L 240.162 316.992 241.663 315.779 C 244.806 313.238,244.537 318.168,244.537 263.123 C 244.537 231.079,244.402 213.769,244.146 213.292 C 243.437 211.967,241.745 210.938,240.277 210.938 C 238.638 210.938,239.790 210.107,217.251 227.539 C 203.551 238.135,203.204 238.317,200.591 236.263 C 198.617 234.710,198.438 233.656,198.438 223.626 C 198.438 213.681,198.296 212.874,196.323 211.581 C 193.793 209.924,193.800 209.920,179.330 221.094 C 176.686 223.135,172.126 226.656,169.195 228.919 C 158.113 237.477,158.655 237.110,157.106 237.096 C 152.820 237.054,152.349 235.788,152.346 224.278 C 152.343 213.819,152.170 212.867,150.031 211.604 C 147.607 210.172,146.850 210.507,139.258 216.377 M171.751 256.489 C 173.443 256.943,173.897 258.881,173.759 265.051 C 173.586 272.768,173.925 272.461,165.580 272.461 L 159.307 272.461 158.365 271.365 C 156.542 269.246,157.112 257.301,159.074 256.511 C 159.771 256.231,170.716 256.212,171.751 256.489 M196.662 256.493 C 198.333 257.134,199.280 266.997,198.019 270.616 C 197.213 272.927,185.732 273.785,183.323 271.714 C 181.500 270.148,181.416 258.819,183.213 257.021 C 183.994 256.241,194.889 255.812,196.662 256.493 M172.636 282.100 C 173.731 283.274,173.913 284.640,173.763 290.555 C 173.582 297.690,173.853 297.461,165.580 297.461 L 159.307 297.461 158.365 296.365 C 156.542 294.246,157.112 282.301,159.074 281.511 C 160.848 280.798,171.868 281.276,172.636 282.100 M197.320 281.997 C 198.729 283.138,198.757 295.166,197.354 296.571 C 195.899 298.027,185.004 298.160,183.354 296.741 L 182.227 295.773 182.099 290.221 C 181.888 281.074,181.729 281.250,190.191 281.250 C 195.720 281.250,196.499 281.332,197.320 281.997 " stroke="none" fill="#090909" fill-rule="evenodd"></path><path id="path1" d="M0.000 194.336 L 0.000 388.672 16.992 388.672 L 33.984 388.672 33.984 391.797 L 33.984 394.922 16.992 394.922 L 0.000 394.922 0.000 397.461 L 0.000 400.000 200.000 400.000 L 400.000 400.000 400.000 341.016 L 400.000 282.031 322.474 282.031 L 244.948 282.031 244.837 297.392 L 244.727 312.754 243.687 314.324 C 241.623 317.441,247.684 317.188,175.292 317.187 L 110.662 317.187 109.344 316.299 C 105.653 313.811,105.791 315.445,105.935 276.172 L 106.055 243.555 106.924 241.928 C 107.901 240.102,108.450 239.625,117.947 232.345 C 120.835 230.132,124.908 227.002,126.996 225.391 C 147.483 209.586,146.335 210.372,148.524 210.665 C 152.149 211.151,152.478 212.220,152.724 224.349 L 152.930 234.441 154.205 235.580 C 156.879 237.967,158.538 237.063,174.023 224.780 C 174.668 224.268,177.393 222.160,180.078 220.095 C 182.764 218.030,186.248 215.344,187.821 214.127 C 192.782 210.288,193.819 209.901,196.082 211.047 C 198.625 212.333,198.828 213.255,198.828 223.508 C 198.828 235.173,199.337 236.719,203.178 236.719 C 204.778 236.719,203.997 237.270,221.437 223.828 C 226.872 219.639,232.872 215.016,234.771 213.554 C 239.541 209.883,242.248 209.633,244.137 212.690 C 244.895 213.915,244.922 214.614,244.922 232.761 L 244.922 251.563 322.461 251.563 L 400.000 251.563 400.000 125.781 L 400.000 0.000 200.000 0.000 L 0.000 0.000 0.000 194.336 M132.651 83.786 C 134.295 86.294,131.046 89.241,128.839 87.244 C 127.956 86.445,127.899 84.266,128.739 83.426 C 129.728 82.437,131.898 82.637,132.651 83.786 M122.179 87.327 C 123.170 88.021,123.364 90.042,122.547 91.160 C 121.791 92.193,119.566 92.121,118.686 91.034 C 116.752 88.646,119.658 85.562,122.179 87.327 M142.101 87.327 C 143.084 88.016,143.332 90.622,142.480 91.320 C 140.934 92.589,138.398 91.840,138.055 90.014 C 137.586 87.514,140.041 85.884,142.101 87.327 M270.065 88.310 C 270.858 88.934,271.094 89.464,271.094 90.625 C 271.094 93.432,267.794 94.783,265.803 92.791 C 262.978 89.967,266.912 85.830,270.065 88.310 M134.180 91.118 C 142.816 95.386,140.155 108.203,130.633 108.203 C 123.607 108.203,119.458 101.145,122.853 94.967 C 125.006 91.051,130.362 89.231,134.180 91.118 M92.599 93.175 C 95.259 94.551,95.854 96.050,96.144 102.106 C 96.669 113.073,99.637 119.830,106.979 126.772 C 111.237 130.798,119.083 135.750,123.047 136.913 C 126.325 137.876,127.612 140.055,128.169 145.584 C 129.649 160.291,137.891 172.905,150.096 179.142 C 159.180 183.784,152.271 195.643,143.055 191.226 C 129.226 184.599,117.521 168.478,114.955 152.525 L 114.314 148.540 112.061 147.470 C 94.161 138.969,82.022 120.750,82.033 102.403 C 82.039 94.333,86.799 90.175,92.599 93.175 M314.745 93.419 C 320.775 97.146,318.223 116.120,310.053 128.307 C 304.912 135.976,297.373 142.563,288.300 147.313 L 285.779 148.633 285.080 152.539 C 282.193 168.655,271.539 183.592,257.681 190.954 C 248.530 195.815,240.562 184.581,249.511 179.435 C 263.257 171.530,270.420 160.608,271.873 145.335 C 272.435 139.435,272.762 139.032,279.772 135.625 C 295.923 127.774,303.882 116.557,303.901 101.622 C 303.911 93.711,308.995 89.865,314.745 93.419 M258.026 93.537 C 259.963 95.475,258.590 98.828,255.859 98.828 C 253.059 98.828,251.615 95.078,253.764 93.388 C 255.157 92.292,256.839 92.351,258.026 93.537 M282.003 92.954 C 283.193 93.590,283.772 95.501,283.197 96.890 C 281.856 100.126,277.344 99.221,277.344 95.716 C 277.344 93.314,279.873 91.814,282.003 92.954 M118.400 97.697 C 119.030 98.327,119.166 98.806,118.981 99.748 C 118.356 102.932,114.063 102.612,114.063 99.381 C 114.063 96.989,116.677 95.973,118.400 97.697 M146.484 97.656 C 148.740 99.911,145.268 103.448,142.902 101.307 C 142.019 100.508,141.962 98.329,142.801 97.489 C 143.654 96.636,145.550 96.722,146.484 97.656 M272.986 98.211 C 277.023 100.257,279.098 103.935,278.823 108.560 C 278.009 122.292,258.223 122.423,257.121 108.704 C 256.444 100.263,265.376 94.355,272.986 98.211 M253.027 106.076 C 254.795 108.084,253.372 111.094,250.656 111.094 C 248.720 111.094,247.656 110.041,247.656 108.125 C 247.656 104.902,250.904 103.663,253.027 106.076 M287.793 106.091 C 288.924 107.357,288.908 108.666,287.745 110.018 C 285.920 112.140,282.422 111.020,282.422 108.312 C 282.422 104.910,285.573 103.607,287.793 106.091 M122.179 107.249 C 123.170 107.943,123.364 109.964,122.547 111.082 C 121.879 111.995,119.734 112.023,118.749 111.132 C 116.425 109.029,119.595 105.439,122.179 107.249 M142.101 107.249 C 142.975 107.862,143.295 109.845,142.670 110.781 C 141.665 112.286,139.154 112.177,138.305 110.591 C 136.905 107.975,139.666 105.543,142.101 107.249 M175.868 110.558 C 178.879 114.276,174.492 119.176,170.497 116.558 C 168.326 115.136,168.525 110.988,170.821 109.821 C 172.187 109.127,175.048 109.544,175.868 110.558 M132.651 111.911 C 134.282 114.399,131.436 117.119,128.993 115.408 C 127.950 114.677,127.805 112.485,128.739 111.551 C 129.728 110.562,131.898 110.762,132.651 111.911 M160.254 117.225 C 161.453 118.682,161.183 121.599,159.736 122.817 C 156.787 125.298,152.570 122.808,153.283 119.005 C 153.866 115.899,158.241 114.782,160.254 117.225 M191.376 117.027 C 194.080 119.302,192.280 123.828,188.672 123.828 C 187.399 123.828,186.803 123.582,185.907 122.686 C 182.286 119.065,187.449 113.722,191.376 117.027 M258.026 118.146 C 260.876 120.997,256.577 125.349,253.638 122.588 C 252.421 121.444,252.396 119.096,253.589 117.984 C 254.792 116.864,256.817 116.938,258.026 118.146 M282.467 117.927 C 283.789 118.997,283.759 121.642,282.413 122.677 C 280.081 124.468,277.344 123.085,277.344 120.114 C 277.344 117.490,280.345 116.208,282.467 117.927 M178.660 122.778 C 185.738 126.019,188.927 134.325,185.769 141.298 C 179.697 154.709,159.740 151.021,159.064 136.364 C 158.569 125.627,169.035 118.371,178.660 122.778 M269.655 122.715 C 272.341 124.129,271.066 128.516,267.969 128.516 C 267.208 128.516,266.407 128.161,265.803 127.557 C 263.212 124.966,266.376 120.989,269.655 122.715 M235.938 132.031 C 237.453 133.547,236.473 135.938,234.337 135.938 C 233.174 135.938,232.031 134.733,232.031 133.507 C 232.031 132.574,233.407 131.250,234.375 131.250 C 234.805 131.250,235.508 131.602,235.938 132.031 M152.904 132.246 C 154.158 133.067,154.833 134.842,154.522 136.500 C 153.823 140.229,147.931 140.557,146.927 136.922 C 145.900 133.204,149.759 130.185,152.904 132.246 M197.287 132.043 C 198.281 132.575,199.219 134.442,199.219 135.888 C 199.219 139.102,194.775 140.763,192.436 138.423 C 189.291 135.279,193.353 129.937,197.287 132.043 M227.166 135.724 C 228.283 136.842,228.351 137.394,227.517 138.585 C 226.717 139.727,224.430 139.797,223.842 138.698 C 222.386 135.978,225.043 133.601,227.166 135.724 M244.444 135.374 C 246.391 136.737,245.287 139.612,242.906 139.382 C 240.580 139.157,240.119 136.347,242.228 135.260 C 243.414 134.648,243.408 134.648,244.444 135.374 M238.590 139.272 C 242.806 141.762,243.453 148.450,239.798 151.753 C 234.677 156.379,226.563 152.832,226.563 145.966 C 226.563 139.899,233.302 136.148,238.590 139.272 M223.626 144.385 C 224.588 145.347,224.246 147.312,222.994 148.011 C 221.477 148.859,219.922 147.794,219.922 145.909 C 219.922 143.906,222.207 142.966,223.626 144.385 M248.801 144.989 C 249.295 145.873,249.304 146.181,248.861 147.010 C 247.774 149.040,244.531 148.443,244.531 146.213 C 244.531 143.747,247.613 142.863,248.801 144.989 M159.415 148.157 C 161.613 149.634,161.530 153.318,159.267 154.698 C 154.941 157.336,150.849 151.532,154.731 148.266 C 156.200 147.029,157.684 146.995,159.415 148.157 M190.358 147.702 C 194.072 149.601,192.789 155.469,188.660 155.469 C 187.459 155.469,185.687 154.329,185.190 153.237 C 183.567 149.676,187.009 145.989,190.358 147.702 M227.446 153.568 C 228.128 154.487,228.153 154.718,227.677 155.717 C 226.664 157.839,223.438 157.107,223.438 154.755 C 223.438 152.389,226.004 151.629,227.446 153.568 M244.598 152.990 C 246.566 154.771,244.145 158.196,241.953 156.732 C 241.238 156.255,240.571 154.703,240.862 154.191 C 241.944 152.287,243.329 151.841,244.598 152.990 M174.964 154.474 C 176.343 155.187,177.120 156.994,176.795 158.729 C 176.110 162.381,171.001 163.024,169.405 159.660 C 167.685 156.035,171.358 152.609,174.964 154.474 M236.230 156.965 C 237.816 158.933,235.441 161.726,233.348 160.354 C 232.815 160.005,232.282 159.466,232.163 159.156 C 231.269 156.826,234.651 155.005,236.230 156.965 M185.031 177.576 C 185.911 178.229,186.189 178.820,186.411 180.506 C 186.894 184.174,187.417 207.155,187.041 208.201 C 186.712 209.116,169.825 222.516,166.633 224.395 C 165.377 225.134,165.305 225.136,164.258 224.450 L 163.178 223.742 163.435 214.703 C 164.504 177.181,164.390 178.459,166.797 177.235 C 168.980 176.125,183.442 176.396,185.031 177.576 M232.422 177.247 C 234.521 178.295,234.656 179.184,234.967 193.955 L 235.247 207.227 234.323 208.069 C 231.186 210.928,214.229 223.438,213.490 223.438 C 210.907 223.438,211.014 226.921,212.363 186.605 C 212.707 176.331,212.338 176.653,223.828 176.598 C 229.973 176.569,231.259 176.666,232.422 177.247 M158.622 257.670 C 157.886 258.605,157.813 259.223,157.813 264.453 C 157.813 269.683,157.886 270.301,158.622 271.236 L 159.432 272.266 165.415 272.266 C 173.657 272.266,173.242 272.676,173.242 264.529 C 173.242 256.167,173.701 256.641,165.593 256.641 L 159.432 256.641 158.622 257.670 M183.231 257.670 C 181.892 259.373,182.007 269.934,183.381 271.307 C 184.754 272.680,195.315 272.796,197.018 271.456 L 198.047 270.646 198.047 264.493 C 198.047 256.265,198.425 256.641,190.140 256.641 L 184.041 256.641 183.231 257.670 M245.182 256.901 C 244.687 257.396,244.924 258.511,245.577 258.762 C 246.570 259.143,247.539 258.026,246.891 257.246 C 246.364 256.611,245.622 256.461,245.182 256.901 M248.615 257.599 C 247.031 259.184,247.635 260.672,250.362 261.901 C 252.995 263.089,252.167 265.147,249.466 264.128 C 248.496 263.762,248.159 263.783,247.705 264.237 C 246.792 265.150,249.505 266.276,251.452 265.793 C 254.346 265.074,254.267 261.790,251.326 260.529 C 249.014 259.538,249.037 258.398,251.370 258.398 C 253.163 258.398,253.811 257.306,252.265 256.892 C 250.588 256.442,249.576 256.639,248.615 257.599 M273.606 257.155 C 273.053 258.597,273.636 265.812,274.316 265.942 C 274.870 266.048,275.000 265.792,275.000 264.598 L 275.000 263.123 276.481 264.569 C 279.123 267.149,280.661 266.451,278.095 263.837 L 276.503 262.215 277.989 260.990 L 279.475 259.766 278.275 259.766 C 277.570 259.766,276.782 260.089,276.367 260.547 C 275.251 261.780,275.000 261.493,275.000 258.984 C 275.000 256.708,274.187 255.641,273.606 257.155 M255.242 258.691 C 255.265 259.317,255.021 259.606,254.395 259.695 C 253.911 259.764,253.516 260.059,253.516 260.352 C 253.516 260.644,253.911 260.939,254.395 261.008 C 255.153 261.116,255.289 261.399,255.388 263.086 C 255.517 265.278,256.153 266.016,257.916 266.016 C 259.299 266.016,259.291 264.721,257.906 264.524 C 256.500 264.323,256.596 260.938,258.008 260.938 C 258.615 260.938,258.984 260.716,258.984 260.352 C 258.984 259.987,258.615 259.766,258.008 259.766 C 257.227 259.766,257.031 259.570,257.031 258.789 C 257.031 258.027,256.831 257.813,256.121 257.813 C 255.429 257.813,255.219 258.023,255.242 258.691 M245.313 262.779 C 245.313 265.755,245.375 266.016,246.094 266.016 C 246.812 266.016,246.875 265.755,246.875 262.779 C 246.875 259.803,246.812 259.542,246.094 259.542 C 245.375 259.542,245.313 259.803,245.313 262.779 M261.468 259.762 C 259.262 260.652,258.797 263.154,260.517 264.874 C 261.789 266.146,262.786 266.292,264.425 265.444 C 267.960 263.616,265.175 258.266,261.468 259.762 M268.440 259.784 C 267.236 260.267,266.294 262.544,266.775 263.809 C 267.542 265.827,270.058 266.619,271.807 265.394 C 273.104 264.486,272.296 263.581,270.719 264.176 C 269.297 264.713,268.266 263.988,268.437 262.573 C 268.602 261.209,269.684 260.601,270.754 261.269 C 271.451 261.705,271.644 261.704,271.921 261.266 C 272.817 259.853,270.610 258.913,268.440 259.784 M263.839 261.551 C 264.559 262.271,264.598 262.671,264.049 263.698 C 263.274 265.146,260.938 264.287,260.938 262.554 C 260.938 261.987,262.079 260.938,262.695 260.938 C 262.987 260.938,263.502 261.214,263.839 261.551 M262.500 271.189 C 262.500 272.024,262.360 272.110,261.264 271.949 C 259.877 271.745,258.984 272.575,258.984 274.070 C 258.984 275.463,260.026 276.209,261.801 276.084 L 263.368 275.975 263.368 273.256 C 263.368 271.609,263.197 270.480,262.934 270.392 C 262.695 270.313,262.500 270.671,262.500 271.189 M264.453 270.898 C 264.453 271.221,264.717 271.484,265.039 271.484 C 265.361 271.484,265.625 271.221,265.625 270.898 C 265.625 270.576,265.361 270.313,265.039 270.313 C 264.717 270.313,264.453 270.576,264.453 270.898 M288.210 272.168 C 287.954 275.329,288.615 277.534,289.176 275.391 C 289.288 274.961,289.566 274.609,289.793 274.609 C 290.021 274.609,290.395 274.961,290.625 275.391 C 290.855 275.820,291.315 276.172,291.647 276.172 C 292.153 276.172,292.121 275.961,291.452 274.878 L 290.652 273.584 291.507 272.730 C 292.331 271.905,292.334 271.875,291.587 271.875 C 291.161 271.875,290.593 272.227,290.325 272.656 C 289.558 273.884,289.063 273.577,289.063 271.875 C 289.063 269.688,288.392 269.918,288.210 272.168 M302.344 270.898 C 302.344 271.221,302.520 271.484,302.734 271.484 C 302.949 271.484,303.125 271.221,303.125 270.898 C 303.125 270.576,302.949 270.313,302.734 270.313 C 302.520 270.313,302.344 270.576,302.344 270.898 M246.094 271.484 C 244.493 273.085,245.630 276.172,247.820 276.172 C 249.168 276.172,250.000 275.783,250.000 275.154 C 250.000 274.542,249.178 274.427,248.613 274.959 C 247.850 275.679,246.484 274.703,246.484 273.438 C 246.484 272.096,247.735 271.311,248.900 271.921 C 249.800 272.392,250.000 272.356,250.000 271.721 C 250.000 270.507,247.238 270.340,246.094 271.484 M266.797 271.257 C 266.797 271.561,266.577 271.912,266.309 272.038 C 265.918 272.220,265.918 272.311,266.309 272.493 C 266.577 272.619,266.797 273.287,266.797 273.978 C 266.797 274.669,267.008 275.445,267.266 275.703 C 267.925 276.363,269.141 276.287,269.141 275.586 C 269.141 275.264,268.921 275.044,268.652 275.098 C 268.360 275.156,268.115 274.686,268.042 273.926 C 267.951 272.983,268.076 272.656,268.530 272.656 C 268.866 272.656,269.141 272.480,269.141 272.266 C 269.141 272.051,268.877 271.875,268.555 271.875 C 268.232 271.875,267.969 271.611,267.969 271.289 C 267.969 270.967,267.705 270.703,267.383 270.703 C 267.061 270.703,266.797 270.952,266.797 271.257 M274.609 273.438 L 274.609 276.213 276.620 276.095 C 278.806 275.966,279.646 275.253,279.114 273.979 C 278.944 273.574,278.785 272.715,278.758 272.070 C 278.713 270.939,278.640 270.894,276.660 270.780 L 274.609 270.662 274.609 273.438 M277.661 272.368 C 277.758 272.871,277.531 273.047,276.786 273.047 C 275.831 273.047,275.441 272.345,276.055 271.731 C 276.526 271.261,277.524 271.657,277.661 272.368 M250.986 272.818 C 250.893 273.266,250.853 274.204,250.897 274.901 C 251.007 276.654,251.953 276.559,251.953 274.795 C 251.953 273.686,252.143 273.346,252.930 273.047 C 254.350 272.507,254.125 271.891,252.531 271.951 C 251.473 271.990,251.116 272.191,250.986 272.818 M254.796 272.363 C 253.077 274.585,254.928 276.955,257.585 275.935 C 258.648 275.527,258.260 274.992,256.976 275.096 C 256.268 275.153,255.676 274.989,255.576 274.707 C 255.456 274.368,255.891 274.219,256.999 274.219 C 258.756 274.219,258.884 274.026,257.986 272.743 C 257.311 271.779,255.422 271.554,254.796 272.363 M264.453 274.023 C 264.453 275.673,264.589 276.172,265.039 276.172 C 265.489 276.172,265.625 275.673,265.625 274.023 C 265.625 272.374,265.489 271.875,265.039 271.875 C 264.589 271.875,264.453 272.374,264.453 274.023 M269.922 272.461 C 269.922 272.783,270.186 273.047,270.508 273.047 C 270.830 273.047,271.094 272.783,271.094 272.461 C 271.094 272.139,270.830 271.875,270.508 271.875 C 270.186 271.875,269.922 272.139,269.922 272.461 M280.339 272.135 C 279.727 272.747,280.163 273.090,281.250 272.852 C 281.942 272.699,282.422 272.754,282.422 272.985 C 282.422 273.200,281.909 273.488,281.283 273.626 C 280.007 273.906,279.455 274.835,280.100 275.613 C 280.580 276.191,284.375 276.307,284.375 275.744 C 284.375 275.550,284.199 275.391,283.984 275.391 C 283.770 275.391,283.594 274.878,283.594 274.251 C 283.594 272.156,281.608 270.866,280.339 272.135 M284.766 274.063 C 284.766 275.677,284.903 276.172,285.352 276.172 C 285.772 276.172,285.938 275.743,285.938 274.655 C 285.938 273.467,286.107 273.094,286.719 272.934 C 287.994 272.600,287.608 271.953,286.133 271.953 L 284.766 271.953 284.766 274.063 M292.993 272.610 C 292.559 273.422,293.639 274.609,294.813 274.609 C 295.088 274.609,295.313 274.785,295.313 275.000 C 295.313 275.512,293.868 275.506,293.551 274.994 C 293.416 274.775,293.133 274.703,292.923 274.833 C 292.263 275.241,293.381 276.172,294.531 276.172 C 296.761 276.172,297.094 274.009,294.931 273.576 C 294.281 273.446,293.750 273.164,293.750 272.949 C 293.750 272.721,294.251 272.659,294.953 272.799 C 295.817 272.972,296.112 272.903,295.997 272.555 C 295.714 271.691,293.463 271.733,292.993 272.610 M302.265 274.316 L 302.148 276.758 299.414 276.953 L 296.680 277.148 299.609 277.400 C 303.268 277.713,303.125 277.828,303.125 274.586 C 303.125 271.212,302.423 270.992,302.265 274.316 M304.688 272.266 C 304.065 272.668,304.358 272.784,305.724 272.676 C 307.038 272.573,307.173 273.344,305.890 273.626 C 303.168 274.224,303.792 276.245,306.640 276.055 C 307.998 275.964,309.403 275.391,308.268 275.391 C 308.013 275.391,307.813 274.823,307.813 274.102 C 307.813 272.114,306.298 271.225,304.688 272.266 M309.026 274.847 C 309.059 277.031,309.202 277.734,309.613 277.734 C 309.921 277.734,310.156 277.341,310.156 276.825 C 310.156 276.044,310.316 275.940,311.293 276.083 C 312.959 276.328,314.087 274.603,313.244 273.100 C 312.757 272.231,312.379 272.062,310.825 272.015 L 308.983 271.960 309.026 274.847 M314.274 272.239 C 313.964 272.741,314.645 273.099,315.376 272.818 C 315.707 272.691,316.197 272.722,316.464 272.887 C 316.784 273.085,316.491 273.341,315.603 273.640 C 313.252 274.432,313.683 275.962,316.276 276.027 L 318.295 276.077 318.077 274.660 C 317.694 272.158,315.276 270.619,314.274 272.239 M319.141 274.063 C 319.141 275.677,319.278 276.172,319.727 276.172 C 320.147 276.172,320.313 275.742,320.313 274.651 C 320.313 273.707,320.520 273.051,320.860 272.920 C 321.657 272.615,321.875 272.992,321.875 274.674 C 321.875 275.745,322.042 276.172,322.461 276.172 C 322.893 276.172,323.047 275.721,323.047 274.462 C 323.047 272.436,322.572 271.948,320.605 271.951 L 319.141 271.953 319.141 274.063 M257.227 273.047 C 257.364 273.269,257.028 273.438,256.445 273.438 C 255.863 273.438,255.527 273.269,255.664 273.047 C 255.797 272.832,256.148 272.656,256.445 272.656 C 256.742 272.656,257.094 272.832,257.227 273.047 M262.258 273.652 C 262.534 274.372,261.460 275.417,260.731 275.137 C 260.031 274.868,259.965 273.179,260.645 272.942 C 261.324 272.705,262.010 273.007,262.258 273.652 M312.319 273.481 C 312.689 274.649,311.606 275.717,310.762 275.016 C 310.034 274.412,309.966 273.189,310.645 272.915 C 311.618 272.522,312.062 272.672,312.319 273.481 M277.957 274.262 C 278.276 274.779,277.391 275.432,276.567 275.288 C 276.247 275.232,275.927 274.881,275.855 274.507 C 275.704 273.725,277.496 273.517,277.957 274.262 M282.422 274.805 C 282.422 275.130,282.075 275.391,281.641 275.391 C 280.862 275.391,280.625 274.974,281.120 274.479 C 281.596 274.003,282.422 274.210,282.422 274.805 M306.782 274.805 C 306.658 275.127,306.224 275.391,305.818 275.391 C 305.411 275.391,305.078 275.127,305.078 274.805 C 305.078 274.442,305.446 274.219,306.042 274.219 C 306.739 274.219,306.944 274.381,306.782 274.805 M316.797 274.622 C 316.797 275.089,315.695 275.591,315.374 275.270 C 315.032 274.927,315.612 274.219,316.234 274.219 C 316.544 274.219,316.797 274.400,316.797 274.622 M269.922 275.586 C 269.922 275.908,270.186 276.172,270.508 276.172 C 270.830 276.172,271.094 275.908,271.094 275.586 C 271.094 275.264,270.830 275.000,270.508 275.000 C 270.186 275.000,269.922 275.264,269.922 275.586 M158.622 282.670 C 157.440 284.173,157.390 294.705,158.559 296.148 C 159.579 297.407,171.320 297.597,172.545 296.374 C 173.719 295.201,173.807 284.169,172.654 282.703 L 171.818 281.641 165.625 281.641 L 159.432 281.641 158.622 282.670 M183.381 282.599 C 182.447 283.533,182.422 283.715,182.422 289.453 C 182.422 297.498,182.192 297.266,190.164 297.266 C 195.465 297.266,196.081 297.193,197.018 296.456 L 198.047 295.646 198.047 289.493 C 198.047 281.281,198.402 281.641,190.289 281.641 C 184.493 281.641,184.315 281.665,183.381 282.599 M6.055 390.625 C 5.922 390.840,5.999 391.016,6.227 391.016 C 6.454 391.016,6.641 391.543,6.641 392.188 C 6.641 392.832,6.816 393.359,7.031 393.359 C 7.246 393.359,7.422 392.656,7.422 391.797 C 7.422 390.277,6.669 389.631,6.055 390.625 M8.008 390.625 C 7.875 390.840,7.953 391.016,8.180 391.016 C 8.408 391.016,8.594 391.543,8.594 392.188 C 8.594 393.936,9.208 393.603,9.314 391.797 C 9.405 390.269,8.647 389.590,8.008 390.625 M9.920 390.691 C 9.726 391.004,9.856 391.065,10.331 390.882 C 10.846 390.684,10.966 390.768,10.798 391.207 C 10.673 391.531,10.756 391.797,10.982 391.797 C 11.208 391.797,11.316 392.017,11.222 392.285 C 11.129 392.554,10.718 392.715,10.311 392.643 C 9.749 392.544,9.678 392.624,10.017 392.973 C 10.652 393.626,11.923 393.284,11.865 392.475 C 11.838 392.102,11.794 391.445,11.768 391.016 C 11.714 390.152,10.396 389.920,9.920 390.691 M12.969 390.703 C 11.680 391.992,12.985 393.976,14.500 393.030 C 15.444 392.440,16.291 392.455,16.539 393.066 C 16.875 393.893,17.486 392.661,17.278 391.576 C 17.060 390.432,16.406 390.305,16.406 391.406 C 16.406 391.836,16.227 392.188,16.008 392.188 C 15.773 392.188,15.716 391.765,15.870 391.153 C 16.053 390.424,15.997 390.200,15.682 390.394 C 15.436 390.547,15.234 390.943,15.234 391.276 C 15.234 391.667,15.016 391.797,14.616 391.643 C 14.277 391.513,13.816 391.406,13.592 391.406 C 13.346 391.406,13.377 391.175,13.672 390.820 C 14.248 390.126,13.646 390.025,12.969 390.703 M17.737 390.774 C 17.443 391.541,17.849 392.188,18.626 392.188 C 19.124 392.188,19.147 392.295,18.750 392.773 C 18.479 393.100,18.436 393.359,18.654 393.359 C 19.338 393.359,19.986 392.262,19.854 391.330 C 19.703 390.264,18.095 389.841,17.737 390.774 M20.496 390.645 C 20.300 390.962,20.465 391.020,21.045 390.836 C 21.537 390.680,21.875 390.742,21.875 390.989 C 21.875 391.219,21.655 391.412,21.387 391.418 C 21.118 391.425,21.210 391.611,21.590 391.833 C 22.510 392.368,22.103 392.951,20.996 392.684 C 20.314 392.519,20.217 392.579,20.564 392.952 C 21.434 393.888,22.461 393.259,22.461 391.791 C 22.461 390.374,21.139 389.603,20.496 390.645 M23.342 390.723 C 23.044 391.530,23.448 392.159,24.102 391.908 C 24.518 391.748,24.654 391.850,24.524 392.223 C 24.419 392.526,24.000 392.715,23.592 392.643 C 23.031 392.544,22.959 392.624,23.298 392.973 C 23.923 393.616,25.159 393.296,25.322 392.448 C 25.410 391.992,25.169 391.666,24.643 391.528 C 23.571 391.248,23.604 390.723,24.707 390.510 C 25.490 390.359,25.474 390.335,24.554 390.288 C 23.986 390.258,23.440 390.454,23.342 390.723 M26.062 390.505 C 25.463 391.534,26.009 393.164,26.953 393.164 C 28.316 393.164,28.441 390.503,27.088 390.310 C 26.625 390.244,26.163 390.332,26.062 390.505 M28.678 390.765 C 28.194 392.026,28.673 393.164,29.688 393.164 C 31.081 393.164,31.170 390.502,29.783 390.305 C 29.270 390.232,28.809 390.423,28.678 390.765 M30.177 391.113 C 30.403 391.786,30.062 392.969,29.642 392.969 C 29.452 392.969,29.297 392.441,29.297 391.797 C 29.297 390.628,29.866 390.187,30.177 391.113 M14.063 392.122 C 14.063 392.631,13.598 392.969,13.220 392.736 C 12.816 392.486,13.165 391.797,13.695 391.797 C 13.897 391.797,14.063 391.943,14.063 392.122 M27.344 392.383 C 27.344 392.705,27.168 392.969,26.953 392.969 C 26.738 392.969,26.563 392.705,26.563 392.383 C 26.563 392.061,26.738 391.797,26.953 391.797 C 27.168 391.797,27.344 392.061,27.344 392.383 " stroke="none" fill="#fbfbfb" fill-rule="evenodd"></path><path id="path2" d="M82.159 102.539 C 82.161 104.043,82.232 104.610,82.316 103.800 C 82.401 102.989,82.399 101.759,82.313 101.066 C 82.227 100.372,82.158 101.035,82.159 102.539 M164.153 191.797 C 164.153 192.549,164.234 192.856,164.332 192.480 C 164.430 192.104,164.430 191.489,164.332 191.113 C 164.234 190.737,164.153 191.045,164.153 191.797 M163.778 204.688 C 163.778 205.654,163.854 206.050,163.948 205.566 C 164.041 205.083,164.041 204.292,163.948 203.809 C 163.854 203.325,163.778 203.721,163.778 204.688 M245.053 254.297 C 245.053 255.908,245.122 256.567,245.206 255.762 C 245.291 254.956,245.291 253.638,245.206 252.832 C 245.122 252.026,245.053 252.686,245.053 254.297 M264.684 251.895 C 264.553 252.107,264.711 252.546,265.035 252.870 C 265.360 253.195,265.625 253.648,265.625 253.878 C 265.625 254.580,266.579 254.345,267.097 253.516 C 267.488 252.890,267.487 252.727,267.093 252.695 C 266.823 252.674,267.041 252.516,267.578 252.344 C 268.514 252.044,268.503 252.029,267.317 251.992 C 266.636 251.971,265.819 251.853,265.501 251.731 C 265.183 251.609,264.815 251.683,264.684 251.895 M273.242 251.953 L 274.805 252.233 273.242 252.294 C 271.715 252.354,271.702 252.367,272.656 252.853 C 273.458 253.262,273.633 253.638,273.633 254.951 C 273.633 256.379,273.727 256.541,274.512 256.454 C 275.098 256.390,275.393 256.567,275.397 256.987 C 275.402 257.537,275.451 257.542,275.781 257.031 C 276.113 256.518,276.161 256.522,276.166 257.064 C 276.169 257.404,276.040 257.814,275.880 257.974 C 275.719 258.135,275.564 258.864,275.536 259.594 L 275.484 260.921 276.467 260.148 C 277.379 259.430,279.688 259.057,279.688 259.627 C 279.688 259.765,279.028 260.467,278.223 261.187 L 276.758 262.495 277.907 263.451 C 278.539 263.977,279.225 264.302,279.432 264.174 C 279.639 264.046,279.695 264.125,279.557 264.349 C 279.419 264.572,279.573 264.977,279.900 265.249 C 280.425 265.685,280.394 265.849,279.632 266.660 C 279.005 267.328,278.925 267.578,279.338 267.578 C 279.650 267.578,280.152 267.236,280.454 266.818 C 280.755 266.400,281.146 266.147,281.322 266.255 C 281.498 266.364,281.805 266.026,282.003 265.503 C 282.206 264.971,282.808 264.441,283.370 264.300 C 284.026 264.135,284.375 263.779,284.375 263.274 C 284.375 262.848,284.533 262.500,284.727 262.500 C 285.261 262.500,286.057 258.704,285.796 257.399 C 285.670 256.767,285.724 256.250,285.916 256.250 C 286.109 256.250,286.382 255.721,286.524 255.075 C 286.666 254.429,287.124 253.717,287.543 253.493 C 287.961 253.269,288.200 252.919,288.074 252.715 C 287.948 252.511,288.075 252.331,288.356 252.316 C 288.637 252.301,288.516 252.138,288.086 251.953 C 287.656 251.768,283.789 251.630,279.492 251.645 C 275.060 251.661,272.356 251.794,273.242 251.953 M290.582 251.855 C 290.558 252.017,290.572 252.553,290.612 253.048 C 290.653 253.543,290.518 254.158,290.313 254.415 C 290.107 254.672,289.805 255.322,289.640 255.859 C 289.475 256.396,288.862 257.891,288.278 259.180 C 286.266 263.616,286.022 264.844,287.151 264.844 C 287.343 264.844,287.500 265.020,287.500 265.234 C 287.500 265.449,287.255 265.625,286.956 265.625 C 286.657 265.625,286.302 266.068,286.166 266.610 C 285.873 267.776,287.657 270.312,288.770 270.312 C 289.270 270.312,289.453 270.629,289.453 271.498 C 289.453 272.573,289.528 272.644,290.255 272.255 C 291.640 271.513,292.378 271.921,291.448 272.915 C 290.686 273.730,291.175 275.101,291.951 274.325 C 292.104 274.172,292.113 274.350,291.971 274.719 C 291.682 275.472,292.197 275.616,292.849 274.964 C 293.151 274.661,293.500 274.657,294.047 274.950 C 294.472 275.177,294.939 275.243,295.085 275.097 C 295.231 274.951,294.683 274.644,293.867 274.415 C 292.336 273.985,291.979 273.251,292.858 272.339 C 293.542 271.630,296.289 271.883,296.289 272.656 C 296.289 273.261,296.001 273.297,294.824 272.839 C 294.448 272.692,294.141 272.745,294.141 272.956 C 294.141 273.167,294.680 273.448,295.339 273.579 C 297.791 274.070,296.790 275.964,294.042 276.033 C 292.806 276.064,291.537 276.188,291.222 276.309 C 290.908 276.430,290.529 276.333,290.382 276.094 C 290.206 275.810,290.302 275.769,290.662 275.976 C 290.964 276.150,290.859 275.940,290.430 275.511 C 289.685 274.766,289.643 274.763,289.524 275.451 C 289.455 275.847,289.095 276.172,288.723 276.172 C 288.351 276.172,287.848 276.371,287.605 276.614 C 287.277 276.942,287.187 276.895,287.255 276.430 C 287.306 276.085,287.469 275.682,287.619 275.532 C 287.768 275.383,287.891 274.838,287.891 274.322 C 287.891 272.861,286.177 273.248,286.005 274.749 C 285.935 275.362,286.038 275.766,286.233 275.645 C 286.429 275.524,286.589 275.673,286.589 275.977 C 286.589 276.280,286.442 276.438,286.263 276.327 C 286.084 276.216,285.935 276.356,285.932 276.637 C 285.928 276.949,285.814 276.996,285.639 276.758 C 285.243 276.220,284.375 276.085,284.375 276.562 C 284.375 276.777,284.517 276.953,284.691 276.953 C 284.865 276.953,285.348 277.226,285.765 277.561 C 286.492 278.143,286.487 278.150,285.636 277.738 C 284.615 277.242,283.925 277.515,284.224 278.296 C 284.469 278.935,283.326 280.409,282.227 280.872 C 281.506 281.175,281.522 281.206,282.422 281.271 C 283.341 281.338,283.329 281.360,282.227 281.641 C 281.582 281.805,286.021 281.960,292.090 281.985 L 303.125 282.031 303.125 279.781 C 303.125 277.591,303.097 277.531,302.051 277.517 C 297.310 277.450,295.934 277.308,296.484 276.940 C 296.807 276.724,297.773 276.567,298.633 276.591 C 302.131 276.689,301.953 276.817,301.953 274.219 C 301.953 272.438,302.088 271.875,302.516 271.875 C 302.826 271.875,303.175 271.719,303.293 271.528 C 303.411 271.338,303.220 271.206,302.870 271.236 C 302.519 271.265,302.146 271.043,302.041 270.742 C 301.903 270.350,302.078 270.254,302.653 270.404 C 303.212 270.551,303.397 270.458,303.260 270.101 C 303.138 269.784,302.064 269.495,300.457 269.348 C 295.191 268.865,295.226 268.878,295.898 267.580 C 296.220 266.956,296.484 266.173,296.484 265.840 C 296.484 265.507,296.782 265.234,297.145 265.234 C 297.721 265.234,297.709 265.161,297.047 264.661 C 296.559 264.292,295.349 264.083,293.649 264.075 C 291.258 264.064,291.043 263.998,291.374 263.379 C 291.575 263.003,291.840 262.376,291.962 261.985 C 292.119 261.482,292.412 261.347,292.964 261.522 C 293.570 261.714,293.839 261.524,294.170 260.670 C 294.405 260.065,294.846 259.073,295.150 258.464 C 295.454 257.856,295.703 257.109,295.703 256.804 C 295.703 256.499,295.857 256.250,296.045 256.250 C 296.233 256.250,296.492 255.723,296.621 255.078 C 296.750 254.434,297.026 253.906,297.234 253.906 C 297.442 253.906,297.924 254.434,298.304 255.078 C 298.685 255.723,299.115 256.250,299.261 256.250 C 299.406 256.250,299.651 256.733,299.804 257.324 C 300.064 258.320,300.106 258.340,300.390 257.600 C 300.559 257.160,301.243 255.939,301.911 254.887 C 304.033 251.541,304.065 251.563,296.875 251.563 C 293.438 251.563,290.606 251.694,290.582 251.855 M311.523 251.953 C 310.352 252.251,310.352 252.251,311.399 252.298 C 312.166 252.331,312.481 252.578,312.580 253.223 C 312.654 253.706,312.929 254.058,313.193 254.004 C 313.548 253.932,313.672 255.017,313.672 258.203 L 313.672 262.500 312.523 262.500 C 310.824 262.500,310.798 262.926,312.303 266.067 C 314.387 270.415,314.419 270.365,309.719 270.057 L 305.766 269.798 306.262 270.739 C 306.534 271.256,306.939 271.798,307.161 271.942 C 307.924 272.439,308.581 275.896,307.999 276.353 C 307.714 276.576,307.222 277.637,306.904 278.711 C 306.586 279.785,306.202 280.972,306.051 281.348 C 305.799 281.974,306.133 282.031,310.017 282.031 L 314.258 282.032 314.186 279.004 C 314.147 277.339,314.093 275.361,314.066 274.609 L 314.018 273.242 313.552 274.609 C 313.144 275.807,312.904 275.992,311.621 276.098 C 310.474 276.193,310.156 276.383,310.156 276.977 C 310.156 277.393,309.893 277.734,309.570 277.734 C 309.102 277.734,308.984 277.148,308.984 274.805 L 308.984 271.875 310.918 271.875 C 312.348 271.875,312.956 272.053,313.250 272.559 C 313.734 273.390,313.833 271.990,313.688 266.373 L 313.591 262.630 319.003 262.208 C 321.979 261.976,324.700 261.672,325.049 261.534 C 325.910 261.192,325.894 259.375,325.030 259.375 C 324.630 259.375,324.172 258.813,323.853 257.929 C 323.565 257.134,323.006 256.211,322.610 255.879 C 322.189 255.525,321.854 254.665,321.803 253.809 C 321.733 252.637,321.555 252.336,320.916 252.305 C 320.233 252.272,320.259 252.220,321.094 251.953 C 322.363 251.547,313.121 251.547,311.523 251.953 M327.344 251.953 C 326.380 252.262,326.379 252.266,327.269 252.305 C 327.765 252.326,328.078 252.494,327.965 252.678 C 327.851 252.862,328.236 252.936,328.820 252.843 C 329.652 252.710,329.756 252.763,329.297 253.088 C 328.836 253.415,328.996 253.505,330.047 253.510 C 330.782 253.513,331.683 253.786,332.049 254.117 C 332.652 254.664,332.732 254.646,332.922 253.922 C 333.036 253.484,332.952 253.125,332.734 253.125 C 332.516 253.125,332.432 252.881,332.547 252.582 C 332.895 251.674,329.499 251.263,327.344 251.953 M384.581 252.051 C 384.681 252.319,384.516 253.770,384.215 255.273 L 383.667 258.008 383.624 255.664 C 383.575 252.921,382.828 253.395,382.818 256.175 C 382.815 257.197,382.659 257.764,382.422 257.617 C 382.189 257.473,382.031 257.940,382.031 258.771 C 382.031 259.539,381.873 260.472,381.680 260.845 C 381.486 261.218,381.003 262.563,380.605 263.834 C 379.976 265.845,377.948 268.703,377.480 268.236 C 377.393 268.148,377.179 267.305,377.004 266.363 L 376.687 264.648 376.238 266.016 L 375.790 267.383 375.972 265.820 C 376.104 264.681,376.058 264.469,375.799 265.039 C 375.605 265.469,375.433 266.226,375.418 266.722 C 375.403 267.219,375.215 267.516,375.000 267.383 C 374.777 267.245,374.598 267.612,374.582 268.239 C 374.558 269.204,374.514 269.242,374.219 268.555 C 373.872 267.748,373.794 267.868,373.581 269.531 C 372.720 276.248,370.288 280.796,367.822 280.303 C 365.949 279.928,361.122 277.401,359.900 276.154 C 359.289 275.531,358.650 275.017,358.480 275.011 C 357.771 274.986,355.859 273.239,355.859 272.615 C 355.859 272.244,355.672 271.878,355.444 271.802 C 354.870 271.610,356.029 266.659,357.459 263.192 C 358.287 261.184,358.430 260.526,358.002 260.690 C 357.331 260.948,357.211 260.333,357.854 259.935 C 358.159 259.747,358.138 259.576,357.784 259.357 C 357.356 259.093,357.165 257.985,357.053 255.121 C 356.978 253.220,349.617 255.985,346.436 259.110 C 340.355 265.083,340.125 273.865,345.855 281.352 C 346.346 281.993,347.594 282.032,364.499 281.938 L 382.617 281.836 382.860 279.102 C 383.124 276.134,383.878 271.837,385.155 266.016 C 386.103 261.692,387.250 254.885,387.475 252.246 C 387.489 252.085,387.847 251.953,388.272 251.953 C 388.910 251.953,388.986 252.105,388.712 252.832 C 388.419 253.608,387.542 258.212,387.280 260.352 C 387.227 260.781,387.071 263.154,386.933 265.625 C 386.794 268.096,386.421 272.314,386.103 275.000 C 385.785 277.686,385.568 280.366,385.621 280.957 L 385.717 282.031 389.888 282.031 L 394.058 282.031 393.969 277.261 C 393.920 274.638,393.997 271.254,394.140 269.742 C 394.311 267.929,394.256 266.892,393.977 266.699 C 393.676 266.490,393.678 266.322,393.987 266.113 C 394.244 265.939,394.387 264.789,394.340 263.281 C 394.296 261.885,394.384 260.301,394.537 259.762 C 394.689 259.223,394.657 258.358,394.465 257.840 C 394.249 257.255,394.261 256.807,394.498 256.661 C 394.941 256.387,394.523 255.629,393.945 255.657 C 393.730 255.667,393.323 255.823,393.040 256.002 C 392.279 256.485,392.115 256.101,392.570 254.904 C 392.792 254.319,392.877 253.683,392.758 253.491 C 392.639 253.299,392.732 252.786,392.964 252.352 C 393.377 251.581,393.281 251.563,388.893 251.563 C 385.462 251.563,384.442 251.678,384.581 252.051 M364.084 254.336 C 363.312 254.979,362.754 255.094,361.155 254.936 L 359.180 254.741 361.259 255.165 C 363.254 255.571,363.382 255.546,364.376 254.552 C 365.599 253.329,365.438 253.209,364.084 254.336 M281.543 257.523 C 281.762 258.172,281.610 258.464,281.055 258.464 C 280.732 258.464,280.456 258.185,280.441 257.845 C 280.421 257.387,280.336 257.424,280.116 257.987 C 279.834 258.708,279.807 258.702,279.590 257.871 C 279.366 257.014,281.258 256.677,281.543 257.523 M285.061 259.210 C 284.677 259.594,283.984 259.004,283.984 258.292 C 283.984 257.695,284.036 257.696,284.645 258.305 C 285.008 258.669,285.195 259.075,285.061 259.210 M251.681 258.846 C 251.828 259.092,251.652 259.407,251.289 259.546 C 250.739 259.757,250.821 259.916,251.780 260.500 C 253.262 261.404,253.799 262.080,253.966 263.251 C 254.224 265.051,255.078 264.649,255.078 262.728 C 255.078 261.728,254.895 260.938,254.664 260.938 C 254.437 260.938,254.358 261.111,254.489 261.324 C 254.629 261.550,254.462 261.608,254.086 261.463 C 253.643 261.294,253.492 260.882,253.601 260.141 C 253.715 259.366,253.614 259.121,253.242 259.264 C 252.957 259.373,252.429 259.223,252.068 258.930 C 251.708 258.638,251.533 258.600,251.681 258.846 M272.855 259.381 C 273.094 259.768,272.991 259.828,272.449 259.620 C 271.766 259.358,271.761 259.383,272.380 260.067 C 272.886 260.626,272.930 260.898,272.573 261.255 C 272.215 261.613,272.226 261.719,272.620 261.719 C 272.921 261.719,273.035 261.968,272.898 262.325 C 272.770 262.658,272.818 262.837,273.005 262.721 C 273.500 262.415,273.464 259.438,272.962 259.127 C 272.687 258.957,272.649 259.047,272.855 259.381 M259.111 259.668 C 259.485 260.303,258.576 261.931,258.189 261.319 C 257.921 260.895,257.823 260.877,257.818 261.254 C 257.815 261.535,257.637 261.656,257.422 261.523 C 256.956 261.236,256.901 263.252,257.354 263.967 C 257.932 264.876,259.650 264.416,259.457 263.404 C 259.229 262.215,259.628 260.740,260.380 259.988 C 260.937 259.431,260.899 259.375,259.966 259.375 C 259.401 259.375,259.016 259.507,259.111 259.668 M265.062 259.728 C 264.935 259.934,265.022 260.220,265.255 260.365 C 265.489 260.509,265.815 260.991,265.979 261.437 C 266.278 262.244,266.280 262.244,266.502 261.396 C 266.641 260.863,266.573 260.639,266.319 260.796 C 266.090 260.938,265.996 260.810,266.103 260.504 C 266.207 260.205,266.568 260.010,266.906 260.069 C 267.243 260.128,267.609 260.032,267.719 259.854 C 267.828 259.677,267.328 259.491,266.606 259.443 C 265.884 259.394,265.189 259.523,265.062 259.728 M248.185 262.391 C 248.131 263.253,248.165 263.269,248.641 262.618 C 248.924 262.232,249.282 262.043,249.438 262.198 C 249.593 262.354,249.476 262.793,249.177 263.174 C 248.672 263.818,248.687 263.825,249.390 263.281 C 250.080 262.747,250.123 262.757,249.882 263.399 C 249.714 263.847,249.769 264.010,250.031 263.848 C 250.258 263.708,250.353 263.356,250.242 263.066 C 250.113 262.730,250.241 262.617,250.599 262.754 C 251.024 262.917,251.060 263.151,250.751 263.729 C 250.381 264.420,250.415 264.444,251.133 263.996 C 252.137 263.369,251.435 262.441,249.510 261.850 C 248.332 261.489,248.238 261.527,248.185 262.391 M261.812 261.782 C 260.553 263.041,262.014 264.888,263.442 263.844 C 264.281 263.231,263.727 262.136,262.550 262.079 C 262.125 262.058,262.080 261.981,262.415 261.846 C 262.691 261.736,263.203 261.881,263.553 262.170 C 264.094 262.616,264.161 262.607,263.998 262.109 C 263.751 261.354,262.436 261.158,261.812 261.782 M280.736 264.210 C 280.623 264.506,280.727 264.946,280.968 265.187 C 281.292 265.511,281.290 265.625,280.961 265.625 C 280.715 265.625,280.416 265.465,280.295 265.270 C 280.065 264.897,280.412 263.672,280.748 263.672 C 280.855 263.672,280.850 263.914,280.736 264.210 M275.575 264.797 C 275.641 265.691,276.172 266.446,276.172 265.647 C 276.172 265.372,276.508 265.563,276.920 266.070 C 277.331 266.577,277.736 266.904,277.820 266.797 C 277.905 266.689,277.421 266.013,276.745 265.294 C 275.686 264.167,275.524 264.098,275.575 264.797 M244.967 269.564 C 244.992 271.587,245.099 272.891,245.205 272.461 C 245.310 272.031,245.597 271.426,245.843 271.116 C 246.144 270.736,246.149 270.637,245.859 270.811 C 245.567 270.985,245.405 270.292,245.356 268.658 C 245.240 264.782,244.918 265.533,244.967 269.564 M286.738 270.667 C 286.170 271.728,286.215 271.875,287.109 271.875 C 287.622 271.875,287.891 271.615,287.891 271.117 C 287.891 270.030,287.220 269.767,286.738 270.667 M283.761 272.700 C 283.761 273.221,283.886 273.290,284.263 272.977 C 284.540 272.748,284.766 272.436,284.766 272.283 C 284.766 272.130,284.540 272.005,284.263 272.005 C 283.987 272.005,283.761 272.318,283.761 272.700 M310.373 273.402 C 309.996 274.013,310.597 275.000,311.347 275.000 C 312.228 275.000,312.580 274.490,312.264 273.668 C 312.007 272.999,310.733 272.820,310.373 273.402 M244.967 277.637 C 244.942 279.839,245.054 281.641,245.215 281.641 C 245.376 281.641,245.475 280.320,245.435 278.704 C 245.382 276.529,245.483 275.838,245.826 276.044 C 246.177 276.255,246.181 276.186,245.843 275.759 C 245.597 275.449,245.310 274.844,245.205 274.414 C 245.099 273.984,244.992 275.435,244.967 277.637 M287.228 274.632 C 287.401 275.291,287.339 275.353,286.883 274.974 C 286.262 274.459,286.146 273.828,286.673 273.828 C 286.863 273.828,287.113 274.190,287.228 274.632 M270.313 276.740 C 269.775 277.037,269.379 277.427,269.432 277.605 C 269.555 278.025,268.749 280.537,268.312 281.091 C 267.729 281.830,268.404 282.031,271.452 282.025 C 273.509 282.021,274.235 281.904,273.828 281.641 C 273.506 281.432,273.418 281.257,273.633 281.250 C 273.848 281.244,273.584 281.017,273.047 280.747 C 272.364 280.403,272.034 279.876,271.948 278.995 C 271.862 278.105,271.632 277.743,271.167 277.765 C 270.760 277.784,270.695 277.871,270.996 277.993 C 271.559 278.220,271.649 279.149,271.138 279.465 C 270.948 279.582,270.706 279.228,270.601 278.678 C 270.450 277.886,270.608 277.603,271.361 277.316 C 271.885 277.117,272.204 276.778,272.071 276.563 C 271.758 276.058,271.498 276.084,270.313 276.740 M163.197 281.538 C 164.332 281.618,166.090 281.617,167.103 281.537 C 168.116 281.456,167.188 281.392,165.039 281.393 C 162.891 281.394,162.062 281.459,163.197 281.538 M188.379 281.537 C 189.399 281.618,191.069 281.618,192.090 281.537 C 193.110 281.457,192.275 281.391,190.234 281.391 C 188.193 281.391,187.358 281.457,188.379 281.537 " stroke="none" fill="#a6abab" fill-rule="evenodd"></path><path id="path3" d="M130.469 83.097 C 131.006 83.194,131.797 83.566,132.227 83.922 C 133.002 84.565,133.002 84.563,132.264 83.691 C 131.810 83.155,131.125 82.833,130.506 82.866 L 129.492 82.919 130.469 83.097 M139.161 99.414 C 139.165 100.273,139.245 100.579,139.339 100.093 C 139.432 99.607,139.429 98.904,139.331 98.531 C 139.233 98.157,139.157 98.555,139.161 99.414 M304.049 101.758 C 304.050 103.906,304.116 104.735,304.195 103.600 C 304.274 102.465,304.273 100.707,304.193 99.694 C 304.113 98.681,304.048 99.609,304.049 101.758 M95.831 102.539 C 95.833 104.043,95.904 104.610,95.988 103.800 C 96.073 102.989,96.071 101.759,95.985 101.066 C 95.899 100.372,95.830 101.035,95.831 102.539 M317.699 102.148 C 317.701 103.438,317.774 103.918,317.861 103.216 C 317.948 102.514,317.946 101.459,317.857 100.872 C 317.768 100.285,317.697 100.859,317.699 102.148 M136.499 105.566 L 135.352 106.836 136.621 105.689 C 137.804 104.619,138.070 104.297,137.768 104.297 C 137.701 104.297,137.130 104.868,136.499 105.566 M257.122 107.813 C 257.122 108.564,257.202 108.872,257.301 108.496 C 257.399 108.120,257.399 107.505,257.301 107.129 C 257.202 106.753,257.122 107.061,257.122 107.813 M129.590 108.088 C 130.073 108.181,130.864 108.181,131.348 108.088 C 131.831 107.995,131.436 107.919,130.469 107.919 C 129.502 107.919,129.106 107.995,129.590 108.088 M186.023 122.474 C 186.608 123.088,187.156 123.513,187.241 123.417 C 187.327 123.321,186.849 122.818,186.179 122.299 L 184.961 121.356 186.023 122.474 M293.739 126.465 L 291.211 129.102 293.848 126.574 C 295.298 125.184,296.484 123.997,296.484 123.937 C 296.484 123.650,296.087 124.016,293.739 126.465 M105.664 126.172 C 106.722 127.246,107.676 128.125,107.783 128.125 C 107.891 128.125,107.113 127.246,106.055 126.172 C 104.997 125.098,104.043 124.219,103.936 124.219 C 103.828 124.219,104.606 125.098,105.664 126.172 M163.068 125.879 L 161.523 127.539 163.184 125.995 C 164.728 124.559,165.023 124.219,164.728 124.219 C 164.664 124.219,163.917 124.966,163.068 125.879 M96.289 135.938 C 97.347 137.012,98.301 137.891,98.408 137.891 C 98.516 137.891,97.738 137.012,96.680 135.938 C 95.622 134.863,94.668 133.984,94.561 133.984 C 94.453 133.984,95.231 134.863,96.289 135.938 M303.306 136.035 L 301.367 138.086 303.418 136.147 C 305.324 134.346,305.648 133.984,305.356 133.984 C 305.295 133.984,304.372 134.907,303.306 136.035 M182.593 145.410 L 181.445 146.680 182.715 145.532 C 183.413 144.901,183.984 144.330,183.984 144.263 C 183.984 143.961,183.662 144.227,182.593 145.410 M223.302 144.531 C 223.550 144.854,223.834 145.557,223.933 146.094 L 224.112 147.070 224.166 146.044 C 224.195 145.478,223.912 144.777,223.535 144.481 C 222.940 144.015,222.910 144.021,223.302 144.531 M226.661 145.898 C 226.665 146.758,226.745 147.063,226.839 146.577 C 226.932 146.092,226.929 145.388,226.831 145.015 C 226.733 144.642,226.657 145.039,226.661 145.898 M241.903 146.094 C 241.903 147.061,241.979 147.456,242.073 146.973 C 242.166 146.489,242.166 145.698,242.073 145.215 C 241.979 144.731,241.903 145.127,241.903 146.094 M244.577 145.936 C 244.552 146.386,244.927 147.089,245.410 147.498 C 246.282 148.236,246.284 148.236,245.646 147.461 C 245.292 147.031,244.917 146.328,244.812 145.898 C 244.629 145.147,244.620 145.148,244.577 145.936 M171.973 149.499 C 172.563 149.588,173.530 149.588,174.121 149.499 C 174.712 149.409,174.229 149.336,173.047 149.336 C 171.865 149.336,171.382 149.409,171.973 149.499 M260.143 171.777 L 258.008 174.023 260.254 171.888 C 261.489 170.714,262.500 169.703,262.500 169.642 C 262.500 169.352,262.126 169.691,260.143 171.777 M139.648 171.875 C 140.707 172.949,141.660 173.828,141.768 173.828 C 141.875 173.828,141.097 172.949,140.039 171.875 C 138.981 170.801,138.027 169.922,137.920 169.922 C 137.813 169.922,138.590 170.801,139.648 171.875 M130.078 181.445 C 131.462 182.842,132.683 183.984,132.790 183.984 C 132.897 183.984,131.853 182.842,130.469 181.445 C 129.085 180.049,127.864 178.906,127.757 178.906 C 127.650 178.906,128.694 180.049,130.078 181.445 M269.520 181.543 L 266.992 184.180 269.629 181.652 C 271.079 180.262,272.266 179.075,272.266 179.015 C 272.266 178.728,271.868 179.094,269.520 181.543 M212.628 183.008 C 212.630 184.512,212.701 185.079,212.785 184.269 C 212.870 183.458,212.868 182.228,212.782 181.534 C 212.696 180.841,212.626 181.504,212.628 183.008 M164.578 183.594 C 164.578 184.990,164.649 185.562,164.736 184.863 C 164.822 184.165,164.822 183.022,164.736 182.324 C 164.649 181.626,164.578 182.197,164.578 183.594 M186.449 187.695 C 186.451 188.984,186.524 189.465,186.611 188.763 C 186.698 188.060,186.696 187.006,186.607 186.419 C 186.518 185.832,186.447 186.406,186.449 187.695 M234.503 188.477 C 234.505 189.980,234.576 190.548,234.660 189.737 C 234.745 188.927,234.743 187.696,234.657 187.003 C 234.571 186.310,234.501 186.973,234.503 188.477 M212.230 194.727 C 212.233 196.016,212.306 196.496,212.392 195.794 C 212.479 195.092,212.478 194.037,212.388 193.450 C 212.299 192.863,212.228 193.438,212.230 194.727 M164.196 195.898 C 164.198 197.617,164.267 198.272,164.349 197.353 C 164.432 196.434,164.430 195.028,164.346 194.228 C 164.263 193.428,164.195 194.180,164.196 195.898 M186.847 200.586 C 186.849 202.090,186.919 202.657,187.004 201.847 C 187.088 201.036,187.087 199.806,187.001 199.112 C 186.914 198.419,186.845 199.082,186.847 200.586 M234.891 200.391 C 234.891 201.787,234.962 202.358,235.048 201.660 C 235.135 200.962,235.135 199.819,235.048 199.121 C 234.962 198.423,234.891 198.994,234.891 200.391 M211.847 208.008 C 211.849 209.512,211.919 210.079,212.004 209.269 C 212.088 208.458,212.087 207.228,212.001 206.534 C 211.914 205.841,211.845 206.504,211.847 208.008 M163.793 208.398 C 163.795 209.687,163.868 210.168,163.955 209.466 C 164.042 208.764,164.040 207.709,163.951 207.122 C 163.862 206.535,163.791 207.109,163.793 208.398 M198.606 224.023 C 198.606 229.180,198.662 231.235,198.729 228.591 C 198.797 225.947,198.797 221.728,198.729 219.216 C 198.661 216.704,198.606 218.867,198.606 224.023 M244.720 262.500 C 244.720 288.389,244.767 298.979,244.824 286.035 C 244.881 273.091,244.881 251.909,244.824 238.965 C 244.767 226.021,244.720 236.611,244.720 262.500 M211.449 219.727 C 211.451 221.016,211.524 221.496,211.611 220.794 C 211.698 220.092,211.696 219.037,211.607 218.450 C 211.518 217.863,211.447 218.438,211.449 219.727 M163.406 221.094 C 163.406 222.490,163.477 223.062,163.564 222.363 C 163.650 221.665,163.650 220.522,163.564 219.824 C 163.477 219.126,163.406 219.697,163.406 221.094 M303.125 252.267 C 303.125 252.655,302.579 253.834,301.911 254.887 C 301.243 255.939,300.559 257.160,300.390 257.600 C 300.106 258.340,300.064 258.320,299.804 257.324 C 299.651 256.733,299.406 256.250,299.261 256.250 C 299.115 256.250,298.685 255.723,298.304 255.078 C 297.924 254.434,297.442 253.906,297.234 253.906 C 297.026 253.906,296.750 254.434,296.621 255.078 C 296.492 255.723,296.233 256.250,296.045 256.250 C 295.857 256.250,295.703 256.499,295.703 256.804 C 295.703 257.109,295.454 257.856,295.150 258.464 C 294.846 259.073,294.405 260.065,294.170 260.670 C 293.839 261.524,293.570 261.714,292.964 261.522 C 292.412 261.347,292.119 261.482,291.962 261.985 C 291.840 262.376,291.575 263.003,291.374 263.379 C 291.043 263.998,291.258 264.064,293.649 264.075 C 295.349 264.083,296.559 264.292,297.047 264.661 C 297.709 265.161,297.721 265.234,297.145 265.234 C 296.782 265.234,296.484 265.507,296.484 265.840 C 296.484 266.173,296.220 266.956,295.898 267.580 C 295.226 268.878,295.191 268.865,300.457 269.348 C 303.683 269.644,303.582 269.393,303.301 276.413 L 303.077 282.031 304.421 282.031 C 305.872 282.031,305.900 281.991,307.170 278.027 C 307.609 276.660,307.643 276.163,307.301 276.138 C 307.045 276.120,306.221 276.076,305.469 276.041 C 304.288 275.985,304.102 275.843,304.102 275.000 C 304.102 274.233,304.395 273.923,305.469 273.557 L 306.836 273.091 305.534 273.069 C 303.964 273.042,304.015 272.134,305.597 271.947 C 306.779 271.807,306.807 271.744,306.203 270.616 C 305.769 269.804,305.793 269.800,309.719 270.057 C 314.419 270.365,314.387 270.415,312.303 266.067 C 310.798 262.926,310.824 262.500,312.523 262.500 L 313.672 262.500 313.672 258.203 C 313.672 255.017,313.548 253.932,313.193 254.004 C 312.929 254.058,312.655 253.717,312.583 253.246 C 312.505 252.737,312.106 252.323,311.597 252.223 C 311.127 252.131,311.357 252.116,312.109 252.189 C 313.092 252.284,313.312 252.216,312.891 251.948 C 311.701 251.190,303.125 251.470,303.125 252.267 M365.494 253.583 L 363.215 255.592 360.762 255.140 C 356.894 254.427,357.014 254.369,357.164 256.871 C 357.237 258.082,357.516 259.192,357.791 259.362 C 358.141 259.578,358.160 259.746,357.854 259.935 C 357.211 260.333,357.331 260.948,358.002 260.690 C 358.430 260.526,358.287 261.184,357.459 263.192 C 356.029 266.659,354.870 271.610,355.444 271.802 C 355.672 271.878,355.859 272.244,355.859 272.615 C 355.859 273.239,357.771 274.986,358.480 275.011 C 358.650 275.017,359.289 275.531,359.900 276.154 C 361.122 277.401,365.949 279.928,367.822 280.303 C 370.288 280.796,372.720 276.248,373.581 269.531 C 373.794 267.868,373.872 267.748,374.219 268.555 C 374.514 269.242,374.558 269.204,374.582 268.239 C 374.598 267.612,374.777 267.245,375.000 267.383 C 375.215 267.516,375.403 267.219,375.418 266.722 C 375.433 266.226,375.605 265.469,375.799 265.039 C 376.058 264.469,376.104 264.681,375.972 265.820 L 375.790 267.383 376.238 266.016 L 376.687 264.648 377.004 266.363 C 377.179 267.305,377.393 268.148,377.480 268.236 C 377.948 268.703,379.976 265.845,380.605 263.834 C 381.003 262.563,381.486 261.218,381.680 260.845 C 381.873 260.472,382.031 259.539,382.031 258.771 C 382.031 257.940,382.189 257.473,382.422 257.617 C 382.659 257.764,382.815 257.197,382.818 256.175 C 382.828 253.395,383.575 252.921,383.624 255.664 L 383.667 258.008 384.215 255.273 C 385.011 251.299,385.586 251.562,376.086 251.568 L 367.773 251.574 365.494 253.583 M392.964 252.352 C 392.732 252.786,392.639 253.299,392.758 253.491 C 392.877 253.683,392.792 254.319,392.570 254.904 C 392.115 256.101,392.279 256.485,393.040 256.002 C 393.323 255.823,393.730 255.667,393.945 255.657 C 394.523 255.629,394.941 256.387,394.498 256.661 C 394.261 256.807,394.249 257.255,394.465 257.840 C 394.657 258.358,394.689 259.223,394.537 259.762 C 394.384 260.301,394.296 261.885,394.340 263.281 C 394.387 264.789,394.244 265.939,393.987 266.113 C 393.678 266.322,393.676 266.490,393.977 266.699 C 394.255 266.892,394.312 267.929,394.144 269.727 C 393.946 271.841,393.924 279.900,394.111 281.738 C 394.127 281.899,395.459 282.031,397.070 282.031 L 400.000 282.031 400.000 266.797 L 400.000 251.563 396.693 251.563 C 393.775 251.563,393.337 251.655,392.964 252.352 M162.421 256.541 C 164.204 256.613,167.016 256.613,168.671 256.540 C 170.326 256.467,168.867 256.408,165.430 256.408 C 161.992 256.409,160.638 256.468,162.421 256.541 M187.012 256.541 C 188.784 256.613,191.685 256.613,193.457 256.541 C 195.229 256.468,193.779 256.409,190.234 256.409 C 186.689 256.409,185.239 256.468,187.012 256.541 M157.579 264.453 C 157.579 267.783,157.639 269.146,157.712 267.480 C 157.785 265.815,157.785 263.091,157.712 261.426 C 157.639 259.761,157.579 261.123,157.579 264.453 M182.187 264.258 C 182.188 267.480,182.249 268.747,182.322 267.072 C 182.395 265.397,182.395 262.760,182.321 261.213 C 182.247 259.665,182.187 261.035,182.187 264.258 M198.203 264.258 C 198.204 267.480,198.264 268.747,198.338 267.072 C 198.411 265.397,198.411 262.760,198.337 261.213 C 198.263 259.665,198.203 261.035,198.203 264.258 M173.593 264.453 C 173.593 267.568,173.653 268.843,173.728 267.285 C 173.802 265.728,173.802 263.179,173.728 261.621 C 173.653 260.063,173.593 261.338,173.593 264.453 M162.793 272.556 C 164.351 272.630,166.899 272.630,168.457 272.556 C 170.015 272.482,168.740 272.421,165.625 272.421 C 162.510 272.421,161.235 272.482,162.793 272.556 M187.225 272.556 C 188.900 272.630,191.536 272.629,193.084 272.555 C 194.632 272.481,193.262 272.421,190.039 272.422 C 186.816 272.422,185.550 272.483,187.225 272.556 M305.525 274.567 C 305.155 274.801,305.126 274.983,305.427 275.170 C 305.923 275.476,306.641 275.131,306.641 274.586 C 306.641 274.132,306.222 274.125,305.525 274.567 M157.579 289.453 C 157.579 292.783,157.639 294.146,157.712 292.480 C 157.785 290.815,157.785 288.091,157.712 286.426 C 157.639 284.761,157.579 286.123,157.579 289.453 M182.187 289.258 C 182.188 292.480,182.249 293.747,182.322 292.072 C 182.395 290.397,182.395 287.760,182.321 286.213 C 182.247 284.665,182.187 286.035,182.187 289.258 M198.203 289.258 C 198.204 292.480,198.264 293.747,198.338 292.072 C 198.411 290.397,198.411 287.760,198.337 286.213 C 198.263 284.665,198.203 286.035,198.203 289.258 M173.593 289.453 C 173.593 292.568,173.653 293.843,173.728 292.285 C 173.802 290.728,173.802 288.179,173.728 286.621 C 173.653 285.063,173.593 286.338,173.593 289.453 M162.793 297.556 C 164.351 297.630,166.899 297.630,168.457 297.556 C 170.015 297.482,168.740 297.421,165.625 297.421 C 162.510 297.421,161.235 297.482,162.793 297.556 M187.225 297.556 C 188.900 297.630,191.536 297.629,193.084 297.555 C 194.632 297.481,193.262 297.421,190.039 297.422 C 186.816 297.422,185.550 297.483,187.225 297.556 " stroke="none" fill="#7c7c7e" fill-rule="evenodd"></path><path id="path4" d="M310.254 92.457 C 310.630 92.555,311.245 92.555,311.621 92.457 C 311.997 92.359,311.689 92.278,310.938 92.278 C 310.186 92.278,309.878 92.359,310.254 92.457 M267.090 97.151 C 267.573 97.244,268.364 97.244,268.848 97.151 C 269.331 97.058,268.936 96.981,267.969 96.981 C 267.002 96.981,266.606 97.058,267.090 97.151 M162.671 125.879 L 161.523 127.148 162.793 126.001 C 163.491 125.370,164.063 124.799,164.063 124.732 C 164.063 124.430,163.740 124.696,162.671 125.879 M186.825 135.547 C 186.825 136.514,186.901 136.909,186.994 136.426 C 187.088 135.942,187.088 135.151,186.994 134.668 C 186.901 134.185,186.825 134.580,186.825 135.547 M137.891 169.653 C 137.891 169.721,138.462 170.292,139.160 170.923 L 140.430 172.070 139.282 170.801 C 138.213 169.617,137.891 169.352,137.891 169.653 M171.798 176.854 C 174.012 176.924,177.527 176.924,179.611 176.853 C 181.694 176.783,179.883 176.726,175.586 176.727 C 171.289 176.727,169.585 176.784,171.798 176.854 M220.020 176.854 C 222.114 176.924,225.542 176.924,227.637 176.854 C 229.731 176.783,228.018 176.726,223.828 176.726 C 219.639 176.726,217.925 176.783,220.020 176.854 M129.688 181.445 C 130.416 182.197,131.101 182.813,131.208 182.813 C 131.315 182.813,130.807 182.197,130.078 181.445 C 129.349 180.693,128.665 180.078,128.558 180.078 C 128.450 180.078,128.959 180.693,129.688 181.445 M269.901 181.543 L 268.555 183.008 270.020 181.662 C 271.383 180.409,271.664 180.078,271.366 180.078 C 271.300 180.078,270.641 180.737,269.901 181.543 M186.435 182.031 C 186.435 182.998,186.511 183.394,186.604 182.910 C 186.697 182.427,186.697 181.636,186.604 181.152 C 186.511 180.669,186.435 181.064,186.435 182.031 M234.492 182.422 C 234.492 183.604,234.565 184.087,234.655 183.496 C 234.744 182.905,234.744 181.938,234.655 181.348 C 234.565 180.757,234.492 181.240,234.492 182.422 M153.997 185.547 C 153.997 186.299,154.077 186.606,154.176 186.230 C 154.274 185.854,154.274 185.239,154.176 184.863 C 154.077 184.487,153.997 184.795,153.997 185.547 M164.169 189.063 C 164.169 190.029,164.245 190.425,164.338 189.941 C 164.431 189.458,164.431 188.667,164.338 188.184 C 164.245 187.700,164.169 188.096,164.169 189.063 M212.216 189.063 C 212.216 190.029,212.292 190.425,212.385 189.941 C 212.478 189.458,212.478 188.667,212.385 188.184 C 212.292 187.700,212.216 188.096,212.216 189.063 M234.872 194.531 C 234.872 195.498,234.948 195.894,235.041 195.410 C 235.134 194.927,235.134 194.136,235.041 193.652 C 234.948 193.169,234.872 193.564,234.872 194.531 M186.809 194.922 C 186.809 195.674,186.890 195.981,186.988 195.605 C 187.086 195.229,187.086 194.614,186.988 194.238 C 186.890 193.862,186.809 194.170,186.809 194.922 M163.784 201.367 C 163.787 202.441,163.862 202.834,163.952 202.241 C 164.042 201.647,164.040 200.768,163.947 200.288 C 163.854 199.807,163.781 200.293,163.784 201.367 M211.809 202.734 C 211.809 203.486,211.890 203.794,211.988 203.418 C 212.086 203.042,212.086 202.427,211.988 202.051 C 211.890 201.675,211.809 201.982,211.809 202.734 M187.216 205.859 C 187.216 206.826,187.292 207.222,187.385 206.738 C 187.478 206.255,187.478 205.464,187.385 204.980 C 187.292 204.497,187.216 204.893,187.216 205.859 M211.445 213.672 C 211.445 214.854,211.518 215.337,211.608 214.746 C 211.697 214.155,211.697 213.188,211.608 212.598 C 211.518 212.007,211.445 212.490,211.445 213.672 M163.380 215.430 C 163.384 216.289,163.464 216.595,163.558 216.109 C 163.651 215.623,163.647 214.920,163.550 214.546 C 163.452 214.173,163.375 214.570,163.380 215.430 M152.511 223.633 C 152.512 228.574,152.568 230.542,152.636 228.005 C 152.704 225.469,152.704 221.426,152.635 219.021 C 152.567 216.616,152.511 218.691,152.511 223.633 M106.046 277.930 C 106.046 296.191,106.094 303.605,106.152 294.404 C 106.211 285.204,106.211 270.262,106.152 261.201 C 106.094 252.140,106.046 259.668,106.046 277.930 M245.313 254.159 C 245.313 256.012,245.444 256.662,245.797 256.544 C 246.063 256.456,246.591 256.776,246.969 257.257 C 247.781 258.290,247.836 258.630,247.168 258.496 C 246.881 258.439,246.726 258.720,246.791 259.180 C 246.852 259.609,246.920 260.625,246.942 261.436 C 246.964 262.247,247.133 263.004,247.319 263.119 C 247.504 263.234,247.654 263.537,247.650 263.793 C 247.647 264.072,247.493 264.024,247.266 263.672 C 246.984 263.236,246.885 263.461,246.881 264.551 C 246.876 265.753,246.735 266.016,246.094 266.016 C 245.374 266.016,245.313 265.755,245.313 262.708 C 245.313 259.720,245.379 259.424,245.996 259.656 C 246.604 259.883,246.618 259.836,246.123 259.228 C 245.072 257.937,244.786 259.508,245.107 264.812 C 245.270 267.515,245.403 270.320,245.403 271.044 C 245.402 271.890,245.517 272.177,245.722 271.844 C 245.898 271.559,245.957 271.188,245.852 271.019 C 245.748 270.850,245.935 270.817,246.269 270.945 C 246.602 271.073,246.875 270.988,246.875 270.757 C 246.875 270.526,247.095 270.405,247.363 270.487 C 247.632 270.570,248.335 270.744,248.926 270.873 C 249.517 271.003,250.000 271.369,250.000 271.687 C 250.000 272.356,249.809 272.397,248.900 271.921 C 247.735 271.311,246.484 272.096,246.484 273.438 C 246.484 274.703,247.850 275.679,248.613 274.959 C 249.234 274.375,249.897 274.566,250.113 275.391 C 250.226 275.821,250.193 276.096,250.040 276.001 C 249.887 275.907,249.112 275.976,248.318 276.155 C 247.398 276.362,246.875 276.338,246.875 276.089 C 246.875 275.874,246.602 275.802,246.269 275.930 C 245.935 276.058,245.748 276.025,245.852 275.856 C 245.957 275.687,245.900 275.319,245.726 275.037 C 245.552 274.756,245.432 276.127,245.459 278.083 C 245.487 280.133,245.342 281.710,245.117 281.805 C 244.902 281.896,250.073 281.983,256.608 282.000 C 263.143 282.017,268.374 281.916,268.233 281.774 C 268.091 281.633,268.127 281.325,268.312 281.091 C 268.659 280.650,269.688 277.690,269.615 277.344 C 269.509 276.850,271.588 276.120,271.982 276.513 C 272.269 276.801,272.095 277.037,271.401 277.301 C 270.608 277.603,270.448 277.878,270.601 278.678 C 270.706 279.228,270.948 279.582,271.138 279.465 C 271.649 279.149,271.559 278.220,270.996 277.993 C 270.695 277.871,270.760 277.784,271.167 277.765 C 271.632 277.743,271.862 278.105,271.948 278.995 C 272.034 279.876,272.364 280.403,273.047 280.747 C 273.584 281.017,273.848 281.244,273.633 281.250 C 273.418 281.257,273.506 281.432,273.828 281.641 C 274.508 282.080,280.501 282.080,282.227 281.641 C 283.329 281.360,283.341 281.338,282.422 281.271 C 281.522 281.206,281.506 281.175,282.227 280.872 C 283.326 280.409,284.469 278.935,284.224 278.296 C 283.925 277.515,284.615 277.242,285.636 277.738 C 286.487 278.150,286.492 278.143,285.765 277.561 C 285.348 277.226,284.865 276.953,284.691 276.953 C 284.517 276.953,284.375 276.767,284.375 276.539 C 284.375 276.312,284.539 276.227,284.741 276.352 C 284.964 276.490,284.977 276.126,284.773 275.415 C 284.589 274.776,284.537 273.850,284.656 273.357 C 284.837 272.606,284.784 272.543,284.330 272.969 C 283.752 273.511,283.545 275.391,284.064 275.391 C 284.235 275.391,284.375 275.579,284.375 275.809 C 284.375 276.039,283.979 276.177,283.496 276.114 C 283.013 276.052,282.432 276.116,282.205 276.258 C 281.539 276.673,279.883 275.627,279.883 274.791 C 279.883 274.369,279.724 273.777,279.530 273.476 C 278.659 272.123,282.409 271.253,283.485 272.559 C 283.950 273.123,284.015 273.134,283.856 272.617 C 283.706 272.131,283.937 272.001,284.898 272.031 C 285.897 272.063,286.225 271.860,286.614 270.969 C 287.223 269.573,287.917 269.960,287.791 271.625 C 287.722 272.545,287.495 272.910,286.968 272.950 C 285.820 273.037,285.740 273.369,286.588 274.517 C 287.023 275.105,287.333 275.904,287.276 276.291 C 287.192 276.860,287.280 276.907,287.727 276.536 C 288.032 276.283,288.269 275.614,288.254 275.050 C 288.229 274.133,288.192 274.107,287.905 274.805 L 287.584 275.586 287.277 274.805 C 287.109 274.375,286.782 273.894,286.552 273.736 C 286.321 273.579,286.616 273.447,287.207 273.443 C 288.805 273.435,288.745 271.054,287.097 269.054 C 285.859 267.552,285.780 265.625,286.956 265.625 C 287.255 265.625,287.500 265.449,287.500 265.234 C 287.500 265.020,287.343 264.844,287.151 264.844 C 286.011 264.844,286.263 263.616,288.334 259.064 C 288.950 257.712,289.453 256.508,289.453 256.389 C 289.453 256.270,289.737 255.574,290.084 254.843 C 290.431 254.111,290.627 253.175,290.519 252.762 C 290.372 252.201,290.485 252.063,290.962 252.215 C 291.514 252.390,291.521 252.360,291.016 251.996 C 290.693 251.764,289.727 251.584,288.867 251.596 C 287.640 251.613,287.472 251.689,288.086 251.953 C 288.516 252.138,288.637 252.301,288.356 252.316 C 288.075 252.331,287.948 252.511,288.074 252.715 C 288.200 252.919,287.961 253.269,287.543 253.493 C 287.124 253.717,286.666 254.429,286.524 255.075 C 286.382 255.721,286.109 256.250,285.916 256.250 C 285.724 256.250,285.670 256.767,285.796 257.399 C 286.057 258.704,285.261 262.500,284.727 262.500 C 284.533 262.500,284.375 262.848,284.375 263.274 C 284.375 263.779,284.026 264.135,283.370 264.300 C 282.808 264.441,282.206 264.971,282.003 265.503 C 281.805 266.026,281.498 266.364,281.322 266.255 C 281.146 266.147,280.755 266.400,280.454 266.818 C 280.152 267.236,279.650 267.578,279.338 267.578 C 278.923 267.578,279.000 267.334,279.623 266.670 C 280.092 266.171,280.348 265.634,280.191 265.478 C 280.035 265.321,280.253 265.316,280.676 265.467 C 281.284 265.683,281.350 265.636,280.988 265.244 C 280.736 264.972,280.616 264.462,280.722 264.113 C 280.827 263.763,280.644 263.916,280.314 264.453 C 279.769 265.342,279.473 265.251,279.674 264.258 C 279.717 264.043,279.622 263.997,279.463 264.157 C 279.304 264.316,278.894 264.233,278.552 263.973 C 278.210 263.713,278.325 263.946,278.809 264.490 C 280.699 266.619,279.015 266.882,276.766 264.810 L 275.048 263.226 274.926 264.836 C 274.757 267.074,273.275 266.193,273.361 263.906 C 273.392 263.075,273.257 262.566,273.040 262.700 C 272.831 262.829,272.768 262.663,272.898 262.325 C 273.026 261.991,272.926 261.719,272.675 261.719 C 272.424 261.719,272.330 261.540,272.465 261.322 C 272.600 261.103,272.918 261.046,273.172 261.194 C 273.425 261.341,273.298 261.081,272.889 260.614 C 272.023 259.627,271.956 259.600,271.980 260.254 C 272.046 262.030,271.906 262.258,271.161 261.584 C 269.863 260.409,268.472 260.999,268.537 262.695 C 268.581 263.838,269.081 264.453,269.968 264.453 C 270.398 264.453,270.642 264.279,270.511 264.067 C 270.374 263.846,270.531 263.780,270.878 263.913 C 271.234 264.050,271.484 263.937,271.484 263.639 C 271.484 263.337,271.717 263.439,272.058 263.890 C 272.573 264.570,272.552 264.716,271.861 265.299 C 271.315 265.759,271.233 266.005,271.580 266.142 C 271.850 266.248,271.367 266.242,270.508 266.128 C 267.216 265.693,265.870 263.809,267.091 261.342 C 267.843 259.821,266.888 259.155,265.990 260.574 C 265.665 261.088,265.454 260.802,265.588 260.030 C 265.619 259.852,265.420 259.837,265.146 259.995 C 264.856 260.162,264.785 260.133,264.975 259.926 C 265.155 259.730,267.089 259.570,269.272 259.570 L 273.242 259.570 273.282 258.476 C 273.304 257.874,273.491 257.212,273.698 257.005 C 274.435 256.268,273.712 253.383,272.656 252.849 C 271.704 252.368,271.718 252.354,273.242 252.301 L 274.805 252.246 273.047 251.933 C 272.080 251.761,269.971 251.632,268.359 251.647 C 265.936 251.669,265.700 251.722,266.992 251.953 C 268.126 252.156,268.287 252.257,267.578 252.319 C 267.041 252.367,266.815 252.492,267.076 252.598 C 267.446 252.748,267.447 252.955,267.079 253.543 C 266.575 254.351,265.625 254.569,265.625 253.878 C 265.625 253.648,265.360 253.195,265.035 252.870 C 264.711 252.546,264.549 252.114,264.675 251.910 C 264.818 251.679,261.199 251.553,255.108 251.576 L 245.313 251.612 245.313 254.159 M321.094 251.953 C 320.259 252.220,320.233 252.272,320.916 252.305 C 321.555 252.336,321.733 252.637,321.803 253.809 C 321.854 254.665,322.189 255.525,322.610 255.879 C 323.006 256.211,323.565 257.134,323.853 257.929 C 324.172 258.813,324.630 259.375,325.030 259.375 C 325.894 259.375,325.910 261.192,325.049 261.534 C 324.700 261.672,321.996 261.974,319.042 262.205 L 313.669 262.624 313.737 267.569 C 313.775 270.289,313.706 272.678,313.584 272.878 C 313.096 273.682,314.253 274.095,315.635 273.611 C 316.946 273.152,316.664 272.558,315.234 272.766 C 314.912 272.813,314.604 272.676,314.551 272.461 C 314.497 272.246,315.108 272.070,315.909 272.070 C 317.441 272.070,317.584 272.263,318.157 275.098 C 318.277 275.688,318.512 276.172,318.679 276.172 C 319.144 276.172,319.061 274.063,318.583 273.736 C 318.302 273.544,318.324 273.448,318.652 273.443 C 318.921 273.440,319.141 273.107,319.141 272.702 C 319.141 271.825,321.933 271.590,322.613 272.409 C 323.394 273.350,323.366 276.395,322.577 276.395 C 322.097 276.395,321.862 276.082,321.833 275.405 C 321.752 273.458,321.676 273.057,321.387 273.052 C 321.226 273.049,320.929 273.047,320.728 273.047 C 320.203 273.047,320.316 276.101,320.847 276.287 C 321.090 276.372,320.827 276.372,320.263 276.286 C 319.629 276.190,318.966 276.400,318.527 276.835 C 317.868 277.489,317.836 277.490,318.076 276.855 C 318.347 276.139,318.346 276.138,315.608 276.031 L 314.223 275.977 314.140 278.298 C 313.993 282.422,312.302 282.031,330.300 282.031 C 338.986 282.031,346.094 281.925,346.094 281.794 C 346.094 281.664,345.592 280.917,344.978 280.134 C 336.079 268.778,345.790 252.820,360.408 254.778 C 362.831 255.103,363.065 255.063,364.464 254.094 C 368.372 251.386,369.424 251.556,349.182 251.616 C 339.212 251.645,331.440 251.744,331.912 251.835 C 332.464 251.943,332.693 252.202,332.554 252.563 C 332.435 252.872,332.516 253.125,332.734 253.125 C 332.952 253.125,333.036 253.484,332.922 253.922 C 332.732 254.646,332.652 254.664,332.049 254.117 C 331.683 253.786,330.782 253.513,330.047 253.510 C 328.996 253.505,328.836 253.415,329.297 253.088 C 329.756 252.763,329.652 252.710,328.820 252.843 C 328.236 252.936,327.843 252.874,327.947 252.706 C 328.051 252.537,327.826 252.327,327.447 252.238 C 327.068 252.150,327.549 252.129,328.516 252.193 C 330.029 252.293,330.110 252.264,329.102 251.982 C 327.603 251.564,322.369 251.545,321.094 251.953 M387.475 252.246 C 387.250 254.885,386.103 261.692,385.155 266.016 C 383.889 271.785,383.135 276.109,382.853 279.217 L 382.593 282.068 384.168 281.952 C 385.562 281.849,385.728 281.733,385.616 280.935 C 385.547 280.440,385.758 277.803,386.086 275.076 C 386.413 272.349,386.794 268.096,386.933 265.625 C 387.071 263.154,387.227 260.781,387.280 260.352 C 387.542 258.212,388.419 253.608,388.712 252.832 C 388.986 252.105,388.910 251.953,388.272 251.953 C 387.847 251.953,387.489 252.085,387.475 252.246 M275.027 258.691 C 274.998 261.521,275.238 261.827,276.404 260.449 L 277.148 259.570 276.315 260.273 C 275.412 261.035,275.192 259.442,275.960 257.698 C 276.130 257.313,276.159 256.888,276.025 256.754 C 275.891 256.620,275.769 256.759,275.754 257.064 C 275.738 257.391,275.589 257.297,275.391 256.836 C 275.157 256.292,275.047 256.856,275.027 258.691 M252.265 256.892 C 253.821 257.309,253.167 258.421,251.455 258.270 C 250.359 258.174,249.935 258.308,249.741 258.815 C 249.483 259.487,250.474 260.553,251.344 260.541 C 251.572 260.538,251.519 260.384,251.228 260.199 C 250.832 259.948,250.815 259.791,251.159 259.578 C 251.839 259.158,253.893 259.081,253.643 259.485 C 253.525 259.675,253.842 259.773,254.347 259.701 C 254.852 259.629,255.324 259.263,255.395 258.888 C 255.474 258.476,255.321 258.257,255.009 258.336 C 254.725 258.407,254.625 258.392,254.788 258.301 C 254.950 258.210,255.011 258.020,254.923 257.877 C 254.834 257.734,255.324 257.617,256.010 257.617 C 257.134 257.617,257.243 257.719,257.108 258.642 C 256.977 259.528,257.118 259.690,258.145 259.840 C 258.799 259.936,259.252 259.883,259.152 259.722 C 258.626 258.870,264.279 259.583,264.981 260.458 C 265.560 261.177,265.817 261.264,266.263 260.894 C 266.740 260.499,266.759 260.595,266.397 261.548 C 266.163 262.162,266.077 263.082,266.205 263.592 C 266.353 264.183,266.291 264.428,266.031 264.267 C 265.808 264.129,265.625 264.198,265.625 264.420 C 265.625 264.928,263.560 266.016,262.595 266.016 C 261.640 266.016,259.304 264.278,259.673 263.842 C 259.831 263.655,259.671 263.723,259.318 263.992 C 258.957 264.267,258.758 264.803,258.866 265.213 C 259.114 266.161,257.969 266.440,256.592 265.767 C 256.029 265.491,255.502 265.332,255.421 265.414 C 255.340 265.496,255.291 264.654,255.313 263.543 C 255.341 262.138,255.304 261.976,255.192 263.013 C 255.014 264.661,254.188 264.822,253.971 263.251 C 253.899 262.730,253.709 262.167,253.548 261.999 C 253.388 261.832,253.332 262.207,253.424 262.833 C 253.803 265.415,251.289 266.775,248.551 265.469 C 247.122 264.788,247.351 263.295,248.793 263.894 C 249.973 264.385,251.529 264.432,251.805 263.986 C 251.991 263.686,251.857 263.625,251.399 263.801 C 250.941 263.977,250.775 263.902,250.895 263.574 C 250.994 263.306,251.272 263.130,251.514 263.184 C 252.182 263.332,252.038 262.616,251.347 262.351 C 250.951 262.199,250.838 262.275,251.020 262.571 C 251.205 262.870,251.087 262.942,250.670 262.782 C 250.243 262.618,250.105 262.710,250.242 263.066 C 250.353 263.356,250.258 263.708,250.031 263.848 C 249.769 264.010,249.714 263.847,249.882 263.399 C 250.123 262.757,250.080 262.747,249.390 263.281 C 248.687 263.825,248.672 263.818,249.177 263.174 C 249.476 262.793,249.593 262.354,249.438 262.198 C 249.282 262.043,248.924 262.232,248.641 262.618 C 248.166 263.268,248.131 263.249,248.185 262.371 C 248.235 261.547,248.361 261.467,249.147 261.766 C 250.611 262.322,250.675 262.161,249.316 261.332 C 248.618 260.907,248.035 260.336,248.019 260.064 C 248.004 259.793,247.826 259.922,247.623 260.352 C 247.342 260.946,247.317 260.853,247.520 259.961 C 247.666 259.316,247.779 258.350,247.771 257.813 C 247.762 257.275,247.835 257.055,247.933 257.324 C 248.070 257.698,248.306 257.676,248.947 257.226 C 249.839 256.602,250.815 256.503,252.265 256.892 M280.421 257.377 C 280.717 257.569,280.857 257.891,280.731 258.094 C 280.606 258.297,280.742 258.464,281.035 258.464 C 281.346 258.464,281.473 258.221,281.342 257.879 C 281.180 257.457,281.272 257.384,281.672 257.616 C 281.977 257.793,282.090 257.788,281.924 257.605 C 281.757 257.421,281.230 257.217,280.752 257.150 C 280.125 257.063,280.033 257.126,280.421 257.377 M283.984 258.292 C 283.984 259.004,284.677 259.594,285.061 259.210 C 285.195 259.075,285.008 258.669,284.645 258.305 C 284.036 257.696,283.984 257.695,283.984 258.292 M278.229 259.655 C 278.881 259.754,279.206 259.987,279.048 260.243 C 278.891 260.497,278.967 260.555,279.237 260.389 C 280.095 259.858,279.682 259.375,278.418 259.434 C 277.227 259.488,277.215 259.502,278.229 259.655 M261.551 261.551 C 261.214 261.889,260.949 262.460,260.962 262.821 C 260.980 263.293,261.085 263.233,261.338 262.604 C 261.716 261.663,262.508 261.732,263.770 262.815 C 264.382 263.341,264.453 263.335,264.453 262.756 C 264.453 262.400,264.321 262.128,264.160 262.152 C 263.172 262.294,261.976 261.580,262.716 261.290 C 263.336 261.047,263.355 260.987,262.821 260.965 C 262.460 260.950,261.889 261.214,261.551 261.551 M277.820 266.797 C 277.736 266.904,277.331 266.577,276.920 266.070 C 276.508 265.563,276.172 265.372,276.172 265.647 C 276.172 266.446,275.641 265.691,275.575 264.797 C 275.524 264.098,275.686 264.167,276.745 265.294 C 277.421 266.013,277.905 266.689,277.820 266.797 M265.771 271.173 C 265.666 271.344,265.326 271.484,265.016 271.484 C 264.326 271.484,264.265 270.443,264.941 270.208 C 265.489 270.019,266.068 270.692,265.771 271.173 M278.931 271.961 C 278.689 273.035,278.743 273.530,279.137 273.858 C 279.562 274.210,279.576 274.473,279.207 275.139 C 278.951 275.600,278.774 276.240,278.813 276.563 C 278.859 276.941,278.807 276.976,278.667 276.660 C 278.536 276.365,277.691 276.172,276.530 276.172 L 274.609 276.172 274.609 273.483 C 274.609 270.505,275.208 269.979,277.765 270.712 C 278.684 270.975,278.819 270.922,278.628 270.376 C 278.468 269.920,278.529 269.843,278.830 270.118 C 279.112 270.375,279.147 271.004,278.931 271.961 M263.844 270.740 C 263.588 271.155,264.777 271.984,265.327 271.773 C 265.667 271.642,265.799 271.963,265.753 272.804 C 265.716 273.474,265.672 274.507,265.655 275.098 C 265.593 277.320,264.453 276.347,264.453 274.071 C 264.453 272.634,264.258 271.809,263.837 271.459 C 263.284 271.001,263.231 271.209,263.323 273.462 C 263.415 275.708,263.345 275.982,262.670 276.031 C 262.254 276.062,261.637 276.200,261.299 276.340 C 260.055 276.853,258.612 274.789,259.101 273.196 C 259.504 271.882,259.607 271.815,261.013 271.949 C 262.330 272.075,262.500 271.992,262.500 271.226 C 262.500 270.612,262.719 270.378,263.254 270.418 C 263.669 270.449,263.935 270.594,263.844 270.740 M267.351 270.550 C 267.691 270.680,267.969 271.032,267.969 271.331 C 267.969 271.630,268.232 271.875,268.555 271.875 C 268.877 271.875,269.141 272.051,269.141 272.266 C 269.141 272.480,268.866 272.656,268.530 272.656 C 268.076 272.656,267.951 272.983,268.042 273.926 C 268.119 274.731,268.354 275.156,268.683 275.087 C 268.985 275.025,269.148 275.251,269.074 275.630 C 268.996 276.027,268.488 276.330,267.777 276.405 C 267.035 276.484,266.801 276.411,267.135 276.204 C 267.503 275.977,267.531 275.798,267.229 275.612 C 266.991 275.465,266.797 274.754,266.797 274.033 C 266.797 273.312,266.577 272.632,266.309 272.523 C 265.959 272.381,265.943 272.234,266.253 272.002 C 266.491 271.825,266.639 271.372,266.581 270.996 C 266.463 270.231,266.486 270.218,267.351 270.550 M289.125 271.777 C 289.059 273.544,289.413 273.850,290.284 272.778 C 290.752 272.204,290.736 272.151,290.160 272.367 C 289.642 272.561,289.466 272.345,289.343 271.366 C 289.212 270.309,289.178 270.372,289.125 271.777 M276.026 272.083 C 275.667 273.018,275.690 273.047,276.786 273.047 C 277.531 273.047,277.758 272.871,277.661 272.368 C 277.488 271.473,276.337 271.272,276.026 272.083 M253.906 272.287 C 253.906 272.501,253.449 272.850,252.889 273.062 C 251.996 273.402,251.890 273.632,252.015 274.945 C 252.128 276.130,252.035 276.408,251.567 276.285 C 250.965 276.127,250.667 274.352,250.986 272.818 C 251.163 271.960,253.906 271.462,253.906 272.287 M258.052 272.864 C 258.844 274.073,258.655 274.297,256.842 274.297 C 255.946 274.297,255.488 274.461,255.589 274.746 C 255.677 274.993,256.301 275.151,256.976 275.096 C 258.260 274.992,258.648 275.527,257.585 275.935 C 254.928 276.955,253.077 274.585,254.796 272.363 C 255.468 271.494,257.343 271.782,258.052 272.864 M271.094 272.415 C 271.094 272.713,270.764 273.042,270.362 273.147 C 269.799 273.294,269.674 273.170,269.822 272.607 C 270.042 271.764,271.094 271.606,271.094 272.415 M302.025 274.094 C 301.961 276.260,301.863 276.526,301.074 276.677 L 300.195 276.847 301.086 276.900 C 302.214 276.967,302.424 276.400,302.243 273.782 L 302.098 271.680 302.025 274.094 M255.715 272.964 C 255.611 273.133,255.962 273.308,256.495 273.352 C 257.054 273.398,257.363 273.268,257.225 273.044 C 256.939 272.581,255.983 272.530,255.715 272.964 M260.645 272.942 C 259.965 273.179,260.031 274.868,260.731 275.137 C 261.047 275.258,261.598 275.065,261.955 274.708 C 262.382 274.281,262.452 274.007,262.159 273.910 C 261.914 273.828,261.802 273.619,261.909 273.445 C 262.153 273.051,261.302 272.712,260.645 272.942 M279.689 273.157 C 279.686 273.702,280.855 273.927,281.389 273.485 C 281.674 273.248,282.023 273.169,282.165 273.311 C 282.306 273.452,282.422 273.375,282.422 273.140 C 282.422 272.898,281.828 272.742,281.056 272.782 C 280.305 272.820,279.690 272.989,279.689 273.157 M303.237 274.805 C 303.240 275.879,303.316 276.272,303.405 275.678 C 303.495 275.084,303.493 274.206,303.400 273.725 C 303.307 273.245,303.234 273.730,303.237 274.805 M275.787 274.144 C 275.791 274.293,275.944 274.653,276.129 274.944 C 276.532 275.581,278.245 275.164,278.018 274.485 C 277.859 274.006,275.777 273.689,275.787 274.144 M271.582 274.477 C 271.313 274.586,271.094 274.991,271.094 275.378 C 271.094 275.764,270.780 276.163,270.396 276.263 C 269.912 276.390,269.699 276.224,269.699 275.723 C 269.699 275.325,269.925 275.000,270.201 275.000 C 270.477 275.000,270.703 274.824,270.703 274.609 C 270.703 274.395,271.011 274.233,271.387 274.250 C 271.795 274.268,271.874 274.360,271.582 274.477 M281.120 274.479 C 280.639 274.960,280.854 275.391,281.576 275.391 C 281.969 275.391,282.292 275.127,282.292 274.805 C 282.292 274.206,281.588 274.011,281.120 274.479 M315.414 274.635 C 315.272 274.865,315.254 275.150,315.374 275.270 C 315.695 275.591,316.797 275.089,316.797 274.622 C 316.797 274.091,315.743 274.102,315.414 274.635 M296.529 276.917 C 296.199 277.127,296.730 277.180,297.897 277.054 C 298.946 276.942,299.878 276.785,299.967 276.706 C 300.321 276.394,297.036 276.596,296.529 276.917 M0.000 391.799 L 0.000 394.922 16.992 394.922 L 33.984 394.922 33.984 391.819 L 33.984 388.716 16.992 388.696 L 0.000 388.676 0.000 391.799 M13.614 390.870 C 13.382 391.163,13.557 391.387,14.135 391.538 C 15.158 391.806,15.258 391.739,15.334 390.734 C 15.365 390.316,15.603 389.974,15.861 389.974 C 16.120 389.974,16.231 390.237,16.107 390.559 C 15.952 390.963,16.038 391.048,16.384 390.834 C 16.670 390.657,17.009 390.727,17.177 390.998 C 17.390 391.343,17.536 391.299,17.715 390.833 C 17.876 390.412,17.807 390.288,17.513 390.470 C 17.251 390.632,17.173 390.573,17.324 390.329 C 17.770 389.608,19.682 390.389,19.918 391.389 C 20.036 391.890,20.519 392.442,20.991 392.617 C 22.057 393.011,22.536 392.383,21.590 391.833 C 21.210 391.611,21.118 391.425,21.387 391.418 C 21.655 391.412,21.875 391.219,21.875 390.989 C 21.875 390.739,21.524 390.678,20.996 390.838 C 20.318 391.043,20.219 390.996,20.564 390.632 C 21.188 389.975,22.472 390.320,22.407 391.128 C 22.377 391.496,22.519 391.797,22.723 391.797 C 22.926 391.797,22.997 391.953,22.879 392.143 C 22.761 392.334,23.003 392.578,23.417 392.686 C 23.867 392.804,24.258 392.648,24.393 392.296 C 24.545 391.900,24.437 391.779,24.060 391.924 C 23.440 392.162,22.975 391.361,23.376 390.745 C 23.687 390.267,25.844 389.816,25.551 390.291 C 25.437 390.475,25.003 390.625,24.586 390.625 C 23.546 390.625,23.630 391.263,24.707 391.545 C 25.190 391.671,25.674 391.824,25.781 391.883 C 25.888 391.943,25.976 391.654,25.976 391.240 C 25.977 389.564,27.945 389.780,28.012 391.464 C 28.081 393.218,27.020 394.185,26.161 393.151 C 25.796 392.711,25.548 392.676,25.149 393.008 C 24.858 393.249,24.174 393.335,23.630 393.198 C 23.086 393.062,22.311 393.126,21.908 393.342 C 21.370 393.630,21.051 393.583,20.705 393.166 C 20.294 392.672,20.076 392.679,19.004 393.228 L 17.773 393.857 18.518 393.022 C 18.927 392.563,19.073 392.188,18.842 392.188 C 18.612 392.188,18.101 392.067,17.708 391.919 C 17.055 391.674,17.044 391.715,17.578 392.385 C 17.919 392.812,17.960 392.996,17.676 392.825 C 17.358 392.634,17.183 392.779,17.175 393.239 C 17.163 393.909,17.136 393.910,16.644 393.262 C 16.134 392.590,14.602 392.262,15.003 392.910 C 15.116 393.093,14.643 393.225,13.952 393.203 C 12.621 393.162,11.957 391.793,12.839 390.911 C 13.119 390.631,13.114 390.252,12.822 389.686 L 12.399 388.867 13.181 389.648 C 13.679 390.145,13.837 390.590,13.614 390.870 M30.803 391.373 C 30.852 392.106,30.960 392.816,31.043 392.950 C 31.126 393.084,30.775 393.228,30.263 393.271 C 29.751 393.313,29.104 393.394,28.826 393.451 C 28.548 393.508,28.357 393.356,28.403 393.112 C 28.448 392.869,28.525 392.078,28.574 391.355 C 28.708 389.365,30.669 389.381,30.803 391.373 M7.461 390.625 C 7.625 392.268,7.510 393.135,7.109 393.268 C 6.812 393.367,6.641 392.983,6.641 392.220 C 6.641 391.558,6.454 391.016,6.227 391.016 C 5.999 391.016,5.922 390.840,6.055 390.625 C 6.187 390.410,6.549 390.234,6.859 390.234 C 7.169 390.234,7.439 390.410,7.461 390.625 M9.314 391.797 C 9.208 393.603,8.594 393.936,8.594 392.188 C 8.594 391.543,8.408 391.016,8.180 391.016 C 7.953 391.016,7.875 390.840,8.008 390.625 C 8.647 389.590,9.405 390.269,9.314 391.797 M11.768 391.016 C 11.794 391.445,11.838 392.102,11.865 392.475 C 11.923 393.284,10.652 393.626,10.017 392.973 C 9.678 392.624,9.749 392.544,10.311 392.643 C 10.718 392.715,11.129 392.554,11.222 392.285 C 11.316 392.017,11.208 391.797,10.982 391.797 C 10.756 391.797,10.673 391.531,10.798 391.207 C 10.966 390.768,10.846 390.684,10.331 390.882 C 9.856 391.065,9.726 391.004,9.920 390.691 C 10.396 389.920,11.714 390.152,11.768 391.016 M29.297 391.406 C 29.297 392.168,29.711 392.424,30.181 391.954 C 30.494 391.641,30.085 390.625,29.646 390.625 C 29.454 390.625,29.297 390.977,29.297 391.406 M13.103 392.161 C 12.836 392.592,13.452 393.058,13.813 392.698 C 14.184 392.326,14.115 391.797,13.695 391.797 C 13.493 391.797,13.226 391.961,13.103 392.161 M26.563 392.383 C 26.563 392.705,26.738 392.969,26.953 392.969 C 27.168 392.969,27.344 392.705,27.344 392.383 C 27.344 392.061,27.168 391.797,26.953 391.797 C 26.738 391.797,26.563 392.061,26.563 392.383 " stroke="none" fill="#bcbcbc" fill-rule="evenodd"></path></g></svg>