<svg id="svg" version="1.1" xmlns="http://www.w3.org/2000/svg" xmlns:xlink="http://www.w3.org/1999/xlink" width="400" height="400" viewBox="0, 0, 400,400"><g id="svgg"><path id="path0" d="M281.797 97.955 C 280.732 98.666,280.469 100.149,280.469 105.443 C 280.469 108.465,280.340 110.938,280.182 110.938 C 280.024 110.938,277.833 108.881,275.312 106.367 C 270.364 101.432,269.088 100.819,267.242 102.490 C 264.942 104.571,265.581 105.680,273.802 113.863 L 280.469 120.499 280.469 130.302 C 280.469 135.693,280.374 140.199,280.258 140.315 C 280.142 140.431,276.147 138.270,271.380 135.512 L 262.712 130.499 261.429 125.699 C 260.724 123.058,259.624 118.891,258.985 116.438 C 257.682 111.431,256.848 110.156,254.874 110.156 C 251.522 110.156,251.177 111.967,253.122 119.371 C 254.005 122.732,254.671 125.537,254.603 125.606 C 254.534 125.674,252.372 124.515,249.798 123.031 C 244.659 120.067,243.451 119.795,241.974 121.271 C 239.821 123.425,240.745 125.124,245.608 127.954 C 252.477 131.952,252.577 131.335,244.727 133.385 C 237.833 135.186,236.079 136.860,238.086 139.726 C 239.188 141.298,240.420 141.186,249.763 138.666 C 254.633 137.353,258.919 136.261,259.289 136.240 C 259.899 136.206,261.765 137.237,273.393 144.038 L 277.059 146.182 275.932 146.858 C 275.312 147.230,271.405 149.513,267.251 151.932 L 259.697 156.330 255.727 155.301 C 253.544 154.735,249.561 153.665,246.875 152.923 C 239.709 150.945,237.500 151.326,237.500 154.541 C 237.500 156.853,238.208 157.224,247.168 159.609 C 252.083 160.917,252.097 160.737,246.837 163.693 C 241.030 166.957,239.637 168.878,241.632 170.873 C 243.504 172.745,243.815 172.684,249.862 169.262 C 252.331 167.865,254.441 166.810,254.550 166.919 C 254.659 167.028,253.995 169.874,253.075 173.242 C 251.218 180.045,251.269 180.821,253.657 181.969 C 256.635 183.401,257.271 182.347,260.310 170.939 L 262.710 161.932 267.976 158.854 C 270.872 157.161,274.708 154.914,276.498 153.862 C 278.289 152.810,279.915 152.048,280.112 152.169 C 280.312 152.293,280.469 156.653,280.469 162.089 L 280.469 171.788 273.926 178.326 C 265.303 186.943,265.149 187.191,267.027 189.423 C 268.915 191.667,269.878 191.270,275.000 186.133 C 280.700 180.417,280.469 180.377,280.469 187.077 C 280.469 193.245,280.538 193.564,282.059 194.350 C 283.647 195.172,284.290 195.067,285.577 193.780 L 286.719 192.638 286.719 186.866 L 286.719 181.095 291.539 185.860 C 296.898 191.158,297.879 191.609,299.822 189.666 C 301.899 187.590,301.510 186.913,293.750 179.112 L 286.719 172.043 286.719 161.998 C 286.719 156.473,286.811 151.953,286.925 151.953 C 287.146 151.953,303.530 161.298,303.983 161.683 C 304.133 161.810,304.816 164.023,305.501 166.602 C 307.986 175.949,309.364 180.571,309.837 181.141 C 311.230 182.820,314.571 182.279,315.069 180.294 C 315.388 179.024,315.258 178.278,313.661 172.174 C 312.165 166.460,312.208 166.288,314.731 167.866 C 321.876 172.333,323.780 172.857,325.397 170.802 C 327.200 168.509,326.303 167.235,320.489 163.831 C 315.060 160.652,315.177 160.806,317.695 160.180 C 329.436 157.265,330.992 156.245,328.911 152.832 C 327.967 151.285,326.594 151.174,322.453 152.311 C 318.080 153.512,310.479 155.525,308.866 155.909 C 307.472 156.241,290.234 147.216,290.234 146.155 C 290.235 146.014,291.917 144.952,293.974 143.795 C 296.030 142.638,299.906 140.411,302.586 138.847 C 307.025 136.257,307.572 136.035,308.710 136.362 C 318.915 139.292,326.693 141.082,327.541 140.695 C 328.826 140.110,329.822 138.480,329.552 137.405 C 329.068 135.478,328.360 135.094,322.080 133.359 C 318.677 132.418,315.824 131.579,315.738 131.494 C 315.653 131.408,317.774 130.076,320.451 128.533 C 325.613 125.558,326.481 124.608,325.954 122.512 C 325.226 119.611,323.102 119.697,317.608 122.852 C 311.748 126.216,311.960 126.382,313.728 119.824 C 315.501 113.248,315.555 112.394,314.276 111.115 C 311.626 108.465,309.745 110.109,307.998 116.602 C 307.247 119.395,306.184 123.350,305.636 125.391 C 305.089 127.432,304.497 129.458,304.321 129.895 C 304.032 130.610,287.973 140.234,287.067 140.234 C 286.872 140.234,286.719 135.853,286.719 130.275 L 286.719 120.317 293.750 113.271 C 301.782 105.222,302.456 103.822,299.129 102.102 C 297.319 101.166,296.548 101.615,291.686 106.436 C 289.189 108.912,287.051 110.938,286.933 110.938 C 286.815 110.938,286.719 108.381,286.719 105.256 C 286.719 99.744,286.690 99.545,285.760 98.615 C 284.807 97.662,282.749 97.319,281.797 97.955 M82.227 146.899 C 80.688 147.351,78.264 149.379,77.502 150.853 C 74.451 156.753,71.758 198.222,73.214 216.895 L 73.510 220.703 199.995 220.703 L 326.480 220.703 326.781 217.090 C 327.158 212.583,327.075 185.938,326.668 180.664 C 326.390 177.054,326.308 176.768,325.586 176.889 C 325.156 176.961,323.794 177.033,322.559 177.049 L 320.313 177.077 320.313 178.981 C 320.313 185.449,313.571 189.414,308.062 186.185 C 305.501 184.684,304.649 182.894,302.363 174.219 C 301.259 170.029,300.266 166.298,300.155 165.927 C 299.996 165.397,296.761 163.286,292.090 160.665 C 291.929 160.575,291.797 162.635,291.797 165.244 L 291.797 169.988 298.094 176.302 C 304.762 182.989,305.842 184.550,305.842 187.500 C 305.842 194.273,297.394 198.303,292.492 193.868 C 292.107 193.519,291.746 193.306,291.689 193.394 C 291.632 193.483,291.205 194.373,290.738 195.372 C 287.950 201.351,279.404 201.408,276.294 195.468 L 275.237 193.450 273.682 194.479 C 268.498 197.910,261.133 193.804,261.163 187.500 C 261.178 184.343,261.894 183.305,268.997 176.155 L 275.417 169.692 275.306 165.112 L 275.195 160.531 271.289 162.746 C 269.141 163.965,267.321 165.011,267.245 165.073 C 267.170 165.134,266.093 168.940,264.854 173.531 C 262.329 182.880,261.944 183.811,259.910 185.487 C 254.666 189.810,246.730 186.061,246.692 179.242 L 246.680 177.009 244.336 177.070 C 237.390 177.249,233.284 168.985,237.708 163.728 L 238.630 162.632 237.114 161.963 C 231.077 159.299,230.882 150.244,236.798 147.316 L 238.477 146.485 160.938 146.520 C 117.521 146.539,82.883 146.706,82.227 146.899 M250.391 148.638 C 254.580 149.796,258.229 150.753,258.499 150.763 C 258.989 150.781,266.016 146.923,266.016 146.636 C 266.016 146.552,260.786 146.495,254.395 146.508 L 242.773 146.531 250.391 148.638 M304.243 148.621 C 308.591 151.189,307.555 151.121,314.245 149.278 C 321.884 147.172,321.041 146.721,309.180 146.570 L 300.586 146.460 304.243 148.621 M99.707 162.144 C 100.862 163.381,101.104 165.044,100.345 166.530 C 98.844 169.464,94.486 169.539,93.110 166.654 C 91.022 162.274,96.396 158.599,99.707 162.144 M117.285 162.144 C 119.647 164.672,117.915 168.750,114.478 168.750 C 112.534 168.750,111.183 167.941,110.542 166.394 C 108.774 162.127,114.122 158.757,117.285 162.144 M73.828 225.559 C 73.828 229.618,76.597 247.397,77.502 249.147 C 78.306 250.702,80.722 252.658,82.422 253.131 C 83.568 253.450,98.012 253.715,98.064 253.418 C 98.073 253.364,98.488 250.554,98.985 247.173 C 100.010 240.204,100.771 238.509,103.500 237.117 C 105.942 235.871,294.058 235.871,296.500 237.117 C 299.171 238.480,299.945 240.167,300.977 246.879 C 301.478 250.135,301.954 252.866,302.035 252.947 C 302.410 253.321,316.197 253.497,317.504 253.143 C 319.261 252.668,321.677 250.735,322.498 249.147 C 323.403 247.397,326.172 229.618,326.172 225.559 L 326.172 224.219 200.000 224.219 L 73.828 224.219 73.828 225.559 M105.214 240.303 C 103.668 241.052,101.953 247.616,101.953 252.787 L 101.953 253.593 200.000 253.463 C 292.693 253.341,298.047 253.297,298.047 252.657 C 298.047 247.404,296.307 241.026,294.671 240.280 C 293.363 239.684,106.447 239.707,105.214 240.303 M170.746 270.467 C 168.425 271.754,168.309 273.360,170.320 276.367 C 174.238 282.223,174.047 288.580,169.765 294.831 C 165.683 300.792,164.774 303.404,164.788 309.141 C 164.811 318.409,170.567 326.872,174.306 323.134 C 175.577 321.862,175.383 320.105,173.701 317.646 C 169.730 311.840,170.092 305.890,174.851 298.715 C 178.554 293.132,179.367 290.697,179.380 285.156 C 179.400 276.716,174.503 268.385,170.746 270.467 M199.219 270.202 C 196.511 271.173,196.236 273.470,198.437 276.711 C 202.326 282.436,201.970 288.572,197.350 295.416 C 193.129 301.667,192.767 302.748,192.798 308.984 C 192.838 317.187,197.079 325.223,200.695 323.949 C 203.282 323.037,203.757 320.787,201.925 318.124 C 197.580 311.808,197.885 305.911,202.947 298.391 C 208.029 290.840,208.829 283.284,205.320 275.977 C 203.308 271.787,200.969 269.573,199.219 270.202 M226.447 270.545 C 224.227 271.749,224.227 273.457,226.445 276.798 C 230.295 282.597,229.836 288.460,224.951 295.898 C 220.929 302.021,219.939 305.831,220.730 312.138 C 221.837 320.971,228.228 327.343,230.726 322.105 L 231.370 320.754 229.700 317.990 C 225.524 311.077,225.834 305.855,230.865 298.407 C 236.785 289.644,236.885 280.419,231.146 272.383 C 230.267 271.152,228.159 269.707,227.578 269.938 C 227.557 269.946,227.048 270.220,226.447 270.545 " stroke="none" fill="#1d1d1d" fill-rule="evenodd"></path><path id="path1" d="M0.000 194.336 L 0.000 388.672 16.992 388.672 L 33.984 388.672 33.984 391.797 L 33.984 394.922 16.992 394.922 L 0.000 394.922 0.000 397.461 L 0.000 400.000 200.000 400.000 L 400.000 400.000 400.000 341.016 L 400.000 282.031 319.531 282.031 L 239.063 282.031 239.063 267.970 L 239.063 253.908 170.215 253.810 C 124.594 253.744,101.387 253.579,101.425 253.320 C 101.457 253.105,101.778 250.732,102.139 248.047 C 102.926 242.181,103.284 241.146,104.852 240.190 C 106.536 239.163,292.954 239.022,294.935 240.046 C 296.547 240.880,297.093 242.210,297.641 246.644 C 298.246 251.544,298.254 251.563,299.846 251.563 C 301.396 251.563,301.356 251.841,300.584 246.340 C 299.760 240.472,298.728 238.462,295.940 237.297 C 294.189 236.565,106.348 236.406,104.420 237.134 C 102.927 237.698,101.189 239.384,100.542 240.895 C 100.130 241.859,98.438 252.075,98.438 253.603 C 98.437 254.188,84.275 253.951,82.186 253.330 C 80.161 252.729,78.078 251.016,77.121 249.165 C 76.118 247.225,73.067 225.747,73.599 224.362 C 73.903 223.568,326.097 223.568,326.401 224.362 C 327.328 226.777,323.381 249.655,321.878 250.584 C 320.445 251.470,324.132 251.563,360.742 251.563 L 400.000 251.563 400.000 125.781 L 400.000 0.000 200.000 0.000 L 0.000 0.000 0.000 194.336 M286.098 98.467 C 287.078 99.632,287.109 99.836,287.109 104.989 L 287.109 110.308 291.504 105.992 C 296.810 100.780,299.138 100.054,300.770 103.103 C 301.979 105.364,301.582 105.985,294.141 113.466 L 287.109 120.535 287.109 130.189 C 287.109 135.499,287.181 139.844,287.268 139.844 C 287.416 139.844,296.502 134.631,301.725 131.549 L 304.037 130.185 306.497 120.854 C 309.217 110.539,309.625 109.766,312.344 109.766 C 315.831 109.766,316.256 111.893,314.234 119.227 C 312.473 125.616,312.310 125.453,317.459 122.462 C 322.306 119.646,323.556 119.389,325.262 120.857 C 327.414 122.708,326.648 125.535,323.560 127.142 C 322.741 127.569,320.774 128.694,319.189 129.643 L 316.309 131.368 319.971 132.418 C 321.985 132.996,324.589 133.699,325.758 133.979 C 330.331 135.076,331.381 140.184,327.247 141.221 C 326.570 141.391,311.687 137.775,307.953 136.534 C 307.708 136.452,306.301 137.092,304.828 137.956 C 303.354 138.820,301.357 139.966,300.391 140.504 C 299.424 141.041,296.835 142.546,294.638 143.849 L 290.644 146.219 298.935 151.048 C 304.960 154.557,307.494 155.835,308.203 155.724 C 308.740 155.640,312.847 154.581,317.330 153.371 C 328.034 150.482,329.688 150.613,329.688 154.351 C 329.688 157.332,329.442 157.491,321.875 159.410 C 319.189 160.092,316.869 160.758,316.719 160.891 C 316.569 161.024,318.538 162.335,321.095 163.804 C 326.216 166.747,327.056 167.793,326.168 170.127 C 325.035 173.108,322.874 173.014,317.238 169.739 C 314.847 168.349,312.891 167.397,312.891 167.623 C 312.891 168.218,314.408 174.125,315.065 176.088 C 316.567 180.577,314.365 183.766,310.793 182.273 C 309.180 181.599,308.996 181.126,306.217 170.508 C 303.768 161.154,304.765 162.547,297.555 158.407 C 294.281 156.526,290.635 154.407,289.453 153.697 L 287.305 152.405 287.200 162.158 L 287.096 171.911 293.944 178.782 C 301.611 186.473,302.358 187.821,300.167 190.011 C 298.148 192.031,296.584 191.355,291.498 186.263 L 287.109 181.870 287.109 187.048 C 287.109 194.635,284.918 197.362,281.280 194.301 L 280.078 193.290 280.078 187.584 L 280.078 181.877 275.399 186.499 L 270.720 191.121 269.055 190.897 C 266.960 190.616,266.016 189.524,266.016 187.383 C 266.016 185.840,266.237 185.567,273.054 178.714 L 280.092 171.639 279.987 162.000 L 279.883 152.361 271.484 157.188 L 263.086 162.015 260.512 171.462 C 257.785 181.466,257.318 182.444,255.236 182.503 C 251.165 182.619,250.688 180.895,252.711 173.384 C 253.583 170.145,254.297 167.408,254.297 167.303 C 254.297 167.197,253.638 167.507,252.832 167.993 C 245.293 172.535,243.376 173.099,241.584 171.307 C 239.156 168.880,240.339 166.969,246.410 163.512 C 251.152 160.812,251.260 161.036,244.336 159.206 C 237.318 157.351,235.979 156.054,237.681 152.762 C 238.815 150.569,239.721 150.624,250.441 153.529 C 255.225 154.826,259.328 155.837,259.558 155.775 C 261.454 155.272,276.127 146.278,275.695 145.884 C 275.420 145.634,271.662 143.391,267.344 140.901 L 259.492 136.372 250.220 138.889 C 239.523 141.793,239.753 141.767,238.251 140.264 C 235.080 137.093,236.815 135.242,245.074 132.984 L 250.891 131.395 246.171 128.722 C 241.042 125.819,240.321 124.986,240.786 122.507 C 241.418 119.138,243.716 119.121,249.450 122.440 C 254.533 125.383,254.606 125.388,253.783 122.779 C 250.594 112.676,250.850 109.766,254.926 109.766 C 257.327 109.766,257.652 110.404,260.392 120.508 C 261.791 125.664,263.145 130.087,263.401 130.336 C 263.658 130.586,265.537 131.748,267.578 132.918 C 269.619 134.088,273.164 136.125,275.456 137.444 C 277.748 138.764,279.726 139.844,279.851 139.844 C 279.976 139.844,280.078 135.491,280.078 130.172 L 280.078 120.500 273.047 113.477 C 266.225 106.663,266.016 106.406,266.016 104.857 C 266.016 102.479,267.470 101.295,270.140 101.501 C 270.592 101.535,272.816 103.440,275.218 105.849 C 277.569 108.207,279.624 110.141,279.785 110.146 C 279.946 110.152,280.078 107.687,280.078 104.670 C 280.078 99.365,280.110 99.151,281.037 98.224 C 282.485 96.776,284.767 96.886,286.098 98.467 M239.667 146.454 C 239.544 146.653,238.906 146.933,238.248 147.078 C 234.040 148.002,231.628 153.739,233.644 158.028 C 234.480 159.806,237.192 162.109,238.449 162.109 C 239.285 162.109,239.219 162.594,238.232 163.710 C 233.263 169.324,238.877 178.632,246.000 176.589 L 247.221 176.239 246.994 178.156 C 246.119 185.546,255.162 189.889,260.337 184.564 C 261.908 182.948,262.057 182.570,264.057 175.132 C 265.202 170.870,266.292 166.824,266.479 166.141 C 266.827 164.866,274.608 159.868,275.442 160.383 C 275.629 160.499,275.781 162.662,275.781 165.190 L 275.781 169.787 269.013 176.607 C 261.670 184.006,260.943 185.175,261.563 188.602 C 262.625 194.469,269.900 197.437,274.049 193.696 C 275.216 192.643,275.483 192.781,276.509 194.967 C 279.469 201.275,287.784 201.008,290.795 194.509 C 291.603 192.765,291.748 192.635,292.234 193.221 C 295.309 196.938,302.413 195.540,304.837 190.742 C 306.853 186.753,305.612 184.259,297.684 176.372 L 291.406 170.126 291.406 165.141 C 291.406 162.400,291.530 160.156,291.682 160.156 C 291.834 160.156,293.825 161.230,296.107 162.543 L 300.256 164.929 302.342 172.992 C 304.670 181.994,305.208 183.331,307.198 185.079 C 312.348 189.600,320.195 185.606,319.877 178.626 L 319.774 176.367 320.922 176.540 C 322.613 176.794,323.873 176.761,325.242 176.428 C 326.302 176.171,326.496 176.249,326.732 177.031 C 327.147 178.407,327.488 208.813,327.161 215.332 L 326.872 221.094 200.000 221.094 L 73.128 221.094 72.841 215.348 C 72.335 205.234,72.882 179.673,73.779 171.484 C 75.943 151.725,77.113 148.206,82.022 146.693 C 84.137 146.041,240.068 145.805,239.667 146.454 M266.797 146.429 C 266.797 146.614,265.011 147.780,262.827 149.021 L 258.858 151.278 250.425 149.016 C 245.787 147.771,241.825 146.605,241.621 146.424 C 241.417 146.242,246.998 146.094,254.023 146.094 C 261.049 146.094,266.797 146.245,266.797 146.429 M318.945 146.999 C 320.946 147.902,320.802 147.978,313.640 149.803 L 307.943 151.254 304.167 149.012 C 302.090 147.779,300.391 146.606,300.391 146.405 C 300.391 145.669,317.190 146.207,318.945 146.999 M94.911 161.581 C 92.752 163.018,92.325 165.092,93.801 166.969 C 95.440 169.052,98.213 168.950,99.754 166.751 C 101.961 163.600,98.088 159.465,94.911 161.581 M112.219 161.756 C 109.784 163.316,110.113 166.666,112.835 168.034 C 116.517 169.884,119.773 164.885,116.710 162.087 C 115.228 160.734,113.960 160.641,112.219 161.756 M245.182 256.901 C 244.694 257.390,244.920 258.510,245.557 258.754 C 246.533 259.129,247.334 258.280,246.853 257.381 C 246.456 256.639,245.670 256.413,245.182 256.901 M248.615 257.599 C 247.031 259.184,247.635 260.672,250.362 261.901 C 252.995 263.089,252.167 265.147,249.466 264.128 C 248.502 263.764,248.159 263.783,247.718 264.224 C 246.580 265.362,250.293 266.505,252.076 265.567 C 254.550 264.264,253.836 261.581,250.656 260.226 C 249.030 259.534,249.397 258.398,251.245 258.398 C 253.023 258.398,253.549 257.917,252.561 257.195 C 251.396 256.343,249.698 256.517,248.615 257.599 M273.606 257.155 C 273.053 258.597,273.636 265.812,274.316 265.942 C 274.870 266.048,275.000 265.792,275.000 264.598 L 275.000 263.123 276.481 264.569 C 277.804 265.860,279.688 266.527,279.688 265.704 C 279.688 265.533,278.978 264.700,278.111 263.854 L 276.535 262.314 277.949 261.092 L 279.364 259.869 278.368 259.679 C 277.663 259.544,277.121 259.757,276.509 260.409 C 275.225 261.776,275.000 261.563,275.000 258.984 C 275.000 256.708,274.187 255.641,273.606 257.155 M255.398 258.691 C 255.318 259.256,254.959 259.615,254.395 259.695 C 253.176 259.868,253.260 260.938,254.492 260.938 C 255.403 260.938,255.469 261.068,255.469 262.882 C 255.469 264.972,256.552 266.240,258.086 265.945 C 259.090 265.752,258.956 264.672,257.910 264.524 C 256.501 264.323,256.593 260.938,258.008 260.938 C 258.615 260.938,258.984 260.716,258.984 260.352 C 258.984 259.987,258.615 259.766,258.008 259.766 C 257.227 259.766,257.031 259.570,257.031 258.789 C 257.031 257.491,255.581 257.404,255.398 258.691 M245.395 262.626 C 245.490 265.296,245.618 265.833,246.191 265.942 C 247.320 266.158,247.209 259.944,246.078 259.648 C 245.319 259.450,245.287 259.586,245.395 262.626 M261.468 259.762 C 259.262 260.652,258.797 263.154,260.517 264.874 C 261.789 266.146,262.786 266.292,264.425 265.444 C 267.906 263.644,265.119 258.289,261.468 259.762 M268.541 259.747 C 265.397 261.021,266.480 266.016,269.900 266.016 C 271.494 266.016,272.945 264.789,272.141 264.121 C 271.660 263.722,271.389 263.725,270.732 264.135 C 269.621 264.829,268.555 264.124,268.555 262.695 C 268.555 261.254,269.622 260.562,270.754 261.269 C 271.451 261.705,271.644 261.704,271.921 261.266 C 272.793 259.891,270.608 258.909,268.541 259.747 M264.197 261.786 C 264.836 262.806,263.922 264.453,262.717 264.453 C 261.153 264.453,260.448 262.655,261.572 261.531 C 262.338 260.764,263.636 260.891,264.197 261.786 M175.525 272.186 C 181.309 279.703,181.299 289.856,175.498 298.366 C 170.397 305.848,170.014 311.031,174.074 317.609 C 178.259 324.390,172.191 327.417,167.733 320.772 C 162.993 313.707,163.311 304.085,168.549 296.094 C 172.327 290.329,172.402 290.136,172.574 285.742 C 172.741 281.443,172.278 279.797,169.912 276.292 C 166.351 271.015,171.644 267.143,175.525 272.186 M202.675 271.042 C 209.194 278.092,209.394 290.426,203.125 298.828 C 198.399 305.162,197.992 310.909,201.815 317.332 C 205.758 323.958,200.375 327.790,196.057 321.431 C 190.719 313.569,190.948 304.342,196.695 295.708 C 201.662 288.248,202.125 283.044,198.335 277.272 C 195.551 273.031,196.290 269.922,200.082 269.922 C 201.295 269.922,201.868 270.169,202.675 271.042 M230.846 271.387 C 237.173 279.008,237.243 289.564,231.029 298.839 C 226.167 306.094,225.938 312.433,230.330 318.201 C 232.071 320.488,231.311 323.651,228.831 324.438 C 225.000 325.654,220.299 317.314,220.277 309.260 C 220.262 303.509,221.188 300.772,225.126 294.933 C 229.469 288.492,229.773 282.070,225.986 276.743 C 222.558 271.922,227.119 266.896,230.846 271.387 M262.500 271.279 C 262.500 272.133,262.370 272.220,261.392 272.025 C 260.089 271.764,258.981 272.653,258.990 273.954 C 259.001 275.442,259.628 275.958,261.505 276.022 L 263.281 276.081 263.281 273.197 C 263.281 271.534,263.116 270.313,262.891 270.313 C 262.676 270.313,262.500 270.748,262.500 271.279 M264.453 270.931 C 264.453 271.271,264.662 271.480,264.917 271.395 C 265.641 271.153,265.761 270.313,265.072 270.313 C 264.731 270.313,264.453 270.591,264.453 270.931 M274.609 273.242 L 274.609 276.172 276.319 276.172 C 278.223 276.172,279.004 275.547,279.004 274.023 C 279.004 272.591,278.165 271.780,276.878 271.969 C 275.944 272.106,275.781 271.995,275.781 271.221 C 275.781 270.674,275.548 270.313,275.195 270.313 C 274.727 270.313,274.609 270.898,274.609 273.242 M285.156 273.242 L 285.156 276.172 286.866 276.172 C 288.770 276.172,289.551 275.547,289.551 274.023 C 289.551 272.591,288.712 271.780,287.425 271.969 C 286.491 272.106,286.328 271.995,286.328 271.221 C 286.328 270.674,286.095 270.313,285.742 270.313 C 285.273 270.313,285.156 270.898,285.156 273.242 M290.234 273.242 C 290.234 275.586,290.352 276.172,290.820 276.172 C 291.289 276.172,291.406 275.586,291.406 273.242 C 291.406 270.898,291.289 270.313,290.820 270.313 C 290.352 270.313,290.234 270.898,290.234 273.242 M246.094 271.484 C 244.422 273.156,245.648 276.172,247.999 276.172 C 248.617 276.172,249.345 275.904,249.617 275.576 C 250.283 274.774,249.865 274.445,248.862 274.982 C 247.650 275.630,246.484 274.873,246.484 273.438 C 246.484 272.038,247.650 271.245,248.802 271.861 C 249.800 272.395,250.000 272.372,250.000 271.721 C 250.000 270.507,247.238 270.340,246.094 271.484 M266.797 271.289 C 266.797 271.611,266.586 271.875,266.328 271.875 C 265.964 271.875,265.964 271.979,266.328 272.344 C 266.586 272.602,266.797 273.228,266.797 273.737 C 266.797 275.091,267.496 276.172,268.373 276.172 C 268.795 276.172,269.141 275.996,269.141 275.781 C 269.141 275.566,268.877 275.391,268.555 275.391 C 268.145 275.391,267.969 274.978,267.969 274.023 C 267.969 273.069,268.145 272.656,268.555 272.656 C 268.877 272.656,269.141 272.480,269.141 272.266 C 269.141 272.051,268.877 271.875,268.555 271.875 C 268.232 271.875,267.969 271.611,267.969 271.289 C 267.969 270.967,267.705 270.703,267.383 270.703 C 267.061 270.703,266.797 270.967,266.797 271.289 M251.113 272.817 C 250.929 275.362,251.014 276.172,251.465 276.172 C 251.763 276.172,251.953 275.636,251.953 274.795 C 251.953 273.686,252.143 273.346,252.930 273.047 C 254.347 272.508,254.127 271.891,252.539 271.950 C 251.450 271.991,251.160 272.168,251.113 272.817 M254.703 272.442 C 253.974 273.321,254.085 275.051,254.909 275.653 C 255.881 276.364,257.217 276.304,257.862 275.521 C 258.347 274.933,258.291 274.897,257.287 275.147 C 256.578 275.324,255.953 275.241,255.562 274.919 C 255.037 274.487,255.210 274.386,256.761 274.219 C 258.546 274.026,258.567 274.009,258.087 273.047 C 257.498 271.867,255.480 271.506,254.703 272.442 M264.453 274.023 C 264.453 275.673,264.589 276.172,265.039 276.172 C 265.489 276.172,265.625 275.673,265.625 274.023 C 265.625 272.374,265.489 271.875,265.039 271.875 C 264.589 271.875,264.453 272.374,264.453 274.023 M270.171 272.461 C 270.034 272.818,270.171 273.047,270.520 273.047 C 270.836 273.047,271.094 272.783,271.094 272.461 C 271.094 272.139,270.937 271.875,270.745 271.875 C 270.553 271.875,270.295 272.139,270.171 272.461 M280.088 272.638 C 279.152 274.386,280.062 276.172,281.887 276.172 C 282.495 276.172,282.759 276.333,282.593 276.602 C 282.439 276.850,281.839 276.934,281.171 276.801 C 280.349 276.636,280.061 276.709,280.175 277.054 C 280.424 277.815,282.986 277.881,283.598 277.143 C 283.886 276.796,284.167 275.492,284.222 274.244 L 284.322 271.976 282.405 271.933 C 280.889 271.899,280.405 272.046,280.088 272.638 M292.655 273.926 L 292.773 275.977 294.629 276.046 L 296.484 276.116 296.484 273.996 C 296.484 272.371,296.347 271.875,295.898 271.875 C 295.478 271.875,295.313 272.304,295.313 273.396 C 295.313 274.327,295.104 274.996,294.774 275.123 C 293.960 275.435,293.359 274.604,293.359 273.164 C 293.359 272.455,293.174 271.875,292.948 271.875 C 292.698 271.875,292.583 272.676,292.655 273.926 M297.879 272.489 C 296.448 273.920,297.764 276.348,299.838 276.103 C 301.397 275.920,301.509 275.062,299.964 275.136 C 299.269 275.169,298.640 274.979,298.544 274.707 C 298.425 274.368,298.860 274.219,299.967 274.219 C 301.089 274.219,301.563 274.053,301.563 273.661 C 301.563 272.807,300.441 271.875,299.414 271.875 C 298.908 271.875,298.217 272.151,297.879 272.489 M257.227 273.047 C 257.369 273.278,256.939 273.435,256.175 273.432 C 255.197 273.427,255.025 273.333,255.469 273.047 C 256.228 272.556,256.923 272.556,257.227 273.047 M262.256 273.528 C 262.787 274.371,261.716 275.623,260.772 275.261 C 260.153 275.023,259.919 273.414,260.430 272.903 C 260.862 272.471,261.790 272.788,262.256 273.528 M277.914 273.732 C 278.229 274.554,277.269 275.487,276.437 275.168 C 275.676 274.876,275.550 273.193,276.270 272.942 C 276.976 272.695,277.638 273.014,277.914 273.732 M282.951 273.625 C 283.260 274.431,282.307 275.472,281.533 275.175 C 280.758 274.878,280.619 273.196,281.348 272.942 C 282.018 272.708,282.712 273.004,282.951 273.625 M288.468 273.750 C 288.759 274.509,287.685 275.437,286.876 275.127 C 286.197 274.866,286.151 273.174,286.816 272.942 C 287.528 272.693,288.186 273.016,288.468 273.750 M300.195 273.047 C 300.333 273.269,299.996 273.438,299.414 273.438 C 298.832 273.438,298.495 273.269,298.633 273.047 C 298.766 272.832,299.117 272.656,299.414 272.656 C 299.711 272.656,300.063 272.832,300.195 273.047 M270.011 275.464 C 270.253 276.188,271.094 276.308,271.094 275.618 C 271.094 275.278,270.815 275.000,270.475 275.000 C 270.135 275.000,269.926 275.209,270.011 275.464 M6.055 390.625 C 5.922 390.840,5.999 391.016,6.227 391.016 C 6.454 391.016,6.641 391.543,6.641 392.188 C 6.641 392.832,6.816 393.359,7.031 393.359 C 7.246 393.359,7.422 392.656,7.422 391.797 C 7.422 390.277,6.669 389.631,6.055 390.625 M8.203 390.788 C 8.203 391.093,8.096 391.620,7.966 391.960 C 7.798 392.398,7.959 392.578,8.519 392.578 C 8.954 392.578,9.380 392.789,9.466 393.047 C 9.771 393.961,10.031 392.401,9.739 391.406 C 9.466 390.475,9.451 390.471,9.414 391.309 C 9.393 391.792,9.180 392.188,8.942 392.188 C 8.675 392.188,8.603 391.813,8.754 391.211 C 8.895 390.648,8.831 390.234,8.601 390.234 C 8.382 390.234,8.203 390.484,8.203 390.788 M10.617 391.113 C 10.704 391.723,10.965 391.954,11.467 391.868 C 11.930 391.788,12.127 391.930,12.013 392.259 C 11.914 392.542,11.544 392.722,11.190 392.659 C 10.836 392.596,10.547 392.727,10.547 392.952 C 10.547 393.473,12.375 393.487,12.695 392.969 C 13.043 392.405,14.843 392.487,14.850 393.066 C 14.854 393.437,14.934 393.431,15.181 393.041 C 15.360 392.759,15.419 392.065,15.310 391.499 C 15.119 390.497,15.105 390.492,14.796 391.329 C 14.621 391.801,14.291 392.188,14.061 392.188 C 13.770 392.188,13.766 391.960,14.049 391.432 C 14.544 390.506,14.557 390.234,14.105 390.234 C 13.913 390.234,13.650 390.658,13.521 391.175 C 13.308 392.022,13.188 392.071,12.309 391.663 C 11.162 391.131,11.064 390.751,12.012 390.504 C 12.422 390.397,12.254 390.307,11.594 390.280 C 10.665 390.241,10.512 390.372,10.617 391.113 M16.069 390.584 C 15.722 390.803,15.687 390.972,15.968 391.066 C 16.205 391.146,16.439 391.694,16.488 392.285 C 16.625 393.946,17.188 393.553,17.188 391.797 C 17.188 390.197,17.000 389.994,16.069 390.584 M17.969 390.586 C 17.969 390.809,18.232 390.890,18.555 390.766 C 18.877 390.643,19.141 390.736,19.141 390.974 C 19.141 391.212,18.931 391.406,18.675 391.406 C 18.419 391.406,18.534 391.643,18.930 391.933 C 19.678 392.480,19.148 393.261,18.359 392.773 C 18.145 392.641,17.969 392.730,17.969 392.973 C 17.969 393.215,18.364 393.358,18.848 393.289 C 19.568 393.187,19.727 392.917,19.727 391.797 C 19.727 390.676,19.568 390.407,18.848 390.305 C 18.364 390.236,17.969 390.363,17.969 390.586 M20.866 390.763 C 20.466 391.806,20.873 393.151,21.633 393.296 C 22.597 393.480,23.021 392.735,22.680 391.458 C 22.372 390.306,21.212 389.862,20.866 390.763 M23.438 390.667 C 23.438 390.905,23.701 390.998,24.023 390.874 C 24.942 390.522,24.731 391.766,23.730 392.600 L 22.852 393.333 24.219 393.301 C 24.971 393.283,25.265 393.186,24.873 393.084 C 24.201 392.911,24.198 392.858,24.823 392.168 C 25.187 391.765,25.382 391.165,25.255 390.835 C 24.993 390.151,23.438 390.008,23.438 390.667 M26.113 390.625 C 25.946 391.743,26.027 391.991,26.563 391.992 C 26.885 391.992,27.181 392.168,27.222 392.383 C 27.262 392.598,26.914 392.724,26.449 392.665 C 25.823 392.584,25.717 392.670,26.041 392.994 C 26.665 393.618,27.896 393.284,28.057 392.448 C 28.145 391.992,27.904 391.666,27.378 391.528 C 26.305 391.248,26.338 390.723,27.441 390.510 C 28.195 390.365,28.167 390.333,27.246 390.288 C 26.655 390.258,26.146 390.410,26.113 390.625 M28.699 390.645 C 28.503 390.962,28.668 391.020,29.248 390.836 C 30.123 390.558,30.434 391.198,29.590 391.538 C 29.199 391.696,29.199 391.741,29.590 391.766 C 29.858 391.783,30.078 392.072,30.078 392.409 C 30.078 392.862,29.850 392.952,29.199 392.756 C 28.521 392.551,28.423 392.598,28.767 392.961 C 29.643 393.885,30.664 393.255,30.664 391.791 C 30.664 390.374,29.342 389.603,28.699 390.645 M22.168 392.806 C 21.796 393.178,21.049 392.575,21.327 392.126 C 21.492 391.860,21.710 391.866,21.991 392.147 C 22.221 392.377,22.300 392.674,22.168 392.806 " stroke="none" fill="#fbfbfb" fill-rule="evenodd"></path><path id="path2" d="M286.868 105.273 C 286.869 107.852,286.932 108.855,287.008 107.504 C 287.085 106.153,287.084 104.044,287.007 102.817 C 286.930 101.590,286.867 102.695,286.868 105.273 M286.884 129.688 C 286.884 134.092,286.940 135.894,287.010 133.691 C 287.080 131.489,287.080 127.886,287.010 125.684 C 286.940 123.481,286.884 125.283,286.884 129.688 M286.889 162.109 C 286.889 167.588,286.943 169.829,287.011 167.090 C 287.078 164.351,287.078 159.868,287.011 157.129 C 286.943 154.390,286.889 156.631,286.889 162.109 M286.860 187.109 C 286.860 189.150,286.925 189.985,287.006 188.965 C 287.086 187.944,287.086 186.274,287.006 185.254 C 286.925 184.233,286.860 185.068,286.860 187.109 M320.468 252.018 C 320.357 252.197,320.398 252.563,320.560 252.832 C 320.792 253.219,320.731 253.221,320.261 252.842 C 319.754 252.431,319.693 252.523,319.833 253.479 C 319.923 254.093,319.804 254.714,319.569 254.860 C 319.333 255.005,319.138 255.597,319.135 256.175 C 319.130 256.930,319.032 257.074,318.786 256.686 C 318.598 256.389,318.488 255.861,318.542 255.514 C 318.595 255.167,318.445 254.734,318.206 254.553 C 317.941 254.351,318.038 254.308,318.457 254.443 C 318.996 254.616,319.138 254.438,319.129 253.601 C 319.120 252.794,319.033 252.682,318.770 253.132 C 318.507 253.580,317.534 253.753,314.785 253.840 C 310.351 253.981,310.552 253.672,312.888 256.756 C 313.964 258.178,314.844 259.461,314.844 259.608 C 314.844 259.755,315.151 260.108,315.527 260.394 C 316.154 260.869,316.129 260.913,315.234 260.918 C 314.697 260.921,309.644 263.248,304.004 266.089 L 293.750 271.255 293.750 273.169 C 293.750 274.754,293.856 275.043,294.368 274.846 C 294.708 274.716,295.059 274.609,295.149 274.609 C 295.239 274.609,295.313 273.994,295.313 273.242 C 295.313 272.287,295.489 271.875,295.898 271.875 C 296.322 271.875,296.484 272.309,296.484 273.438 C 296.484 274.297,296.660 275.000,296.875 275.000 C 297.090 275.000,297.266 274.508,297.266 273.906 C 297.266 272.487,297.913 271.875,299.414 271.875 C 300.778 271.875,301.563 272.474,301.563 273.516 C 301.563 274.077,301.243 274.219,299.977 274.219 C 298.923 274.219,298.480 274.363,298.657 274.649 C 298.804 274.886,299.402 274.983,299.990 274.865 C 300.578 274.748,301.239 274.833,301.461 275.055 C 301.869 275.463,311.494 276.392,319.335 276.779 C 322.769 276.948,323.534 276.893,323.144 276.503 C 321.579 274.939,323.071 275.702,325.385 277.650 C 326.887 278.914,328.818 280.284,329.678 280.696 C 330.538 281.108,331.243 281.567,331.246 281.716 C 331.248 281.865,342.484 281.990,356.213 281.995 C 383.830 282.005,381.641 282.224,381.641 279.460 C 381.641 278.726,381.798 278.125,381.990 278.125 C 382.182 278.125,382.441 277.466,382.565 276.660 C 382.689 275.854,382.951 274.141,383.148 272.852 C 383.736 269.000,384.402 265.506,384.790 264.230 C 384.992 263.570,385.156 262.482,385.156 261.812 C 385.156 261.141,385.323 260.490,385.527 260.364 C 385.731 260.238,385.858 259.085,385.811 257.802 C 385.763 256.519,385.860 255.469,386.026 255.469 C 386.192 255.469,386.307 255.337,386.282 255.176 C 386.045 253.673,386.412 251.988,387.012 251.832 C 387.388 251.734,386.025 251.635,383.984 251.613 C 379.900 251.569,378.111 251.847,378.971 252.392 C 379.361 252.639,379.369 252.724,379.004 252.728 C 378.735 252.732,378.513 253.042,378.510 253.418 C 378.503 254.176,377.749 256.408,377.091 257.617 C 376.857 258.047,376.467 259.014,376.224 259.766 C 375.981 260.518,375.343 261.644,374.805 262.268 C 374.268 262.892,373.828 263.556,373.828 263.742 C 373.828 263.929,373.389 264.249,372.852 264.453 C 371.295 265.045,371.717 265.625,373.705 265.625 C 374.953 265.625,375.792 265.391,376.342 264.889 C 377.803 263.555,379.210 263.346,378.399 264.583 C 377.516 265.931,377.524 265.950,379.101 266.090 L 380.468 266.211 377.975 267.884 C 376.417 268.930,375.501 269.809,375.534 270.228 C 375.563 270.597,375.410 270.880,375.195 270.857 C 374.980 270.834,374.467 271.172,374.053 271.608 C 373.362 272.338,373.359 272.380,374.009 272.130 C 374.658 271.881,374.668 271.929,374.141 272.724 C 373.422 273.807,372.656 274.091,372.656 273.275 C 372.656 272.935,372.480 272.656,372.266 272.656 C 372.051 272.656,371.875 272.305,371.875 271.875 C 371.875 271.445,371.808 271.094,371.727 271.094 C 371.523 271.094,367.152 273.008,366.298 273.471 C 365.617 273.841,363.715 272.892,363.684 272.168 C 363.677 272.007,363.320 271.875,362.891 271.875 C 362.409 271.875,362.108 271.613,362.105 271.191 C 362.102 270.705,361.793 270.901,361.032 271.875 C 359.020 274.449,358.097 275.136,357.587 274.439 C 357.342 274.103,357.014 273.828,356.859 273.828 C 356.704 273.828,355.756 272.977,354.753 271.936 C 353.354 270.484,350.719 268.555,350.134 268.555 C 350.101 268.555,349.945 267.695,349.789 266.644 C 349.555 265.073,349.601 264.788,350.045 265.041 C 350.482 265.290,350.492 265.248,350.098 264.823 C 349.271 263.932,349.526 263.802,351.969 263.870 C 353.267 263.907,354.420 263.789,354.531 263.609 C 354.643 263.429,354.328 263.279,353.832 263.275 C 353.157 263.271,353.067 263.182,353.475 262.924 C 353.874 262.671,353.947 262.174,353.745 261.074 C 353.296 258.632,353.273 255.486,353.703 255.325 C 353.963 255.228,353.947 255.011,353.658 254.703 C 353.318 254.340,353.002 254.653,352.311 256.037 C 351.363 257.935,350.391 259.053,350.391 258.246 C 350.391 258.002,350.610 257.430,350.879 256.975 C 351.270 256.312,351.269 256.113,350.876 255.970 C 350.323 255.770,351.456 253.955,353.078 252.441 L 354.020 251.563 350.545 251.568 C 348.634 251.572,346.807 251.745,346.484 251.953 C 346.008 252.261,346.001 252.333,346.447 252.338 C 346.885 252.343,346.866 252.487,346.354 253.053 C 346.001 253.443,345.600 254.322,345.464 255.006 C 345.327 255.690,345.089 256.250,344.935 256.250 C 344.781 256.250,344.444 256.953,344.187 257.813 C 343.929 258.672,343.549 259.375,343.343 259.375 C 343.136 259.375,342.662 260.078,342.290 260.938 C 341.917 261.797,341.471 262.500,341.297 262.500 C 341.124 262.500,340.506 262.949,339.924 263.497 C 339.126 264.249,338.580 264.447,337.695 264.304 C 337.051 264.200,336.743 264.206,337.012 264.317 C 338.079 264.757,337.404 265.234,335.714 265.234 C 334.648 265.234,333.693 264.998,333.343 264.648 C 333.020 264.326,332.418 264.063,332.003 264.063 C 331.589 264.063,331.250 263.899,331.250 263.698 C 331.250 263.498,330.896 263.222,330.463 263.084 C 330.030 262.947,329.768 262.685,329.881 262.503 C 329.993 262.321,329.467 261.968,328.712 261.719 C 327.600 261.352,327.159 260.874,326.398 259.210 C 325.880 258.079,325.220 256.906,324.931 256.604 C 323.874 255.502,322.993 253.830,323.193 253.309 C 323.326 252.961,323.199 252.850,322.827 252.993 C 322.424 253.148,322.328 253.026,322.500 252.578 C 322.686 252.093,322.580 252.007,322.050 252.210 C 321.628 252.372,321.451 252.323,321.598 252.085 C 321.732 251.869,321.577 251.693,321.255 251.693 C 320.932 251.693,320.578 251.839,320.468 252.018 M324.827 251.917 C 324.707 252.112,324.930 252.187,325.324 252.084 C 325.806 251.958,326.709 252.542,328.092 253.874 C 332.149 257.785,336.977 258.559,338.789 255.590 C 338.961 255.308,339.367 255.078,339.691 255.078 C 340.015 255.078,340.183 254.921,340.064 254.728 C 339.945 254.536,340.112 254.277,340.435 254.153 C 340.758 254.030,341.221 253.493,341.463 252.961 C 341.706 252.429,342.275 251.920,342.729 251.831 C 343.183 251.742,339.390 251.645,334.300 251.616 C 329.122 251.586,324.950 251.719,324.827 251.917 M390.234 251.883 C 389.912 252.029,389.590 252.676,389.519 253.320 C 389.448 253.965,389.139 255.007,388.831 255.636 C 388.485 256.343,388.365 257.275,388.515 258.077 C 388.655 258.821,388.597 259.375,388.381 259.375 C 388.014 259.375,387.709 262.042,387.242 269.336 C 387.118 271.270,386.882 273.115,386.716 273.438 C 386.550 273.760,386.388 275.825,386.356 278.027 L 386.297 282.031 390.121 282.025 C 392.224 282.022,393.752 281.890,393.516 281.732 C 392.993 281.383,392.407 275.629,392.927 275.951 C 393.124 276.073,393.194 276.524,393.082 276.954 C 392.970 277.383,393.054 277.734,393.269 277.734 C 393.484 277.734,393.781 278.701,393.928 279.883 C 394.193 281.999,394.216 282.031,395.485 282.031 L 396.774 282.031 396.435 280.216 C 395.996 277.868,395.831 256.770,396.249 256.364 C 396.423 256.194,397.031 256.657,397.600 257.394 C 399.090 259.326,400.107 260.444,399.757 259.766 C 399.139 258.569,395.712 254.444,394.158 253.027 C 392.618 251.623,391.516 251.302,390.234 251.883 M298.381 253.055 C 298.298 253.275,290.763 253.515,279.688 253.650 C 261.812 253.868,259.150 254.008,259.583 254.708 C 259.693 254.886,259.297 255.481,258.704 256.031 C 258.111 256.581,257.843 257.031,258.109 257.031 C 258.376 257.031,258.594 256.845,258.594 256.618 C 258.594 256.390,258.772 256.314,258.991 256.449 C 259.209 256.584,259.289 256.854,259.169 257.048 C 258.892 257.497,255.907 257.344,255.992 256.885 C 256.026 256.697,255.810 256.454,255.512 256.346 C 255.180 256.225,255.075 256.320,255.242 256.590 C 255.400 256.846,255.259 257.031,254.906 257.031 C 254.571 257.031,254.297 257.236,254.297 257.487 C 254.297 257.738,254.184 257.830,254.046 257.692 C 253.908 257.554,254.040 257.144,254.339 256.781 C 254.840 256.174,254.805 256.163,253.906 256.641 C 253.033 257.104,252.983 257.095,253.433 256.549 C 253.863 256.027,253.764 255.862,252.749 255.413 C 252.097 255.124,251.563 254.667,251.563 254.397 C 251.563 254.034,250.574 253.918,247.754 253.952 C 245.659 253.976,244.217 254.070,244.548 254.160 C 244.880 254.250,245.354 254.861,245.602 255.518 C 245.854 256.184,246.234 256.600,246.464 256.458 C 246.690 256.318,246.875 256.400,246.875 256.641 C 246.875 256.881,247.034 256.979,247.229 256.858 C 247.424 256.738,247.491 256.991,247.379 257.421 C 247.131 258.370,247.591 258.442,248.240 257.554 C 248.692 256.936,252.891 256.071,252.519 256.673 C 252.425 256.825,252.615 257.052,252.941 257.177 C 253.426 257.363,253.447 257.542,253.057 258.167 C 252.689 258.757,252.418 258.842,251.862 258.545 C 251.065 258.118,249.609 258.431,249.609 259.029 C 249.609 259.239,250.170 259.711,250.854 260.077 C 254.810 262.191,254.721 265.853,250.709 266.088 C 249.917 266.134,249.358 266.315,249.466 266.491 C 249.575 266.666,249.871 266.685,250.125 266.533 C 250.387 266.375,250.355 266.541,250.050 266.917 C 249.582 267.493,249.607 267.579,250.245 267.584 C 250.810 267.589,250.855 267.667,250.441 267.929 C 250.009 268.203,250.047 268.350,250.637 268.692 C 251.046 268.930,251.145 269.122,250.862 269.129 C 250.084 269.147,252.429 271.875,253.223 271.875 C 254.266 271.875,253.924 273.126,252.780 273.494 C 252.319 273.642,252.319 273.753,252.780 274.245 C 253.599 275.121,253.738 276.061,252.952 275.409 C 252.230 274.810,252.128 275.408,252.832 276.117 C 253.223 276.511,253.194 276.561,252.687 276.368 C 252.175 276.173,252.091 276.327,252.251 277.162 C 252.394 277.911,252.539 278.052,252.776 277.673 C 252.965 277.369,253.005 277.755,252.871 278.592 C 252.743 279.386,252.752 280.485,252.889 281.033 L 253.140 282.031 263.898 282.031 C 270.970 282.031,274.573 281.897,274.414 281.641 C 274.281 281.426,274.359 281.250,274.586 281.250 C 274.814 281.250,275.000 281.455,275.000 281.706 C 275.000 281.956,275.092 282.070,275.204 281.958 C 275.316 281.846,275.239 281.333,275.033 280.818 C 274.827 280.304,274.648 280.136,274.634 280.446 C 274.592 281.397,273.464 279.612,273.450 278.571 C 273.441 277.888,273.276 277.713,272.808 277.892 C 272.341 278.071,272.242 277.968,272.425 277.491 C 272.841 276.407,272.250 274.219,271.539 274.213 C 270.979 274.208,270.972 274.154,271.484 273.788 C 271.958 273.450,271.907 273.405,271.217 273.556 C 270.690 273.670,270.278 273.522,270.142 273.167 C 269.781 272.225,269.887 271.875,270.534 271.875 C 270.994 271.875,271.075 271.657,270.857 270.996 C 270.698 270.513,270.554 269.766,270.538 269.336 C 270.521 268.906,270.286 268.321,270.016 268.035 C 269.745 267.749,269.624 267.354,269.746 267.156 C 269.868 266.958,269.728 266.797,269.436 266.797 C 268.845 266.797,266.622 264.589,266.290 263.672 C 266.116 263.194,266.072 263.207,266.046 263.741 C 265.948 265.840,261.995 266.718,260.295 265.018 C 259.281 264.004,259.273 263.920,259.825 260.271 C 259.864 260.012,260.030 259.883,260.194 259.984 C 260.359 260.086,260.603 259.990,260.738 259.772 C 261.106 259.177,263.773 259.294,264.706 259.947 C 265.155 260.262,265.648 260.394,265.802 260.240 C 265.955 260.087,266.045 260.137,266.002 260.352 C 265.959 260.566,265.944 261.079,265.969 261.491 C 266.038 262.599,266.563 261.863,266.584 260.630 C 266.595 259.981,266.829 259.550,267.188 259.518 C 267.510 259.489,268.100 259.445,268.499 259.420 C 269.324 259.369,269.128 257.720,268.169 256.641 C 267.651 256.058,267.444 255.326,267.532 254.395 C 267.562 254.078,268.231 253.908,269.434 253.912 C 271.941 253.919,273.139 254.274,272.886 254.934 C 272.773 255.228,272.886 255.469,273.137 255.469 C 273.479 255.469,273.476 255.587,273.125 255.938 C 272.556 256.507,272.511 257.677,273.046 258.007 C 273.271 258.147,273.395 257.867,273.339 257.347 C 273.267 256.673,273.440 256.445,274.023 256.445 C 274.568 256.445,274.918 256.060,275.178 255.176 L 275.552 253.906 286.972 253.906 C 297.589 253.906,299.567 253.733,298.713 252.879 C 298.606 252.773,298.457 252.852,298.381 253.055 M239.746 253.819 C 239.121 253.951,239.063 254.681,239.063 262.410 L 239.063 270.857 240.308 269.164 L 241.553 267.470 242.091 268.989 C 242.668 270.615,243.785 275.915,243.793 277.059 C 243.795 277.440,243.962 277.649,244.164 277.524 C 244.366 277.400,244.531 277.484,244.531 277.711 C 244.531 277.939,244.357 278.125,244.144 278.125 C 243.927 278.125,243.798 278.983,243.851 280.075 L 243.945 282.026 246.954 282.028 L 249.963 282.031 249.884 279.691 C 249.831 278.124,249.643 277.350,249.316 277.347 C 249.048 277.345,248.872 277.124,248.926 276.855 C 248.982 276.572,248.531 276.312,247.852 276.237 C 244.934 275.912,244.123 270.717,246.986 270.697 C 247.462 270.694,248.115 270.521,248.438 270.313 C 248.934 269.991,248.916 269.933,248.317 269.928 C 247.928 269.925,247.710 269.760,247.832 269.563 C 247.954 269.365,247.819 268.968,247.531 268.680 C 247.243 268.393,247.080 267.939,247.169 267.672 C 247.258 267.406,247.146 267.188,246.920 267.188 C 246.694 267.188,246.610 266.924,246.734 266.602 C 246.898 266.173,246.685 266.016,245.940 266.016 C 244.985 266.016,244.919 265.894,244.873 264.063 C 244.805 261.347,244.753 261.120,244.227 261.228 C 243.972 261.281,243.662 260.841,243.538 260.252 C 243.414 259.662,243.147 258.874,242.945 258.501 C 242.743 258.128,242.578 257.579,242.578 257.280 C 242.578 256.981,242.310 256.514,241.983 256.242 C 241.655 255.970,241.473 255.662,241.578 255.557 C 241.683 255.452,241.599 255.048,241.391 254.660 C 241.063 254.046,241.206 253.932,242.479 253.789 C 243.781 253.643,243.748 253.627,242.188 253.650 C 241.221 253.664,240.122 253.740,239.746 253.819 M301.562 253.809 C 301.561 253.970,302.836 254.053,304.394 253.995 C 309.259 253.811,309.732 253.643,305.566 253.578 C 303.364 253.544,301.562 253.647,301.562 253.809 M282.324 254.967 C 281.733 255.057,281.250 255.275,281.250 255.452 C 281.250 255.630,280.814 255.884,280.281 256.018 C 279.203 256.288,277.731 258.573,278.603 258.621 C 278.877 258.636,278.750 258.800,278.320 258.984 C 277.675 259.262,277.771 259.325,278.869 259.348 C 280.147 259.374,280.173 259.404,279.532 260.112 C 278.899 260.812,278.915 260.888,279.862 261.633 C 280.411 262.064,280.859 262.559,280.859 262.732 C 280.859 262.905,280.648 262.836,280.391 262.578 C 279.851 262.038,279.147 261.942,279.462 262.451 C 279.578 262.639,279.208 262.793,278.638 262.793 C 277.609 262.793,277.608 262.790,278.477 262.326 C 279.191 261.943,279.254 261.778,278.819 261.418 C 277.242 260.109,277.248 262.568,278.826 264.209 C 279.687 265.104,280.296 266.081,280.197 266.406 C 280.039 266.924,280.065 266.925,280.423 266.410 C 280.680 266.038,280.691 265.691,280.452 265.452 C 279.799 264.799,280.050 264.336,280.762 264.882 C 281.138 265.170,281.050 264.961,280.566 264.416 C 279.510 263.226,279.394 262.504,280.406 263.420 C 281.091 264.040,281.121 264.010,281.048 262.797 C 280.967 261.443,282.483 258.984,283.399 258.984 C 284.021 258.984,284.375 257.715,283.959 256.973 C 283.734 256.570,283.875 256.395,284.464 256.351 C 285.574 256.267,286.104 255.351,285.240 255.008 C 284.518 254.722,283.994 254.714,282.324 254.967 M281.250 257.204 C 281.572 257.257,281.792 257.416,281.738 257.557 C 281.685 257.697,281.641 257.959,281.641 258.138 C 281.641 258.317,281.377 258.464,281.055 258.464 C 280.732 258.464,280.466 258.273,280.463 258.040 C 280.459 257.808,280.286 257.881,280.078 258.203 C 279.861 258.539,279.697 258.595,279.693 258.333 C 279.690 258.082,279.569 257.568,279.424 257.191 C 279.211 256.634,279.303 256.562,279.913 256.806 C 280.326 256.971,280.928 257.150,281.250 257.204 M258.114 258.013 C 258.270 258.186,258.078 258.212,257.686 258.071 C 257.150 257.878,257.007 257.984,257.105 258.497 C 257.176 258.873,257.628 259.236,258.109 259.305 C 259.353 259.482,259.312 260.938,258.063 260.938 C 256.703 260.938,256.743 264.189,258.105 264.383 C 259.532 264.585,259.276 266.016,257.813 266.016 C 256.057 266.016,255.078 264.810,255.078 262.650 C 255.078 261.039,254.995 260.868,254.297 261.051 C 253.675 261.213,253.516 261.063,253.516 260.315 C 253.516 259.635,253.732 259.375,254.297 259.375 C 254.854 259.375,255.078 259.115,255.078 258.468 C 255.078 257.541,257.374 257.197,258.114 258.013 M289.621 259.668 C 289.359 260.856,288.348 264.317,287.996 265.234 C 287.872 265.557,287.809 266.128,287.855 266.504 C 287.905 266.909,287.681 267.188,287.306 267.188 C 286.958 267.188,286.771 267.347,286.891 267.541 C 287.497 268.521,290.229 266.328,291.030 264.219 C 291.594 262.736,291.488 259.792,290.848 259.152 C 290.066 258.370,289.892 258.444,289.621 259.668 M247.000 260.552 C 247.066 260.985,247.329 261.547,247.583 261.802 C 247.838 262.057,248.047 262.452,248.047 262.679 C 248.047 263.282,249.566 264.135,250.076 263.820 C 250.340 263.657,250.402 263.729,250.233 264.002 C 249.851 264.620,250.473 264.569,251.375 263.909 C 252.224 263.289,251.634 262.134,250.440 262.081 C 249.492 262.038,247.446 260.706,247.559 260.203 C 247.612 259.963,247.482 259.766,247.268 259.766 C 247.055 259.766,246.934 260.120,247.000 260.552 M249.206 262.598 C 249.227 263.079,249.012 262.944,248.017 261.848 L 247.070 260.805 248.132 261.555 C 248.716 261.967,249.200 262.437,249.206 262.598 M261.988 261.388 C 261.039 261.919,261.155 263.552,262.181 264.101 C 262.906 264.489,263.139 264.427,263.738 263.688 C 264.859 262.303,263.513 260.535,261.988 261.388 M321.221 261.585 C 321.362 261.727,321.259 262.112,320.993 262.441 C 320.622 262.899,320.620 262.973,320.985 262.754 C 321.466 262.465,321.779 263.209,322.029 265.234 C 322.247 266.997,322.751 268.762,323.097 268.976 C 323.284 269.092,323.437 269.484,323.437 269.847 C 323.437 270.301,323.009 270.027,322.070 268.972 C 321.318 268.127,320.698 267.600,320.691 267.800 C 320.653 268.915,318.757 264.013,318.754 262.793 C 318.750 261.365,320.261 260.625,321.221 261.585 M363.678 262.500 C 363.309 263.358,363.482 264.844,363.951 264.844 C 364.263 264.844,364.380 264.651,364.223 264.396 C 364.032 264.088,364.264 264.010,364.969 264.145 C 365.532 264.252,365.899 264.190,365.785 264.006 C 365.672 263.822,365.251 263.672,364.849 263.672 C 364.448 263.672,364.039 263.364,363.941 262.988 C 363.843 262.612,363.725 262.393,363.678 262.500 M279.904 264.367 C 279.692 264.579,278.516 263.465,278.516 263.053 C 278.516 262.897,278.868 263.089,279.299 263.479 C 279.730 263.869,280.002 264.269,279.904 264.367 M348.538 263.903 C 348.665 264.029,348.343 264.934,347.822 265.914 C 347.301 266.893,346.875 267.932,346.875 268.222 C 346.875 268.513,346.726 268.750,346.544 268.750 C 346.361 268.750,345.941 269.409,345.610 270.215 C 343.604 275.095,342.967 276.831,342.968 277.418 C 342.968 277.782,342.793 278.188,342.578 278.320 C 341.618 278.913,342.213 275.392,343.359 273.693 C 344.004 272.738,344.531 271.740,344.531 271.474 C 344.531 271.208,344.861 270.443,345.265 269.773 C 345.669 269.103,346.209 267.852,346.467 266.992 C 346.724 266.133,347.037 265.166,347.162 264.844 C 347.287 264.521,347.362 264.126,347.328 263.965 C 347.254 263.618,348.205 263.570,348.538 263.903 M263.672 273.242 L 263.672 276.172 261.797 276.172 C 259.611 276.172,258.984 275.693,258.984 274.023 C 258.984 272.522,259.596 271.875,261.016 271.875 C 261.849 271.875,262.109 271.689,262.109 271.094 C 262.109 270.573,262.370 270.313,262.891 270.313 C 263.602 270.313,263.672 270.573,263.672 273.242 M265.625 270.898 C 265.625 271.221,265.361 271.484,265.039 271.484 C 264.717 271.484,264.453 271.221,264.453 270.898 C 264.453 270.576,264.717 270.313,265.039 270.313 C 265.361 270.313,265.625 270.576,265.625 270.898 M267.969 271.289 C 267.969 271.615,268.316 271.875,268.750 271.875 C 269.180 271.875,269.531 272.030,269.531 272.220 C 269.531 272.410,269.180 272.657,268.750 272.769 C 268.222 272.907,267.969 273.302,267.969 273.987 C 267.969 274.740,268.170 275.000,268.750 275.000 C 269.198 275.000,269.531 275.260,269.531 275.611 C 269.531 277.210,267.001 276.079,266.865 274.419 C 266.796 273.563,266.532 272.728,266.279 272.564 C 265.938 272.342,265.958 272.177,266.359 271.919 C 266.655 271.728,266.776 271.376,266.629 271.137 C 266.465 270.872,266.674 270.703,267.164 270.703 C 267.619 270.703,267.969 270.958,267.969 271.289 M246.953 272.344 C 245.982 273.314,246.700 275.000,248.083 275.000 C 248.809 275.000,249.386 273.978,248.848 273.645 C 248.662 273.530,248.603 273.085,248.715 272.656 C 248.950 271.757,247.752 271.544,246.953 272.344 M258.189 272.631 C 258.875 273.912,258.652 274.219,257.031 274.219 C 256.172 274.219,255.469 274.408,255.469 274.639 C 255.469 274.878,256.014 275.004,256.738 274.932 C 257.663 274.839,258.008 274.964,258.008 275.391 C 258.008 276.404,254.892 276.401,254.181 275.386 C 253.521 274.444,253.717 273.082,254.617 272.363 C 255.583 271.591,257.719 271.751,258.189 272.631 M265.625 274.023 C 265.625 275.673,265.489 276.172,265.039 276.172 C 264.589 276.172,264.453 275.673,264.453 274.023 C 264.453 272.374,264.589 271.875,265.039 271.875 C 265.489 271.875,265.625 272.374,265.625 274.023 M255.664 273.047 C 255.531 273.262,255.795 273.438,256.250 273.438 C 256.705 273.438,256.969 273.262,256.836 273.047 C 256.703 272.832,256.439 272.656,256.250 272.656 C 256.061 272.656,255.797 272.832,255.664 273.047 M291.406 273.414 C 291.406 273.831,291.582 274.281,291.797 274.414 C 292.018 274.551,292.188 274.223,292.188 273.656 C 292.188 273.106,292.012 272.656,291.797 272.656 C 291.582 272.656,291.406 272.997,291.406 273.414 M260.305 273.614 C 260.002 274.403,260.452 275.000,261.351 275.000 C 261.900 275.000,262.109 274.730,262.109 274.023 C 262.109 272.924,260.693 272.602,260.305 273.614 M271.484 275.065 C 271.484 275.244,271.469 275.503,271.451 275.640 C 271.433 275.777,271.623 276.016,271.874 276.171 C 272.125 276.327,271.789 276.434,271.127 276.410 C 270.027 276.371,269.480 275.572,270.117 274.935 C 270.438 274.614,271.484 274.714,271.484 275.065 M354.728 280.975 C 354.227 281.476,353.718 281.089,354.089 280.488 C 354.233 280.256,354.530 280.176,354.749 280.311 C 355.015 280.476,355.009 280.695,354.728 280.975 M207.534 285.352 C 207.537 286.426,207.612 286.819,207.702 286.225 C 207.792 285.631,207.790 284.752,207.697 284.272 C 207.604 283.792,207.531 284.277,207.534 285.352 M192.294 308.984 C 192.294 309.951,192.370 310.347,192.463 309.863 C 192.556 309.380,192.556 308.589,192.463 308.105 C 192.370 307.622,192.294 308.018,192.294 308.984 " stroke="none" fill="#a1a5a6" fill-rule="evenodd"></path><path id="path3" d="M280.164 105.261 L 280.078 110.718 277.637 108.390 L 275.195 106.063 277.622 108.580 C 280.615 111.683,280.517 111.802,280.370 105.230 L 280.249 99.805 280.164 105.261 M273.031 104.004 C 273.988 105.024,274.823 105.859,274.886 105.859 C 275.179 105.859,274.869 105.509,273.145 103.890 L 271.289 102.148 273.031 104.004 M273.340 113.676 L 280.078 120.516 280.078 130.398 C 280.078 137.769,279.963 140.210,279.627 140.002 C 279.345 139.828,279.282 139.895,279.459 140.180 C 280.259 141.476,280.469 139.437,280.469 130.344 L 280.469 120.499 273.535 113.668 L 266.602 106.836 273.340 113.676 M279.117 152.319 C 278.967 152.562,279.106 152.633,279.465 152.495 C 279.992 152.293,280.078 153.447,280.179 162.070 L 280.294 171.875 280.284 162.044 C 280.274 152.612,280.056 150.799,279.117 152.319 M233.594 159.107 C 233.594 159.174,234.165 159.745,234.863 160.376 L 236.133 161.523 234.986 160.254 C 233.916 159.071,233.594 158.805,233.594 159.107 M291.490 165.089 C 291.417 169.199,291.497 169.897,292.090 170.362 C 292.692 170.834,292.717 170.825,292.298 170.288 C 292.004 169.911,291.776 167.900,291.699 165.015 L 291.574 160.352 291.490 165.089 M268.967 176.151 C 265.546 179.576,262.576 182.274,262.368 182.145 C 262.147 182.008,262.116 182.117,262.294 182.405 C 262.536 182.796,275.391 170.643,275.391 170.024 C 275.391 169.748,274.751 170.357,268.967 176.151 M293.359 178.711 C 297.115 182.471,300.275 185.547,300.382 185.547 C 300.490 185.547,297.505 182.471,293.750 178.711 C 289.995 174.951,286.835 171.875,286.727 171.875 C 286.620 171.875,289.604 174.951,293.359 178.711 M246.583 179.102 C 246.587 179.961,246.667 180.267,246.761 179.781 C 246.854 179.295,246.851 178.592,246.753 178.218 C 246.655 177.845,246.579 178.242,246.583 179.102 M73.145 181.445 C 73.150 182.305,73.230 182.610,73.323 182.124 C 73.417 181.638,73.413 180.935,73.315 180.562 C 73.217 180.188,73.141 180.586,73.145 181.445 M326.661 181.445 C 326.665 182.305,326.745 182.610,326.839 182.124 C 326.932 181.638,326.929 180.935,326.831 180.562 C 326.733 180.188,326.657 180.586,326.661 181.445 M274.994 186.230 L 270.508 190.820 275.098 186.334 C 279.361 182.168,279.865 181.641,279.583 181.641 C 279.526 181.641,277.461 183.706,274.994 186.230 M280.233 187.109 C 280.233 190.225,280.294 191.499,280.368 189.941 C 280.442 188.384,280.442 185.835,280.368 184.277 C 280.294 182.720,280.233 183.994,280.233 187.109 M287.500 182.153 C 287.500 182.221,288.071 182.792,288.770 183.423 L 290.039 184.570 288.892 183.301 C 287.822 182.117,287.500 181.852,287.500 182.153 M291.602 186.328 C 292.441 187.188,293.215 187.891,293.323 187.891 C 293.430 187.891,292.831 187.188,291.992 186.328 C 291.153 185.469,290.379 184.766,290.271 184.766 C 290.164 184.766,290.762 185.469,291.602 186.328 M261.028 187.500 C 261.028 188.252,261.109 188.560,261.207 188.184 C 261.305 187.808,261.305 187.192,261.207 186.816 C 261.109 186.440,261.028 186.748,261.028 187.500 M72.790 191.992 C 72.792 193.711,72.860 194.365,72.943 193.447 C 73.025 192.528,73.024 191.122,72.940 190.322 C 72.856 189.522,72.789 190.273,72.790 191.992 M327.087 191.992 C 327.088 193.711,327.157 194.365,327.240 193.447 C 327.322 192.528,327.321 191.122,327.237 190.322 C 327.153 189.522,327.086 190.273,327.087 191.992 M282.719 199.886 C 283.205 199.979,283.908 199.976,284.282 199.878 C 284.655 199.780,284.258 199.704,283.398 199.708 C 282.539 199.712,282.233 199.792,282.719 199.886 M72.790 208.008 C 72.792 209.727,72.860 210.381,72.943 209.462 C 73.025 208.544,73.024 207.137,72.940 206.337 C 72.856 205.537,72.789 206.289,72.790 208.008 M327.087 208.008 C 327.088 209.727,327.157 210.381,327.240 209.462 C 327.322 208.544,327.321 207.137,327.237 206.337 C 327.153 205.537,327.086 206.289,327.087 208.008 M73.145 218.555 C 73.150 219.414,73.230 219.720,73.323 219.234 C 73.417 218.748,73.413 218.045,73.315 217.671 C 73.217 217.298,73.141 217.695,73.145 218.555 M326.661 218.555 C 326.665 219.414,326.745 219.720,326.839 219.234 C 326.932 218.748,326.929 218.045,326.831 217.671 C 326.733 217.298,326.657 217.695,326.661 218.555 M136.621 220.996 C 171.479 221.051,228.521 221.051,263.379 220.996 C 298.237 220.941,269.717 220.896,200.000 220.896 C 130.283 220.896,101.763 220.941,136.621 220.996 M320.313 251.621 C 319.561 252.281,319.299 252.641,319.731 252.423 C 320.444 252.062,322.214 250.369,321.838 250.407 C 321.751 250.415,321.064 250.962,320.313 251.621 M353.078 252.441 C 351.456 253.955,350.323 255.770,350.876 255.970 C 351.269 256.113,351.270 256.312,350.879 256.975 C 350.610 257.430,350.391 258.002,350.391 258.246 C 350.391 259.053,351.363 257.935,352.311 256.037 C 353.002 254.653,353.318 254.340,353.658 254.703 C 353.947 255.011,353.963 255.228,353.703 255.325 C 353.273 255.486,353.296 258.632,353.745 261.074 C 353.947 262.174,353.874 262.671,353.475 262.924 C 353.067 263.182,353.157 263.271,353.832 263.275 C 354.328 263.279,354.643 263.429,354.531 263.609 C 354.420 263.789,353.267 263.907,351.969 263.870 C 349.526 263.802,349.271 263.932,350.098 264.823 C 350.492 265.248,350.482 265.290,350.045 265.041 C 349.601 264.788,349.555 265.073,349.789 266.644 C 349.945 267.695,350.101 268.555,350.134 268.555 C 350.719 268.555,353.354 270.484,354.753 271.936 C 355.756 272.977,356.704 273.828,356.859 273.828 C 357.014 273.828,357.342 274.103,357.587 274.439 C 358.097 275.136,359.020 274.449,361.032 271.875 C 361.793 270.901,362.102 270.705,362.105 271.191 C 362.108 271.613,362.409 271.875,362.891 271.875 C 363.320 271.875,363.677 272.007,363.684 272.168 C 363.715 272.892,365.617 273.841,366.298 273.471 C 367.152 273.008,371.523 271.094,371.727 271.094 C 371.808 271.094,371.875 271.445,371.875 271.875 C 371.875 272.305,372.051 272.656,372.266 272.656 C 372.480 272.656,372.656 272.935,372.656 273.275 C 372.656 274.091,373.422 273.807,374.141 272.724 C 374.668 271.929,374.658 271.881,374.009 272.130 C 373.359 272.380,373.362 272.338,374.053 271.608 C 374.467 271.172,374.980 270.834,375.195 270.857 C 375.410 270.880,375.563 270.597,375.534 270.228 C 375.501 269.809,376.417 268.930,377.975 267.884 L 380.468 266.211 379.101 266.090 C 377.524 265.950,377.516 265.931,378.399 264.583 C 379.210 263.346,377.803 263.555,376.342 264.889 C 375.792 265.391,374.953 265.625,373.705 265.625 C 371.717 265.625,371.295 265.045,372.852 264.453 C 373.389 264.249,373.828 263.929,373.828 263.742 C 373.828 263.556,374.268 262.892,374.805 262.268 C 375.343 261.644,375.981 260.518,376.224 259.766 C 376.467 259.014,376.857 258.047,377.091 257.617 C 377.749 256.408,378.503 254.176,378.510 253.418 C 378.513 253.042,378.735 252.732,379.004 252.728 C 379.353 252.724,379.337 252.624,378.947 252.377 C 378.509 252.100,378.548 251.995,379.143 251.843 C 379.550 251.738,374.064 251.633,366.952 251.608 C 354.051 251.563,354.018 251.565,353.078 252.441 M281.152 253.417 C 284.214 253.483,289.224 253.483,292.285 253.417 C 295.347 253.351,292.842 253.297,286.719 253.297 C 280.596 253.297,278.091 253.351,281.152 253.417 M302.767 253.278 C 302.856 253.361,306.006 253.520,309.766 253.629 C 314.663 253.771,315.549 253.740,312.891 253.520 C 308.848 253.185,302.506 253.033,302.767 253.278 M247.559 253.807 C 250.381 253.896,251.563 254.074,251.563 254.410 C 251.563 254.673,252.097 255.124,252.749 255.413 C 253.764 255.862,253.863 256.027,253.433 256.549 C 252.983 257.095,253.033 257.104,253.906 256.641 C 254.805 256.163,254.840 256.174,254.339 256.781 C 254.040 257.144,253.908 257.554,254.046 257.692 C 254.184 257.830,254.297 257.738,254.297 257.487 C 254.297 257.236,254.571 257.031,254.906 257.031 C 255.259 257.031,255.400 256.846,255.242 256.590 C 255.077 256.322,255.183 256.220,255.512 256.330 C 255.810 256.429,256.055 256.701,256.055 256.934 C 256.055 257.166,256.215 257.503,256.410 257.682 C 256.617 257.871,256.648 257.803,256.485 257.520 C 256.311 257.218,256.436 257.031,256.813 257.031 C 257.148 257.031,257.378 257.229,257.324 257.471 C 257.271 257.712,257.490 257.989,257.813 258.086 C 258.333 258.243,258.333 258.217,257.813 257.848 C 257.325 257.504,257.371 257.433,258.082 257.428 C 259.043 257.421,259.597 256.824,258.991 256.449 C 258.772 256.314,258.594 256.390,258.594 256.618 C 258.594 256.845,258.376 257.031,258.109 257.031 C 257.843 257.031,258.111 256.581,258.704 256.031 C 259.297 255.481,259.680 254.866,259.556 254.664 C 259.262 254.188,258.960 254.242,263.672 253.924 C 266.455 253.736,263.880 253.652,255.664 253.664 C 249.004 253.673,245.356 253.737,247.559 253.807 M272.759 253.796 C 273.353 253.886,274.232 253.883,274.712 253.791 C 275.193 253.698,274.707 253.624,273.633 253.627 C 272.559 253.630,272.166 253.706,272.759 253.796 M396.039 257.910 C 395.901 262.136,396.190 278.879,396.425 280.273 C 396.680 281.783,396.745 281.840,398.345 281.956 L 400.000 282.076 400.000 271.295 L 400.000 260.513 398.391 258.382 C 396.453 255.815,396.110 255.746,396.039 257.910 M318.754 262.793 C 318.757 264.013,320.653 268.915,320.691 267.800 C 320.698 267.600,321.318 268.127,322.070 268.972 C 323.009 270.027,323.437 270.301,323.437 269.847 C 323.437 269.484,323.284 269.092,323.097 268.976 C 322.751 268.762,322.247 266.997,322.029 265.234 C 321.779 263.209,321.466 262.465,320.985 262.754 C 320.620 262.973,320.622 262.899,320.993 262.441 C 321.611 261.677,321.254 261.328,319.857 261.328 C 318.838 261.328,318.750 261.444,318.754 262.793 M364.849 263.672 C 365.251 263.672,365.672 263.822,365.785 264.006 C 365.899 264.190,365.532 264.252,364.969 264.145 C 364.264 264.010,364.032 264.088,364.223 264.396 C 364.380 264.651,364.263 264.844,363.951 264.844 C 363.589 264.844,363.435 264.477,363.498 263.770 C 363.626 262.344,363.726 262.167,363.941 262.988 C 364.039 263.364,364.448 263.672,364.849 263.672 M347.328 263.965 C 347.362 264.126,347.287 264.521,347.162 264.844 C 347.037 265.166,346.724 266.133,346.467 266.992 C 346.209 267.852,345.669 269.103,345.265 269.773 C 344.861 270.443,344.531 271.208,344.531 271.474 C 344.531 271.740,344.004 272.738,343.359 273.693 C 342.213 275.392,341.618 278.913,342.578 278.320 C 342.793 278.188,342.968 277.782,342.968 277.418 C 342.967 276.831,343.604 275.095,345.610 270.215 C 345.941 269.409,346.361 268.750,346.544 268.750 C 346.726 268.750,346.875 268.513,346.875 268.222 C 346.875 267.932,347.301 266.893,347.822 265.914 C 348.343 264.934,348.665 264.029,348.538 263.903 C 348.205 263.570,347.254 263.618,347.328 263.965 M240.308 269.164 L 239.063 270.857 239.063 276.463 L 239.063 282.069 241.504 281.952 L 243.945 281.836 243.828 279.980 C 243.758 278.870,243.876 278.125,244.121 278.125 C 244.347 278.125,244.531 277.939,244.531 277.711 C 244.531 277.484,244.366 277.400,244.164 277.524 C 243.962 277.649,243.795 277.440,243.793 277.059 C 243.785 275.915,242.668 270.615,242.091 268.989 L 241.553 267.470 240.308 269.164 M392.708 277.185 C 392.847 278.024,392.962 279.351,392.964 280.134 C 392.967 281.073,393.181 281.638,393.592 281.796 C 394.319 282.075,393.998 278.147,393.255 277.676 C 393.035 277.537,392.961 277.147,393.090 276.810 C 393.219 276.473,393.130 276.076,392.891 275.928 C 392.585 275.739,392.531 276.112,392.708 277.185 M200.888 285.156 C 200.888 286.123,200.964 286.519,201.057 286.035 C 201.150 285.552,201.150 284.761,201.057 284.277 C 200.964 283.794,200.888 284.189,200.888 285.156 M235.268 286.133 C 235.271 287.207,235.347 287.600,235.437 287.006 C 235.526 286.413,235.524 285.534,235.431 285.053 C 235.339 284.573,235.265 285.059,235.268 286.133 M164.544 307.422 C 164.544 308.174,164.624 308.481,164.722 308.105 C 164.821 307.729,164.821 307.114,164.722 306.738 C 164.624 306.362,164.544 306.670,164.544 307.422 M198.935 308.984 C 198.935 309.951,199.011 310.347,199.104 309.863 C 199.197 309.380,199.197 308.589,199.104 308.105 C 199.011 307.622,198.935 308.018,198.935 308.984 M220.403 311.328 C 220.403 312.080,220.484 312.388,220.582 312.012 C 220.680 311.636,220.680 311.021,220.582 310.645 C 220.484 310.269,220.403 310.576,220.403 311.328 M230.365 322.756 L 229.676 324.023 230.463 323.101 C 231.133 322.317,231.491 321.478,231.152 321.487 C 231.099 321.488,230.745 322.059,230.365 322.756 " stroke="none" fill="#7c7c7d" fill-rule="evenodd"></path><path id="path4" d="M293.346 104.199 L 291.211 106.445 293.457 104.310 C 295.544 102.327,295.882 101.953,295.592 101.953 C 295.531 101.953,294.520 102.964,293.346 104.199 M289.239 108.301 L 287.695 109.961 289.355 108.417 C 290.899 106.981,291.195 106.641,290.900 106.641 C 290.836 106.641,290.089 107.388,289.239 108.301 M299.005 108.301 L 297.461 109.961 299.121 108.417 C 300.665 106.981,300.961 106.641,300.665 106.641 C 300.601 106.641,299.854 107.388,299.005 108.301 M295.682 111.621 L 294.336 113.086 295.801 111.740 C 297.164 110.487,297.445 110.156,297.147 110.156 C 297.082 110.156,296.422 110.815,295.682 111.621 M292.557 114.746 L 291.211 116.211 292.676 114.865 C 294.039 113.612,294.320 113.281,294.022 113.281 C 293.957 113.281,293.297 113.940,292.557 114.746 M289.063 118.164 C 288.114 119.131,287.425 119.922,287.533 119.922 C 287.640 119.922,288.504 119.131,289.453 118.164 C 290.402 117.197,291.090 116.406,290.983 116.406 C 290.876 116.406,290.011 117.197,289.063 118.164 M239.941 141.285 C 240.317 141.383,240.933 141.383,241.309 141.285 C 241.685 141.187,241.377 141.106,240.625 141.106 C 239.873 141.106,239.565 141.187,239.941 141.285 M83.657 146.287 C 83.914 146.544,239.518 146.550,239.775 146.293 C 239.884 146.183,204.759 146.094,161.719 146.094 C 118.678 146.094,83.551 146.181,83.657 146.287 M241.493 146.310 C 241.612 146.429,247.279 146.513,254.087 146.495 C 263.509 146.471,266.397 146.574,266.180 146.925 C 266.001 147.215,266.063 147.283,266.346 147.108 C 267.746 146.242,265.943 146.094,254.036 146.094 C 247.018 146.094,241.373 146.191,241.493 146.310 M304.416 146.385 C 306.737 146.455,310.428 146.454,312.619 146.385 C 314.809 146.315,312.910 146.259,308.398 146.259 C 303.887 146.259,302.095 146.316,304.416 146.385 M275.541 165.234 C 275.541 167.920,275.604 169.019,275.680 167.676 C 275.756 166.333,275.756 164.136,275.680 162.793 C 275.604 161.450,275.541 162.549,275.541 165.234 M298.242 176.953 C 301.244 179.961,303.788 182.422,303.896 182.422 C 304.003 182.422,301.635 179.961,298.633 176.953 C 295.631 173.945,293.087 171.484,292.979 171.484 C 292.872 171.484,295.240 173.945,298.242 176.953 M278.686 173.145 L 277.539 174.414 278.809 173.267 C 279.507 172.636,280.078 172.064,280.078 171.997 C 280.078 171.695,279.756 171.961,278.686 173.145 M275.760 176.074 L 274.414 177.539 275.879 176.193 C 277.242 174.940,277.523 174.609,277.225 174.609 C 277.160 174.609,276.501 175.269,275.760 176.074 M272.635 179.199 L 271.289 180.664 272.754 179.318 C 274.117 178.065,274.398 177.734,274.100 177.734 C 274.035 177.734,273.376 178.394,272.635 179.199 M269.141 182.617 C 268.192 183.584,267.503 184.375,267.611 184.375 C 267.718 184.375,268.582 183.584,269.531 182.617 C 270.480 181.650,271.169 180.859,271.061 180.859 C 270.954 180.859,270.089 181.650,269.141 182.617 M275.384 186.230 L 270.898 190.820 275.488 186.334 C 279.752 182.168,280.255 181.641,279.974 181.641 C 279.917 181.641,277.851 183.706,275.384 186.230 M72.755 185.742 C 72.759 186.602,72.839 186.907,72.933 186.421 C 73.026 185.935,73.022 185.232,72.925 184.859 C 72.827 184.485,72.750 184.883,72.755 185.742 M327.052 185.742 C 327.056 186.602,327.136 186.907,327.229 186.421 C 327.323 185.935,327.319 185.232,327.222 184.859 C 327.124 184.485,327.047 184.883,327.052 185.742 M262.500 191.919 C 262.500 191.986,263.071 192.558,263.770 193.189 L 265.039 194.336 263.892 193.066 C 262.822 191.883,262.500 191.617,262.500 191.919 M72.755 214.258 C 72.759 215.117,72.839 215.423,72.933 214.937 C 73.026 214.451,73.022 213.748,72.925 213.374 C 72.827 213.001,72.750 213.398,72.755 214.258 M327.052 214.258 C 327.056 215.117,327.136 215.423,327.229 214.937 C 327.323 214.451,327.319 213.748,327.222 213.374 C 327.124 213.001,327.047 213.398,327.052 214.258 M137.402 224.121 C 171.831 224.176,228.169 224.176,262.598 224.121 C 297.026 224.066,268.857 224.021,200.000 224.021 C 131.143 224.021,102.974 224.066,137.402 224.121 M153.027 236.621 C 178.862 236.677,221.138 236.677,246.973 236.621 C 272.808 236.566,251.670 236.520,200.000 236.520 C 148.330 236.520,127.192 236.566,153.027 236.621 M152.832 239.746 C 178.774 239.802,221.226 239.802,247.168 239.746 C 273.110 239.691,251.885 239.645,200.000 239.645 C 148.115 239.645,126.890 239.691,152.832 239.746 M298.053 251.051 C 298.050 251.307,298.199 251.610,298.385 251.725 C 298.570 251.840,298.702 252.334,298.678 252.822 L 298.633 253.711 287.059 253.814 L 275.486 253.918 275.206 255.182 C 274.919 256.473,274.933 261.001,275.224 261.292 C 275.513 261.580,276.941 260.063,276.720 259.704 C 276.601 259.512,276.649 259.387,276.826 259.426 C 277.004 259.465,277.588 259.305,278.125 259.070 C 278.662 258.835,278.877 258.632,278.603 258.619 C 277.730 258.575,279.205 256.288,280.281 256.018 C 280.814 255.884,281.250 255.640,281.250 255.476 C 281.250 255.024,284.200 254.648,285.108 254.984 C 286.087 255.346,285.655 256.261,284.464 256.351 C 283.875 256.395,283.734 256.570,283.959 256.973 C 284.375 257.715,284.021 258.984,283.399 258.984 C 282.480 258.984,280.967 261.443,281.049 262.803 L 281.126 264.082 280.213 263.224 C 279.232 262.302,279.276 261.672,280.264 262.492 C 280.591 262.764,280.859 262.858,280.859 262.702 C 280.859 262.545,280.411 262.064,279.862 261.633 C 278.915 260.888,278.899 260.812,279.532 260.112 C 280.174 259.403,280.148 259.376,278.869 259.414 C 277.646 259.450,277.618 259.477,278.516 259.751 C 279.374 260.013,279.407 260.085,278.792 260.346 C 278.132 260.626,278.130 260.686,278.755 261.376 C 279.464 262.160,278.978 262.415,278.220 261.657 C 277.877 261.315,277.617 261.330,277.146 261.721 C 276.592 262.180,276.697 262.412,278.106 263.848 C 278.976 264.734,279.688 265.584,279.688 265.737 C 279.688 266.169,277.811 266.065,277.535 265.619 C 277.400 265.400,277.150 265.308,276.978 265.414 C 276.807 265.520,276.336 265.215,275.931 264.737 L 275.195 263.867 276.172 264.646 L 277.148 265.424 276.172 264.316 L 275.195 263.209 275.073 264.636 C 274.793 267.887,273.642 266.142,273.532 262.300 C 273.476 260.369,273.221 258.383,272.965 257.886 C 272.602 257.185,272.604 256.814,272.971 256.226 C 273.240 255.795,273.280 255.469,273.062 255.469 C 272.853 255.469,272.773 255.228,272.886 254.934 C 273.139 254.274,271.941 253.919,269.434 253.912 C 268.231 253.908,267.562 254.078,267.532 254.395 C 267.444 255.326,267.651 256.058,268.169 256.641 C 269.661 258.322,269.252 259.650,267.315 259.411 C 266.714 259.337,266.290 260.043,266.617 260.572 C 266.789 260.850,267.088 260.796,267.519 260.407 C 269.368 258.742,273.032 259.512,271.885 261.325 C 271.592 261.789,271.418 261.809,271.032 261.423 C 270.422 260.813,269.435 260.799,268.842 261.393 C 268.495 261.739,268.547 261.973,269.057 262.370 C 269.662 262.843,269.664 262.871,269.073 262.666 C 268.661 262.523,268.449 262.631,268.498 262.958 C 268.726 264.464,270.179 264.970,271.097 263.863 C 271.531 263.340,271.645 263.351,272.089 263.959 C 272.728 264.832,272.256 265.439,270.485 266.023 C 268.605 266.644,266.619 264.875,266.682 262.637 C 266.715 261.496,266.639 261.317,266.346 261.840 C 265.642 263.098,267.947 266.797,269.436 266.797 C 269.728 266.797,269.868 266.958,269.746 267.156 C 269.624 267.354,269.781 267.772,270.095 268.086 C 270.409 268.400,270.581 268.742,270.477 268.846 C 270.373 268.950,270.513 269.879,270.788 270.911 C 271.188 272.407,271.190 272.819,270.801 272.949 C 269.943 273.235,270.278 273.762,271.191 273.562 C 271.898 273.408,271.955 273.452,271.484 273.788 C 270.972 274.154,270.979 274.208,271.539 274.213 C 272.250 274.219,272.841 276.407,272.425 277.491 C 272.242 277.968,272.341 278.071,272.808 277.892 C 273.276 277.713,273.441 277.888,273.450 278.571 C 273.464 279.619,274.589 281.389,274.640 280.446 C 274.657 280.136,274.848 280.366,275.063 280.957 L 275.456 282.031 303.353 282.031 C 318.696 282.031,331.248 281.899,331.246 281.738 C 331.243 281.577,330.538 281.108,329.678 280.696 C 328.818 280.284,326.887 278.914,325.385 277.650 C 323.071 275.702,321.579 274.939,323.144 276.503 C 323.901 277.260,302.746 275.934,301.491 275.146 C 300.810 274.719,298.455 274.711,298.718 275.137 C 298.831 275.320,299.443 275.365,300.079 275.238 C 300.901 275.074,301.189 275.147,301.076 275.492 C 300.834 276.228,298.649 276.311,298.063 275.606 C 297.424 274.836,296.484 274.821,296.484 275.582 C 296.484 275.927,296.128 276.159,295.605 276.154 C 295.122 276.148,294.257 276.194,293.682 276.256 C 293.108 276.317,292.625 276.235,292.608 276.074 C 292.592 275.913,292.578 274.902,292.578 273.828 C 292.578 271.554,293.241 271.190,293.465 273.340 C 293.612 274.745,293.621 274.732,293.684 273.030 L 293.750 271.255 304.004 266.089 C 309.644 263.248,314.697 260.921,315.234 260.918 C 316.129 260.913,316.154 260.869,315.527 260.394 C 315.151 260.108,314.844 259.759,314.844 259.617 C 314.844 259.476,313.921 258.124,312.793 256.614 L 310.742 253.868 306.152 253.985 L 301.561 254.102 301.500 253.125 C 301.467 252.588,301.441 251.967,301.443 251.745 C 301.446 251.515,300.867 251.410,300.093 251.500 C 299.224 251.602,298.616 251.466,298.399 251.122 C 298.174 250.768,298.057 250.744,298.053 251.051 M321.263 251.650 C 321.323 251.924,321.674 252.122,322.042 252.090 C 322.488 252.050,322.635 252.227,322.483 252.621 C 322.328 253.026,322.437 253.143,322.827 252.993 C 323.199 252.850,323.326 252.961,323.193 253.309 C 322.993 253.830,323.874 255.502,324.931 256.604 C 325.220 256.906,325.880 258.079,326.398 259.210 C 327.159 260.874,327.600 261.352,328.712 261.719 C 329.467 261.968,329.993 262.321,329.881 262.503 C 329.768 262.685,330.030 262.947,330.463 263.084 C 330.896 263.222,331.250 263.498,331.250 263.698 C 331.250 263.899,331.589 264.063,332.003 264.063 C 332.418 264.063,333.020 264.326,333.343 264.648 C 333.693 264.998,334.648 265.234,335.714 265.234 C 337.404 265.234,338.079 264.757,337.012 264.317 C 336.743 264.206,337.051 264.200,337.695 264.304 C 338.580 264.447,339.126 264.249,339.924 263.497 C 340.506 262.949,341.124 262.500,341.297 262.500 C 341.471 262.500,341.917 261.797,342.290 260.938 C 342.662 260.078,343.136 259.375,343.343 259.375 C 343.549 259.375,343.929 258.672,344.187 257.813 C 344.444 256.953,344.781 256.250,344.935 256.250 C 345.089 256.250,345.327 255.690,345.464 255.006 C 345.600 254.322,346.001 253.443,346.354 253.053 C 346.866 252.487,346.885 252.343,346.447 252.338 C 345.999 252.333,346.005 252.256,346.484 251.917 C 346.913 251.613,346.390 251.554,344.541 251.698 C 342.997 251.818,341.947 252.088,341.847 252.390 C 341.756 252.662,341.287 253.280,340.804 253.763 C 340.321 254.245,340.025 254.739,340.146 254.859 C 340.266 254.980,340.080 255.078,339.733 255.078 C 339.386 255.078,338.961 255.308,338.789 255.590 C 336.977 258.559,332.149 257.785,328.092 253.874 C 326.709 252.542,325.806 251.958,325.324 252.084 C 324.901 252.194,324.709 252.108,324.854 251.873 C 325.011 251.619,324.451 251.527,323.293 251.620 C 322.299 251.699,321.411 251.626,321.319 251.458 C 321.227 251.290,321.202 251.376,321.263 251.650 M387.012 251.832 C 386.412 251.988,386.045 253.673,386.282 255.176 C 386.307 255.337,386.192 255.469,386.026 255.469 C 385.860 255.469,385.763 256.519,385.811 257.802 C 385.858 259.085,385.731 260.238,385.527 260.364 C 385.323 260.490,385.156 261.141,385.156 261.812 C 385.156 262.482,384.992 263.570,384.790 264.230 C 384.414 265.464,383.759 268.877,383.172 272.656 C 382.471 277.172,382.312 277.936,382.037 278.125 C 381.881 278.232,381.662 279.155,381.550 280.176 L 381.346 282.031 383.837 282.031 L 386.328 282.031 386.374 278.613 C 386.400 276.733,386.390 275.035,386.353 274.839 C 386.316 274.643,386.460 274.028,386.673 273.472 C 386.885 272.916,387.152 270.967,387.265 269.141 C 387.699 262.145,388.016 259.375,388.381 259.375 C 388.597 259.375,388.655 258.821,388.515 258.077 C 388.365 257.275,388.485 256.343,388.831 255.636 C 389.139 255.007,389.448 253.965,389.519 253.320 C 389.590 252.676,389.912 252.029,390.234 251.883 C 390.880 251.590,388.104 251.546,387.012 251.832 M392.972 251.855 C 392.974 252.017,393.532 252.588,394.213 253.125 C 394.893 253.662,396.473 255.400,397.725 256.987 L 400.000 259.872 400.000 255.717 L 400.000 251.563 396.484 251.563 C 394.551 251.563,392.970 251.694,392.972 251.855 M319.629 252.602 C 319.360 252.711,319.141 253.219,319.141 253.731 C 319.141 254.442,318.978 254.611,318.457 254.443 C 318.038 254.308,317.941 254.351,318.206 254.553 C 318.445 254.734,318.595 255.167,318.542 255.514 C 318.488 255.861,318.598 256.389,318.786 256.686 C 319.032 257.074,319.130 256.930,319.135 256.175 C 319.138 255.597,319.316 255.016,319.531 254.883 C 319.746 254.750,319.922 254.202,319.922 253.665 C 319.922 253.026,320.078 252.785,320.373 252.967 C 320.652 253.140,320.718 253.074,320.545 252.795 C 320.392 252.547,320.233 252.358,320.192 252.375 C 320.151 252.392,319.897 252.494,319.629 252.602 M101.505 253.614 C 101.667 253.776,132.727 253.864,170.528 253.810 L 239.258 253.711 170.234 253.516 C 132.271 253.408,101.343 253.453,101.505 253.614 M87.207 253.807 C 89.302 253.877,92.729 253.877,94.824 253.807 C 96.919 253.737,95.205 253.679,91.016 253.679 C 86.826 253.679,85.112 253.737,87.207 253.807 M241.379 254.636 C 241.594 255.038,241.683 255.452,241.578 255.557 C 241.473 255.662,241.655 255.970,241.983 256.242 C 242.310 256.514,242.578 256.981,242.578 257.280 C 242.578 257.579,242.743 258.128,242.945 258.501 C 243.147 258.874,243.414 259.662,243.538 260.252 C 243.662 260.841,243.972 261.281,244.227 261.228 C 244.753 261.120,244.805 261.347,244.873 264.063 C 244.900 265.137,245.054 266.016,245.215 266.017 C 245.376 266.017,245.452 264.552,245.383 262.760 L 245.259 259.502 246.453 259.678 C 247.223 259.791,247.549 260.011,247.369 260.298 C 246.849 261.127,246.837 262.569,247.345 263.197 C 247.646 263.569,247.669 263.712,247.401 263.552 C 247.091 263.366,246.908 263.890,246.815 265.235 C 246.741 266.309,246.826 267.188,247.005 267.188 C 247.184 267.188,247.258 267.406,247.169 267.672 C 247.080 267.939,247.243 268.393,247.531 268.680 C 247.819 268.968,247.954 269.365,247.832 269.563 C 247.710 269.760,247.928 269.925,248.317 269.928 C 248.858 269.932,248.900 270.012,248.498 270.267 C 248.110 270.513,248.237 270.666,248.986 270.854 C 249.545 270.994,250.000 271.387,250.000 271.729 C 250.000 272.100,249.780 272.265,249.453 272.139 C 248.848 271.907,248.289 273.300,248.848 273.645 C 249.033 273.759,249.085 274.113,248.963 274.431 C 248.806 274.841,248.925 274.938,249.371 274.767 C 250.107 274.485,250.204 275.031,249.535 275.699 C 248.849 276.385,248.812 277.344,249.472 277.344 C 249.788 277.344,249.932 277.528,249.794 277.752 C 248.922 279.162,250.067 282.031,251.501 282.031 L 252.930 282.031 252.930 279.725 C 252.930 278.456,252.801 277.621,252.643 277.869 C 252.473 278.135,252.353 277.945,252.350 277.405 C 252.346 276.865,252.063 276.416,251.660 276.310 C 251.177 276.184,250.988 275.765,251.015 274.882 C 251.104 272.003,251.160 271.787,251.758 272.016 C 252.635 272.353,252.467 271.691,251.332 270.342 C 250.684 269.572,250.509 269.136,250.844 269.129 C 251.161 269.122,251.080 268.950,250.637 268.692 C 250.047 268.350,250.009 268.203,250.441 267.929 C 250.855 267.667,250.810 267.589,250.245 267.584 C 249.660 267.579,249.605 267.468,249.971 267.027 C 250.321 266.605,250.318 266.408,249.959 266.185 C 249.642 265.990,249.581 266.074,249.773 266.444 C 249.943 266.771,249.849 266.742,249.541 266.372 C 249.256 266.032,248.617 265.536,248.119 265.271 C 247.073 264.714,247.667 263.462,248.793 263.850 C 249.354 264.044,249.355 264.017,248.804 263.575 C 247.925 262.870,246.902 260.276,247.697 260.767 C 247.896 260.891,247.960 261.153,247.838 261.351 C 247.716 261.548,247.894 261.603,248.233 261.473 C 248.759 261.271,248.702 261.041,247.843 259.915 C 246.952 258.747,246.917 258.590,247.539 258.563 C 248.046 258.541,248.088 258.471,247.690 258.314 C 247.387 258.194,246.920 258.394,246.654 258.759 C 246.339 259.189,246.078 259.274,245.909 259.001 C 245.766 258.770,245.486 258.682,245.286 258.806 C 245.086 258.929,244.922 258.575,244.922 258.019 C 244.922 257.462,245.166 256.913,245.464 256.799 C 246.257 256.494,245.392 254.411,244.358 254.133 C 242.428 253.614,240.964 253.862,241.379 254.636 M279.424 257.191 C 279.569 257.568,279.688 258.071,279.688 258.310 C 279.688 258.548,279.926 258.417,280.218 258.018 C 280.733 257.313,280.760 257.313,281.183 258.041 C 281.421 258.452,281.622 258.569,281.629 258.301 C 281.635 258.032,281.685 257.697,281.738 257.557 C 281.792 257.416,281.572 257.257,281.250 257.204 C 280.928 257.150,280.326 256.971,279.913 256.806 C 279.303 256.562,279.211 256.634,279.424 257.191 M255.109 258.469 C 255.089 259.028,254.777 259.379,254.199 259.490 L 253.320 259.659 254.211 259.712 C 255.137 259.768,255.690 258.987,255.341 258.118 C 255.230 257.843,255.126 258.000,255.109 258.469 M290.848 259.152 C 291.488 259.792,291.594 262.736,291.030 264.219 C 290.229 266.328,287.497 268.521,286.891 267.541 C 286.771 267.347,286.958 267.188,287.306 267.188 C 287.681 267.188,287.905 266.909,287.855 266.504 C 287.809 266.128,287.872 265.557,287.996 265.234 C 288.348 264.317,289.359 260.856,289.621 259.668 C 289.892 258.444,290.066 258.370,290.848 259.152 M265.035 260.554 C 265.462 261.087,265.848 261.587,265.893 261.665 C 265.937 261.743,265.946 261.443,265.913 260.998 C 265.879 260.554,265.773 260.269,265.677 260.365 C 265.580 260.461,265.222 260.325,264.880 260.062 C 264.503 259.772,264.564 259.966,265.035 260.554 M255.190 262.695 C 255.193 263.770,255.269 264.163,255.358 263.569 C 255.448 262.975,255.446 262.096,255.353 261.616 C 255.260 261.135,255.187 261.621,255.190 262.695 M280.461 264.225 C 280.994 264.888,281.126 265.188,280.754 264.894 C 280.049 264.335,279.799 264.799,280.452 265.452 C 280.691 265.691,280.680 266.038,280.423 266.410 C 280.065 266.925,280.039 266.924,280.197 266.406 C 280.296 266.080,279.683 265.100,278.814 264.197 C 277.955 263.304,277.372 262.380,277.517 262.145 C 277.840 261.623,279.064 262.488,280.461 264.225 M278.675 263.477 C 279.213 264.014,279.779 264.453,279.933 264.453 C 280.088 264.453,279.801 264.014,279.297 263.477 C 278.792 262.939,278.226 262.500,278.039 262.500 C 277.852 262.500,278.138 262.939,278.675 263.477 M274.767 269.983 C 274.579 270.287,274.739 270.370,275.254 270.235 C 275.894 270.068,275.995 270.202,275.870 271.053 C 275.730 272.008,275.814 272.067,277.249 272.015 C 278.297 271.977,278.794 272.130,278.833 272.503 C 279.148 275.515,278.703 276.172,276.349 276.172 L 274.669 276.172 274.541 273.013 C 274.471 271.275,274.487 269.781,274.577 269.692 C 274.913 269.360,275.036 269.548,274.767 269.983 M291.480 271.289 C 291.383 272.126,291.489 272.656,291.754 272.656 C 291.992 272.656,292.188 273.106,292.188 273.656 C 292.188 274.223,292.018 274.551,291.797 274.414 C 291.577 274.278,291.406 274.590,291.406 275.127 C 291.406 275.706,291.138 276.151,290.723 276.261 C 290.107 276.422,290.052 276.137,290.166 273.399 C 290.268 270.952,290.420 270.325,290.947 270.186 C 291.307 270.090,291.610 269.992,291.621 269.967 C 291.631 269.942,291.568 270.537,291.480 271.289 M262.014 271.289 C 261.911 271.826,261.978 272.266,262.164 272.266 C 262.349 272.266,262.500 271.826,262.500 271.289 C 262.500 270.752,262.433 270.313,262.350 270.313 C 262.268 270.313,262.116 270.752,262.014 271.289 M263.415 273.242 C 263.417 274.961,263.485 275.615,263.568 274.697 C 263.650 273.778,263.649 272.372,263.565 271.572 C 263.481 270.772,263.414 271.523,263.415 273.242 M286.328 271.221 C 286.328 271.995,286.491 272.106,287.425 271.969 C 288.723 271.779,289.551 272.593,289.551 274.060 C 289.551 275.521,288.589 276.273,286.651 276.327 L 284.961 276.375 285.088 273.344 C 285.209 270.484,286.328 268.568,286.328 271.221 M284.222 274.244 C 284.077 277.507,281.224 279.508,280.133 277.112 C 279.763 276.302,279.799 276.282,280.883 276.691 C 281.739 277.014,282.138 277.003,282.495 276.646 C 282.866 276.274,282.747 276.172,281.942 276.172 C 280.065 276.172,279.140 274.409,280.088 272.638 C 280.405 272.046,280.889 271.899,282.405 271.933 L 284.322 271.976 284.222 274.244 M276.313 272.985 C 275.690 273.414,275.793 274.921,276.463 275.178 C 277.274 275.489,278.225 274.542,277.914 273.732 C 277.630 272.993,276.839 272.624,276.313 272.985 M281.348 272.942 C 281.079 273.035,280.859 273.518,280.859 274.014 C 280.859 275.161,282.038 275.663,282.678 274.788 C 283.454 273.727,282.579 272.512,281.348 272.942 M286.816 272.942 C 286.151 273.174,286.197 274.866,286.876 275.127 C 287.685 275.437,288.759 274.509,288.468 273.750 C 288.186 273.016,287.528 272.693,286.816 272.942 M252.214 273.307 C 251.647 273.874,251.955 276.089,252.637 276.349 C 253.185 276.557,253.224 276.511,252.832 276.117 C 252.128 275.408,252.230 274.810,252.952 275.409 C 253.286 275.686,253.529 275.752,253.491 275.554 C 253.313 274.618,253.571 274.515,254.124 275.304 C 254.458 275.781,254.942 276.167,255.198 276.160 C 255.454 276.153,255.356 275.969,254.980 275.750 C 254.604 275.531,254.297 275.085,254.297 274.759 C 254.297 274.356,254.061 274.241,253.562 274.399 C 253.106 274.544,252.743 274.415,252.607 274.060 C 252.477 273.720,252.657 273.415,253.049 273.312 C 253.603 273.166,253.610 273.130,253.092 273.092 C 252.752 273.067,252.357 273.164,252.214 273.307 M271.202 275.360 C 271.250 275.880,271.553 276.377,271.875 276.464 C 272.342 276.590,272.355 276.547,271.939 276.256 C 271.652 276.054,271.446 275.773,271.480 275.630 C 271.515 275.488,271.447 275.156,271.329 274.893 C 271.211 274.629,271.154 274.840,271.202 275.360 M268.359 275.285 C 268.682 275.407,269.074 275.701,269.232 275.937 C 269.409 276.203,269.522 276.105,269.525 275.684 C 269.529 275.224,269.243 275.010,268.652 275.031 C 268.065 275.051,267.968 275.136,268.359 275.285 M354.089 280.488 C 353.718 281.089,354.227 281.476,354.728 280.975 C 355.009 280.695,355.015 280.476,354.749 280.311 C 354.530 280.176,354.233 280.256,354.089 280.488 M353.034 281.924 C 353.736 282.011,354.791 282.009,355.378 281.920 C 355.965 281.831,355.391 281.759,354.102 281.762 C 352.813 281.764,352.332 281.837,353.034 281.924 M172.763 285.156 C 172.763 286.123,172.839 286.519,172.932 286.035 C 173.025 285.552,173.025 284.761,172.932 284.277 C 172.839 283.794,172.763 284.189,172.763 285.156 M228.622 285.156 C 228.622 286.123,228.698 286.519,228.791 286.035 C 228.884 285.552,228.884 284.761,228.791 284.277 C 228.698 283.794,228.622 284.189,228.622 285.156 M171.192 308.789 C 171.197 309.648,171.277 309.954,171.370 309.468 C 171.463 308.982,171.460 308.279,171.362 307.906 C 171.264 307.532,171.188 307.930,171.192 308.789 M227.060 308.984 C 227.060 309.951,227.136 310.347,227.229 309.863 C 227.322 309.380,227.322 308.589,227.229 308.105 C 227.136 307.622,227.060 308.018,227.060 308.984 M0.000 391.797 L 0.000 394.922 16.992 394.922 L 33.984 394.922 33.984 391.797 L 33.984 388.672 16.992 388.672 L 0.000 388.672 0.000 391.797 M7.422 391.016 C 7.422 391.445,7.598 391.797,7.813 391.797 C 8.027 391.797,8.203 391.445,8.203 391.016 C 8.203 390.586,8.382 390.234,8.601 390.234 C 8.831 390.234,8.895 390.648,8.754 391.211 C 8.603 391.813,8.675 392.188,8.942 392.188 C 9.180 392.188,9.393 391.792,9.414 391.309 C 9.451 390.471,9.466 390.475,9.739 391.406 C 10.097 392.627,9.818 393.685,9.342 392.915 C 9.169 392.635,8.902 392.531,8.749 392.684 C 8.596 392.837,8.204 392.744,7.878 392.477 C 7.376 392.065,7.319 392.120,7.505 392.842 C 7.664 393.460,7.577 393.635,7.182 393.484 C 6.884 393.369,6.641 392.767,6.641 392.146 C 6.641 391.524,6.454 391.016,6.227 391.016 C 5.999 391.016,5.922 390.840,6.055 390.625 C 6.479 389.938,7.422 390.207,7.422 391.016 M12.012 390.504 C 11.064 390.751,11.162 391.131,12.309 391.663 C 13.188 392.071,13.308 392.022,13.521 391.175 C 13.650 390.658,13.913 390.234,14.105 390.234 C 14.562 390.234,14.544 390.506,14.025 391.477 C 13.689 392.105,13.708 392.241,14.111 392.106 C 14.395 392.012,14.732 391.508,14.861 390.987 C 15.080 390.104,15.109 390.126,15.292 391.300 C 15.399 391.993,15.345 392.784,15.171 393.057 C 14.924 393.448,14.854 393.450,14.850 393.066 C 14.846 392.798,14.394 392.578,13.844 392.578 C 13.294 392.578,12.931 392.719,13.038 392.891 C 13.144 393.062,12.627 393.244,11.889 393.293 C 11.136 393.344,10.547 393.199,10.547 392.964 C 10.547 392.733,10.836 392.596,11.190 392.659 C 11.544 392.722,11.914 392.542,12.013 392.259 C 12.127 391.930,11.930 391.788,11.467 391.868 C 10.965 391.954,10.704 391.723,10.617 391.113 C 10.512 390.372,10.665 390.241,11.594 390.280 C 12.254 390.307,12.422 390.397,12.012 390.504 M17.262 391.344 C 17.351 391.954,17.357 392.657,17.273 392.906 C 17.109 393.400,16.377 393.543,16.453 393.066 C 16.605 392.099,16.348 391.006,16.016 391.211 C 15.801 391.344,15.625 391.281,15.625 391.071 C 15.625 390.727,16.204 390.345,16.850 390.265 C 16.987 390.248,17.172 390.734,17.262 391.344 M19.727 391.797 C 19.727 392.917,19.568 393.187,18.848 393.289 C 18.364 393.358,17.969 393.245,17.969 393.039 C 17.969 392.833,18.188 392.689,18.457 392.719 C 18.726 392.749,18.978 392.598,19.017 392.383 C 19.057 392.168,18.793 392.041,18.431 392.100 C 17.833 392.199,17.835 392.160,18.457 391.667 C 19.294 391.003,19.353 390.460,18.555 390.766 C 18.232 390.890,17.969 390.809,17.969 390.586 C 17.969 390.363,18.364 390.236,18.848 390.305 C 19.568 390.407,19.727 390.676,19.727 391.797 M22.680 391.458 C 23.021 392.735,22.597 393.480,21.633 393.296 C 20.873 393.151,20.466 391.806,20.866 390.763 C 21.212 389.862,22.372 390.306,22.680 391.458 M25.348 391.107 L 25.671 391.979 25.948 391.107 C 26.150 390.468,26.505 390.249,27.272 390.288 C 28.193 390.334,28.214 390.361,27.441 390.510 C 26.338 390.723,26.305 391.248,27.378 391.528 C 28.497 391.821,28.197 393.036,26.921 393.378 C 26.207 393.569,25.911 393.496,25.911 393.129 C 25.911 392.844,26.190 392.647,26.530 392.692 C 26.870 392.737,27.148 392.598,27.148 392.383 C 27.148 391.870,25.343 391.842,24.669 392.344 C 24.244 392.662,24.281 392.791,24.864 393.021 C 25.381 393.224,25.198 393.309,24.219 393.319 L 22.852 393.333 23.730 392.600 C 24.731 391.766,24.942 390.522,24.023 390.874 C 23.701 390.998,23.438 390.905,23.438 390.667 C 23.438 389.853,25.019 390.217,25.348 391.107 M30.859 390.820 C 31.127 391.143,31.178 391.406,30.974 391.406 C 30.769 391.406,30.616 391.796,30.633 392.273 C 30.653 392.820,30.396 393.194,29.939 393.286 C 28.971 393.482,28.255 392.762,29.096 392.439 C 29.464 392.298,29.628 392.358,29.489 392.583 C 29.358 392.795,29.437 392.969,29.664 392.969 C 30.252 392.969,30.180 391.803,29.590 391.766 C 29.199 391.741,29.199 391.696,29.590 391.538 C 30.434 391.198,30.123 390.558,29.248 390.836 C 28.689 391.013,28.505 390.958,28.685 390.667 C 29.068 390.047,30.289 390.134,30.859 390.820 M21.327 392.126 C 21.192 392.345,21.271 392.642,21.504 392.786 C 22.105 393.157,22.492 392.648,21.991 392.147 C 21.710 391.866,21.492 391.860,21.327 392.126 " stroke="none" fill="#bcbcbc" fill-rule="evenodd"></path></g></svg>