<svg id="svg" version="1.1" xmlns="http://www.w3.org/2000/svg" xmlns:xlink="http://www.w3.org/1999/xlink" width="400" height="400" viewBox="0, 0, 400,400"><g id="svgg"><path id="path0" d="M198.438 110.547 C 197.718 111.267,197.656 111.849,197.656 117.969 C 197.656 121.621,197.502 124.609,197.314 124.609 C 197.126 124.609,194.974 123.011,192.532 121.057 C 187.031 116.655,186.945 116.608,185.524 117.197 C 182.223 118.564,183.997 120.734,195.990 129.998 L 197.656 131.286 197.656 140.643 C 197.656 147.873,197.545 149.998,197.168 149.991 C 196.596 149.981,183.329 142.359,181.884 141.211 C 180.985 140.496,180.814 139.833,179.879 133.398 C 178.357 122.938,177.711 121.558,175.126 123.251 C 173.675 124.202,173.643 124.667,174.597 130.862 C 175.085 134.035,175.420 136.820,175.340 137.051 C 175.261 137.283,172.563 135.985,169.346 134.167 C 163.510 130.870,162.783 130.649,161.406 131.753 C 159.555 133.236,160.870 134.808,166.895 138.314 C 170.064 140.159,172.749 141.760,172.861 141.872 C 172.974 141.984,170.405 143.105,167.152 144.363 C 160.688 146.862,159.667 147.639,160.486 149.436 C 161.456 151.565,162.144 151.484,170.356 148.277 C 174.531 146.646,178.177 145.313,178.459 145.313 C 179.028 145.313,194.923 154.357,194.920 154.679 C 194.913 155.616,178.655 164.114,177.565 163.750 C 176.906 163.530,173.379 162.196,169.727 160.784 C 162.215 157.881,162.166 157.872,161.006 159.107 C 159.033 161.207,160.162 162.272,167.301 165.043 C 170.478 166.277,173.003 167.362,172.911 167.454 C 172.818 167.546,170.131 169.151,166.938 171.020 C 161.586 174.152,161.124 174.513,161.014 175.636 C 160.774 178.100,163.015 178.834,165.820 177.212 C 166.680 176.715,169.118 175.302,171.238 174.073 C 175.884 171.378,175.650 171.197,174.816 176.843 C 173.652 184.720,173.653 184.706,174.423 185.556 C 175.119 186.326,176.340 186.539,177.503 186.093 C 178.316 185.781,178.661 184.325,179.899 175.977 C 181.139 167.614,180.518 168.824,184.882 166.265 C 195.315 160.149,197.233 159.082,197.435 159.284 C 197.557 159.406,197.656 163.658,197.656 168.734 L 197.656 177.963 191.036 183.336 C 184.123 188.947,183.525 189.670,184.528 191.200 C 185.939 193.355,186.450 193.162,192.818 188.077 C 195.099 186.256,197.121 184.766,197.311 184.766 C 197.501 184.766,197.656 187.754,197.656 191.406 C 197.656 198.505,197.960 199.609,199.913 199.609 C 202.131 199.609,202.344 198.914,202.344 191.645 C 202.344 187.933,202.446 184.793,202.571 184.668 C 202.697 184.543,204.938 186.152,207.552 188.245 C 213.484 192.993,215.180 193.511,215.865 190.782 C 216.258 189.215,215.678 188.549,209.844 183.876 C 206.686 181.346,203.706 178.945,203.223 178.540 C 202.328 177.791,201.779 159.745,202.637 159.253 C 203.657 158.667,218.953 168.416,219.236 169.832 C 219.397 170.633,219.974 174.256,220.519 177.882 C 221.786 186.310,222.426 187.441,225.141 186.053 C 226.441 185.389,226.449 184.283,225.214 176.430 C 224.848 174.101,224.635 172.110,224.741 172.004 C 224.847 171.898,227.378 173.232,230.367 174.968 C 237.146 178.907,239.063 179.111,239.063 175.894 C 239.063 174.436,238.319 173.871,231.162 169.888 C 226.496 167.291,226.414 167.505,233.079 164.868 C 240.138 162.075,241.556 160.618,238.976 158.811 C 237.697 157.915,237.555 157.950,229.492 161.130 C 220.581 164.645,222.077 164.614,216.518 161.402 C 213.986 159.938,210.456 157.897,208.674 156.865 C 206.891 155.833,205.493 154.810,205.566 154.591 C 205.737 154.079,220.715 145.354,221.465 145.330 C 221.776 145.321,225.457 146.642,229.643 148.266 C 237.694 151.390,238.728 151.553,239.516 149.823 C 240.492 147.680,239.882 147.133,233.844 144.728 C 227.963 142.387,226.887 141.848,227.541 141.571 C 227.757 141.480,230.394 139.951,233.400 138.175 L 238.867 134.944 238.867 133.395 C 238.867 130.138,237.602 130.258,230.782 134.160 C 227.545 136.012,224.819 137.449,224.723 137.353 C 224.627 137.257,224.848 135.274,225.214 132.945 C 226.478 124.906,226.459 123.997,225.014 123.249 C 222.218 121.804,221.846 122.542,220.306 132.594 C 218.922 141.623,219.408 140.727,214.330 143.618 C 212.142 144.864,208.779 146.809,206.856 147.942 C 201.941 150.836,202.344 151.484,202.344 140.694 L 202.344 131.387 208.851 126.143 C 215.950 120.421,216.245 120.108,215.888 118.687 C 215.408 116.774,213.173 116.361,211.494 117.876 C 209.418 119.748,203.105 124.609,202.750 124.609 C 202.484 124.609,202.344 122.262,202.344 117.834 C 202.344 111.766,202.269 110.991,201.629 110.412 C 200.669 109.543,199.387 109.597,198.438 110.547 M94.396 126.496 C 93.805 127.149,93.750 130.123,93.750 161.239 L 93.750 195.268 94.618 195.876 C 95.356 196.393,97.216 196.484,107.045 196.484 C 121.055 196.484,120.313 196.759,120.313 191.586 L 120.313 188.281 126.015 188.281 C 132.536 188.281,133.847 188.660,135.361 190.979 L 136.277 192.383 136.429 221.289 C 136.613 256.107,136.939 258.650,142.819 271.065 C 163.583 314.906,223.214 320.703,251.411 281.622 C 255.200 276.369,255.263 276.243,254.519 275.420 C 253.168 273.927,254.200 271.875,256.302 271.875 C 257.366 271.875,257.579 271.638,258.673 269.238 C 259.898 266.553,260.010 265.777,259.549 263.181 C 259.257 261.534,259.998 259.992,261.278 259.586 C 263.169 258.986,263.406 255.171,263.576 222.656 C 263.770 185.480,262.922 188.281,273.979 188.281 L 279.688 188.281 279.688 191.533 C 279.688 196.736,279.007 196.484,293.109 196.484 L 304.723 196.484 305.682 195.526 L 306.641 194.567 306.641 161.203 C 306.641 128.042,306.636 127.834,305.831 126.810 L 305.021 125.781 293.136 125.781 C 278.833 125.781,279.687 125.471,279.688 130.664 L 279.688 133.984 270.410 133.987 C 251.535 133.991,237.011 138.442,241.781 142.759 C 242.707 143.597,243.546 143.472,247.963 141.835 C 254.183 139.530,257.711 139.024,269.238 138.785 L 279.688 138.569 279.688 160.845 L 279.688 183.121 273.535 183.274 C 265.145 183.482,262.304 184.834,259.879 189.773 L 258.789 191.992 258.566 221.680 C 258.372 247.485,258.257 251.750,257.687 254.297 C 256.745 258.511,256.799 259.375,258.008 259.375 C 258.724 259.375,258.984 259.583,258.984 260.156 C 258.984 260.734,258.724 260.938,257.985 260.938 C 256.563 260.938,256.676 264.180,258.105 264.383 C 258.670 264.463,258.984 264.777,258.984 265.262 C 258.984 266.317,256.905 266.280,255.830 265.205 C 255.067 264.442,255.009 264.436,254.831 265.108 C 254.727 265.500,254.058 267.139,253.345 268.750 L 252.048 271.680 252.977 271.803 C 254.100 271.953,254.230 273.047,253.125 273.047 C 252.474 273.047,252.344 273.307,252.344 274.609 C 252.344 275.911,252.214 276.172,251.563 276.172 C 250.972 276.172,250.780 275.910,250.775 275.098 C 250.770 274.046,250.760 274.041,250.287 274.874 C 249.365 276.501,245.929 281.064,244.457 282.617 C 243.643 283.477,242.975 284.302,242.973 284.450 C 242.964 285.046,235.538 291.268,232.422 293.292 C 197.239 316.134,152.136 297.118,142.502 255.379 C 141.700 251.906,141.656 250.535,141.416 221.875 C 141.160 191.433,141.140 191.055,139.628 188.672 C 136.973 184.487,134.442 183.448,126.465 183.271 L 120.313 183.134 120.313 160.903 L 120.313 138.672 128.084 138.672 C 140.211 138.672,146.351 139.536,153.158 142.200 C 157.507 143.902,159.171 143.528,158.908 140.908 C 158.523 137.079,147.636 134.367,131.543 134.091 L 120.313 133.898 120.313 130.448 C 120.313 125.487,121.164 125.781,106.810 125.781 C 95.906 125.781,94.996 125.834,94.396 126.496 M115.530 161.035 L 115.630 191.406 107.034 191.406 L 98.438 191.406 98.438 160.930 L 98.438 130.454 106.934 130.559 L 115.430 130.664 115.530 161.035 M301.563 160.938 L 301.563 191.406 293.066 191.406 L 284.570 191.406 284.666 161.035 C 284.718 144.331,284.762 130.620,284.763 130.566 C 284.765 130.513,288.545 130.469,293.164 130.469 L 301.563 130.469 301.563 160.938 M233.774 194.166 C 230.339 195.165,227.568 199.165,227.568 203.125 C 227.568 213.492,242.283 216.068,245.638 206.289 C 248.160 198.938,241.337 191.966,233.774 194.166 M238.825 199.030 C 242.392 200.722,242.195 205.771,238.504 207.248 C 235.378 208.499,232.422 206.460,232.422 203.054 C 232.422 199.548,235.646 197.521,238.825 199.030 M186.546 200.087 C 185.762 201.206,185.620 244.853,186.390 247.972 C 189.476 260.463,207.058 262.107,212.788 250.439 L 213.867 248.242 213.977 224.458 C 214.097 198.227,214.186 199.219,211.706 199.219 C 209.525 199.219,209.587 198.573,209.375 223.821 L 209.180 247.133 207.999 249.043 C 204.178 255.221,195.086 254.988,191.812 248.628 L 190.820 246.701 190.713 223.664 C 190.618 203.005,190.541 200.555,189.969 199.923 C 189.074 198.934,187.293 199.019,186.546 200.087 M165.133 207.980 C 159.217 210.091,157.875 217.591,162.662 221.793 C 168.595 227.003,177.805 221.052,175.592 213.439 C 174.249 208.821,169.591 206.389,165.133 207.980 M170.215 213.403 C 172.295 215.285,170.713 218.750,167.773 218.750 C 166.401 218.750,165.916 218.551,165.263 217.721 C 162.613 214.352,167.019 210.511,170.215 213.403 M226.294 236.307 C 225.350 236.735,224.160 237.737,223.481 238.674 C 217.806 246.509,228.749 255.314,235.232 248.130 C 240.671 242.102,233.736 232.928,226.294 236.307 M157.183 237.627 C 150.676 240.082,148.752 247.917,153.441 252.868 C 158.442 258.148,167.554 255.632,169.196 248.517 C 170.795 241.589,163.709 235.166,157.183 237.627 M231.738 241.466 C 232.695 242.597,232.589 244.009,231.463 245.135 C 229.336 247.262,225.993 245.109,226.989 242.253 C 227.707 240.194,230.298 239.764,231.738 241.466 M162.377 242.559 C 167.262 245.537,163.171 252.949,158.080 250.345 C 154.150 248.335,155.738 241.800,160.156 241.800 C 160.693 241.800,161.693 242.141,162.377 242.559 M233.797 257.655 C 227.817 259.844,226.235 267.812,230.909 272.202 C 234.906 275.957,241.647 275.157,244.285 270.614 C 245.404 268.688,246.026 266.016,245.356 266.016 C 245.099 266.016,244.921 265.260,244.920 264.160 C 244.916 259.136,239.078 255.722,233.797 257.655 M301.552 259.259 C 299.421 262.620,296.024 272.549,297.132 272.180 C 297.476 272.065,297.656 272.371,297.656 273.070 C 297.656 273.297,297.480 273.375,297.266 273.242 C 296.730 272.911,296.772 273.569,297.322 274.119 C 297.658 274.454,297.648 274.859,297.282 275.743 C 297.013 276.390,296.797 277.059,296.801 277.229 C 296.805 277.400,296.643 277.738,296.441 277.982 C 295.544 279.063,297.352 278.806,298.648 277.668 C 300.020 276.464,300.024 276.451,299.164 276.020 C 298.009 275.442,297.570 273.735,298.306 272.684 C 299.096 271.556,301.311 271.579,302.113 272.724 C 302.685 273.541,302.717 273.545,302.985 272.821 C 303.138 272.408,303.452 271.941,303.682 271.783 C 303.964 271.590,303.941 271.494,303.613 271.490 C 303.345 271.487,303.125 271.200,303.125 270.853 C 303.125 270.419,303.363 270.284,303.888 270.421 C 304.800 270.659,305.456 269.765,306.382 267.020 C 307.144 264.760,307.149 264.725,306.641 265.039 C 306.421 265.175,306.250 264.864,306.250 264.330 C 306.250 262.457,303.902 257.441,303.019 257.427 C 302.853 257.424,302.193 258.248,301.552 259.259 M239.614 263.311 C 241.009 264.969,240.965 266.795,239.490 268.445 C 236.537 271.750,231.322 268.077,233.364 264.129 C 234.622 261.696,237.894 261.268,239.614 263.311 M180.729 269.013 C 169.276 272.972,172.003 290.249,184.078 290.231 C 197.846 290.209,198.590 269.703,184.865 268.549 C 183.344 268.422,182.007 268.572,180.729 269.013 M255.664 273.047 C 255.531 273.262,255.795 273.438,256.250 273.438 C 256.705 273.438,256.969 273.262,256.836 273.047 C 256.703 272.832,256.439 272.656,256.250 272.656 C 256.061 272.656,255.797 272.832,255.664 273.047 M187.368 274.258 C 192.476 277.415,190.233 285.272,184.208 285.331 C 178.231 285.389,175.847 277.646,180.819 274.324 C 182.582 273.147,185.522 273.117,187.368 274.258 M299.438 274.648 C 299.714 275.095,300.813 275.092,301.522 274.642 C 301.897 274.405,301.621 274.297,300.645 274.297 C 299.862 274.297,299.319 274.455,299.438 274.648 " stroke="none" fill="#31375e" fill-rule="evenodd"></path><path id="path1" d="M0.000 194.336 L 0.000 388.672 17.578 388.672 L 35.156 388.672 35.156 391.797 L 35.156 394.922 17.578 394.922 L 0.000 394.922 0.000 397.461 L 0.000 400.000 200.000 400.000 L 400.000 400.000 400.000 341.016 L 400.000 282.031 325.826 282.031 L 251.651 282.031 249.457 284.713 C 215.445 326.286,149.930 309.959,137.594 256.836 L 136.596 252.539 136.365 222.656 C 136.078 185.760,136.889 188.477,126.172 188.477 L 120.898 188.477 120.696 191.843 C 120.394 196.866,121.517 196.484,107.044 196.484 C 95.535 196.484,94.606 196.433,94.006 195.770 C 93.415 195.117,93.359 192.143,93.359 161.033 L 93.359 127.010 94.389 126.200 C 95.378 125.422,95.873 125.391,107.102 125.391 L 118.786 125.391 119.744 126.349 C 120.601 127.206,120.703 127.638,120.703 130.400 L 120.703 133.491 131.348 133.706 C 142.719 133.935,145.598 134.316,152.256 136.472 C 158.973 138.646,160.048 139.532,159.131 142.138 C 158.511 143.901,157.102 144.041,153.640 142.685 C 146.456 139.869,141.209 139.080,129.590 139.070 L 120.703 139.063 120.703 161.100 L 120.703 183.137 127.246 183.271 C 135.692 183.444,138.251 184.732,140.697 190.039 L 141.597 191.992 141.824 222.266 C 142.075 255.719,141.968 254.257,144.752 262.355 C 159.383 304.916,212.679 316.605,242.926 283.887 L 244.642 282.031 241.852 282.031 L 239.063 282.031 239.062 278.418 L 239.062 274.805 236.579 274.777 C 224.889 274.646,225.092 257.037,236.785 256.927 L 239.063 256.905 239.063 254.234 L 239.063 251.563 248.575 251.563 L 258.087 251.563 258.338 248.340 C 258.476 246.567,258.590 233.239,258.591 218.722 C 258.594 188.501,258.447 189.940,261.889 186.498 C 264.728 183.658,266.334 183.203,273.507 183.203 L 279.297 183.203 279.297 161.088 L 279.297 138.973 268.652 139.174 C 256.259 139.409,253.109 139.962,244.698 143.381 C 243.129 144.019,241.681 143.626,241.016 142.383 C 238.549 137.773,250.537 134.058,269.043 133.696 C 276.245 133.555,279.300 133.365,279.307 133.056 C 279.509 124.681,278.222 125.391,293.207 125.391 C 304.557 125.391,305.112 125.425,305.859 126.172 C 307.031 127.344,307.096 194.779,305.926 195.838 C 305.293 196.411,303.805 196.484,292.854 196.484 L 280.496 196.484 280.015 195.605 C 279.751 195.122,279.486 193.422,279.428 191.828 C 279.297 188.236,279.313 188.247,274.219 188.343 C 267.676 188.466,265.637 189.257,264.310 192.188 C 263.999 192.874,263.809 201.843,263.672 222.363 L 263.477 251.563 331.738 251.563 L 400.000 251.563 400.000 125.781 L 400.000 0.000 200.000 0.000 L 0.000 0.000 0.000 194.336 M201.705 110.185 L 202.734 110.994 202.734 117.606 C 202.734 121.243,202.838 124.219,202.964 124.219 C 203.090 124.219,205.065 122.690,207.353 120.822 C 213.279 115.984,214.989 115.464,216.023 118.184 C 216.742 120.074,216.124 120.814,209.353 126.178 L 202.734 131.421 202.734 140.678 L 202.734 149.934 210.645 145.407 C 214.995 142.918,218.597 140.854,218.649 140.822 C 218.701 140.789,219.337 137.035,220.063 132.480 C 221.512 123.382,221.809 122.656,224.075 122.656 C 226.627 122.656,226.850 123.704,225.788 130.704 C 225.285 134.014,224.947 136.789,225.035 136.870 C 225.123 136.951,227.568 135.634,230.469 133.943 C 237.220 130.008,239.740 129.927,239.383 133.655 C 239.242 135.124,238.639 135.586,231.640 139.593 L 227.643 141.881 229.153 142.546 C 229.984 142.911,232.472 143.884,234.682 144.706 C 240.125 146.733,241.437 148.442,239.238 150.641 C 238.002 151.877,238.217 151.926,228.833 148.271 L 221.534 145.427 216.333 148.412 C 207.239 153.632,205.859 154.458,205.859 154.686 C 205.859 155.035,221.009 163.672,221.621 163.672 C 221.922 163.672,223.640 163.084,225.439 162.366 C 238.218 157.266,238.813 157.152,239.929 159.601 C 240.938 161.816,240.053 162.528,232.877 165.281 C 230.013 166.379,227.815 167.420,227.995 167.592 C 228.174 167.765,230.254 168.995,232.617 170.325 C 238.617 173.703,239.453 174.380,239.453 175.868 C 239.453 179.409,237.281 179.297,230.577 175.410 C 227.631 173.703,225.143 172.383,225.048 172.478 C 224.952 172.574,225.285 175.361,225.788 178.671 C 226.850 185.671,226.627 186.719,224.075 186.719 C 221.917 186.719,221.476 185.821,220.479 179.401 C 219.987 176.228,219.388 172.490,219.147 171.094 L 218.710 168.555 212.599 165.039 C 209.238 163.105,205.644 161.036,204.611 160.441 L 202.734 159.359 202.739 168.644 L 202.743 177.930 209.350 183.158 C 216.094 188.493,216.751 189.276,216.046 191.131 C 215.066 193.709,213.013 193.150,207.741 188.865 C 205.232 186.825,203.078 185.156,202.956 185.156 C 202.834 185.156,202.734 188.117,202.734 191.736 C 202.734 199.074,202.505 199.740,199.976 199.740 C 197.691 199.740,197.482 199.122,197.266 191.724 L 197.070 185.036 192.384 188.807 C 186.606 193.457,183.984 193.831,183.984 190.006 C 183.984 188.447,183.663 188.769,191.142 182.842 L 197.266 177.988 197.266 168.659 L 197.266 159.331 195.605 160.333 C 194.692 160.884,191.110 162.960,187.644 164.945 L 181.342 168.555 180.726 172.461 C 180.387 174.609,179.814 178.301,179.452 180.664 C 178.731 185.378,178.006 186.719,176.178 186.719 C 173.436 186.719,173.165 185.059,174.553 176.758 C 175.426 171.534,175.699 171.796,171.802 174.119 C 163.777 178.901,162.824 179.230,161.328 177.734 C 159.355 175.761,160.449 174.297,166.406 170.941 C 173.313 167.050,173.238 167.617,167.157 165.284 C 159.895 162.498,159.105 161.836,160.233 159.482 C 161.349 157.154,161.463 157.177,175.092 162.570 C 176.754 163.228,178.445 163.679,178.851 163.573 C 180.055 163.258,194.155 154.925,194.044 154.593 C 193.882 154.107,179.192 145.703,178.504 145.703 C 178.162 145.703,176.751 146.156,175.367 146.709 C 162.737 151.760,160.705 152.141,160.036 149.583 C 159.453 147.351,160.270 146.680,166.406 144.354 C 169.092 143.336,171.536 142.366,171.838 142.198 C 172.219 141.986,170.843 140.999,167.346 138.972 C 160.360 134.926,159.566 133.996,161.155 131.728 C 162.370 129.992,163.719 130.440,171.802 135.256 C 175.713 137.587,175.463 137.803,174.619 132.813 C 173.067 123.630,173.233 122.656,176.358 122.656 C 178.144 122.656,178.683 123.559,179.273 127.539 C 181.424 142.042,180.849 140.517,185.070 142.911 C 186.944 143.973,190.454 145.990,192.871 147.393 L 197.266 149.943 197.266 140.668 L 197.266 131.393 192.910 127.936 C 183.519 120.481,182.921 119.774,184.283 117.734 C 185.640 115.703,186.971 116.176,192.607 120.693 L 197.070 124.270 197.266 117.702 C 197.469 110.859,197.584 110.320,198.966 109.763 C 200.236 109.251,200.586 109.304,201.705 110.185 M98.828 161.133 L 98.828 191.406 107.031 191.406 L 115.234 191.406 115.234 161.133 L 115.234 130.859 107.031 130.859 L 98.828 130.859 98.828 161.133 M284.861 161.035 L 284.961 191.211 293.164 191.211 L 301.367 191.211 301.467 161.035 L 301.567 130.859 293.164 130.859 L 284.761 130.859 284.861 161.035 M241.239 194.452 C 248.893 198.387,247.888 209.866,239.675 212.316 C 231.021 214.898,223.828 205.154,228.901 197.720 C 231.643 193.703,237.015 192.280,241.239 194.452 M189.898 199.575 L 190.820 200.321 191.016 223.696 L 191.211 247.070 192.260 248.856 C 196.160 255.488,206.118 254.540,208.540 247.305 C 208.852 246.373,208.984 239.230,208.984 223.361 L 208.984 200.746 209.943 199.787 C 211.215 198.515,213.173 198.687,214.154 200.156 C 214.922 201.306,214.480 246.316,213.676 248.885 C 209.476 262.304,189.966 261.829,186.202 248.217 C 185.624 246.125,185.547 243.189,185.547 223.147 L 185.547 200.447 186.576 199.638 C 187.855 198.632,188.713 198.615,189.898 199.575 M234.719 199.415 C 234.157 199.721,233.410 200.575,233.059 201.314 C 230.941 205.777,236.838 209.593,240.016 205.816 C 243.040 202.222,238.857 197.167,234.719 199.415 M172.053 208.326 C 177.099 211.113,177.622 218.906,172.988 222.263 C 167.144 226.497,159.579 222.751,159.579 215.625 C 159.579 208.968,166.200 205.094,172.053 208.326 M166.602 212.951 C 164.563 214.066,164.234 216.269,165.877 217.792 C 168.801 220.502,172.567 216.282,169.744 213.459 C 168.708 212.422,167.828 212.280,166.602 212.951 M232.337 235.763 C 236.845 237.646,238.652 242.456,236.486 246.804 C 233.391 253.014,224.251 252.267,222.044 245.623 C 219.979 239.407,226.380 233.275,232.337 235.763 M163.238 237.365 C 169.632 239.430,171.851 247.737,167.342 252.728 C 163.836 256.609,157.366 257.021,153.781 253.593 C 146.230 246.371,153.341 234.168,163.238 237.365 M227.912 241.584 C 226.742 242.754,226.714 243.340,227.763 244.674 C 229.195 246.495,232.031 245.492,232.031 243.164 C 232.031 240.890,229.556 239.940,227.912 241.584 M158.326 242.759 C 154.384 244.474,155.812 250.568,160.156 250.568 C 161.548 250.568,161.995 250.350,163.124 249.118 C 166.338 245.611,162.738 240.840,158.326 242.759 M245.063 257.227 C 244.754 258.033,245.173 258.984,245.838 258.984 C 246.141 258.984,246.608 258.721,246.875 258.398 C 247.438 257.720,246.801 256.641,245.838 256.641 C 245.536 256.641,245.187 256.904,245.063 257.227 M248.615 257.599 C 247.031 259.184,247.635 260.672,250.362 261.901 C 252.995 263.089,252.167 265.147,249.466 264.128 C 247.606 263.426,246.665 264.513,248.370 265.395 C 251.332 266.927,254.093 265.244,253.366 262.349 C 253.212 261.734,252.526 261.133,251.345 260.578 C 249.103 259.523,249.051 258.398,251.245 258.398 C 253.023 258.398,253.549 257.917,252.561 257.195 C 251.396 256.343,249.698 256.517,248.615 257.599 M273.438 261.328 C 273.438 265.755,273.481 266.016,274.219 266.016 C 274.859 266.016,275.000 265.755,275.000 264.569 L 275.000 263.123 276.481 264.569 C 277.804 265.860,279.688 266.527,279.688 265.704 C 279.688 265.533,278.980 264.702,278.115 263.857 L 276.542 262.322 278.017 261.058 L 279.492 259.795 278.283 259.780 C 277.556 259.771,276.793 260.077,276.367 260.547 C 275.251 261.780,275.000 261.493,275.000 258.984 C 275.000 256.901,274.913 256.641,274.219 256.641 C 273.481 256.641,273.438 256.901,273.438 261.328 M255.398 258.691 C 255.318 259.256,254.959 259.615,254.395 259.695 C 253.190 259.866,253.257 260.938,254.472 260.938 C 255.349 260.938,255.438 261.106,255.546 262.975 C 255.672 265.158,256.902 266.449,258.331 265.900 C 259.174 265.577,258.739 264.453,257.771 264.453 C 257.155 264.453,257.031 264.160,257.031 262.695 C 257.031 261.081,257.111 260.938,258.008 260.938 C 258.615 260.938,258.984 260.716,258.984 260.352 C 258.984 259.987,258.615 259.766,258.008 259.766 C 257.227 259.766,257.031 259.570,257.031 258.789 C 257.031 257.491,255.581 257.404,255.398 258.691 M245.203 259.890 C 244.748 261.109,245.516 265.813,246.191 265.942 C 246.798 266.058,246.875 265.707,246.875 262.807 C 246.875 259.674,245.912 257.993,245.203 259.890 M261.510 259.747 C 259.320 260.634,258.803 263.160,260.471 264.828 C 261.788 266.145,262.773 266.298,264.425 265.444 C 267.875 263.660,265.123 258.282,261.510 259.747 M268.541 259.747 C 265.513 260.974,266.469 266.016,269.730 266.016 C 270.784 266.016,272.656 265.256,272.656 264.829 C 272.656 264.047,271.526 263.639,270.732 264.135 C 269.666 264.801,268.599 264.163,268.431 262.757 C 268.277 261.466,269.900 260.499,270.870 261.304 C 271.537 261.858,272.266 261.548,272.266 260.709 C 272.266 259.698,270.064 259.129,268.541 259.747 M264.197 261.786 C 264.836 262.806,263.922 264.453,262.717 264.453 C 261.153 264.453,260.448 262.655,261.572 261.531 C 262.338 260.764,263.636 260.891,264.197 261.786 M235.113 262.695 C 231.578 264.616,233.991 270.638,237.764 269.316 C 238.825 268.944,238.872 268.818,238.984 266.016 C 239.136 262.215,237.918 261.170,235.113 262.695 M188.882 269.283 C 193.981 271.658,196.661 278.151,194.665 283.293 C 190.004 295.300,172.214 291.390,173.135 278.561 C 173.693 270.786,181.823 265.996,188.882 269.283 M262.500 271.235 C 262.500 272.012,262.344 272.127,261.510 271.968 C 259.684 271.619,258.337 273.762,259.362 275.383 C 259.587 275.738,260.415 275.985,261.505 276.022 L 263.281 276.081 263.281 273.197 C 263.281 271.534,263.116 270.313,262.891 270.313 C 262.676 270.313,262.500 270.728,262.500 271.235 M264.453 270.931 C 264.453 271.271,264.662 271.480,264.917 271.395 C 265.641 271.153,265.761 270.313,265.072 270.313 C 264.731 270.313,264.453 270.591,264.453 270.931 M280.078 273.242 C 280.078 275.586,280.195 276.172,280.664 276.172 C 281.133 276.172,281.250 275.586,281.250 273.242 C 281.250 270.898,281.133 270.313,280.664 270.313 C 280.195 270.313,280.078 270.898,280.078 273.242 M282.302 270.562 C 281.990 270.874,282.343 271.484,282.836 271.484 C 283.038 271.484,283.203 271.221,283.203 270.898 C 283.203 270.294,282.742 270.122,282.302 270.562 M289.063 273.242 C 289.063 275.586,289.180 276.172,289.648 276.172 C 289.971 276.172,290.234 275.831,290.234 275.414 C 290.234 274.231,290.867 274.129,291.568 275.199 C 291.919 275.734,292.486 276.172,292.829 276.172 C 293.325 276.172,293.249 275.906,292.455 274.865 L 291.459 273.559 292.301 272.717 C 293.446 271.572,292.358 271.579,291.138 272.724 L 290.234 273.574 290.234 271.943 C 290.234 270.754,290.076 270.313,289.648 270.313 C 289.180 270.313,289.063 270.898,289.063 273.242 M326.172 273.242 C 326.172 276.222,326.915 277.369,327.500 275.293 L 327.748 274.414 328.512 275.324 C 329.675 276.707,330.813 276.319,329.707 274.916 C 328.913 273.909,328.904 273.804,329.519 272.865 C 330.353 271.593,329.547 271.504,328.248 272.724 L 327.344 273.574 327.344 271.943 C 327.344 270.754,327.185 270.313,326.758 270.313 C 326.289 270.313,326.172 270.898,326.172 273.242 M246.094 271.484 C 244.422 273.156,245.648 276.172,247.999 276.172 C 248.617 276.172,249.345 275.904,249.617 275.576 C 250.283 274.774,249.865 274.445,248.862 274.982 C 247.552 275.683,246.410 274.856,246.559 273.314 C 246.674 272.124,246.751 272.072,248.340 272.104 C 249.411 272.126,250.000 271.967,250.000 271.658 C 250.000 270.500,247.202 270.376,246.094 271.484 M266.797 271.257 C 266.797 271.561,266.577 271.912,266.309 272.038 C 265.918 272.220,265.918 272.311,266.309 272.493 C 266.577 272.619,266.797 273.287,266.797 273.978 C 266.797 274.669,267.008 275.445,267.266 275.703 C 267.925 276.363,269.141 276.287,269.141 275.586 C 269.141 275.264,268.921 275.044,268.652 275.098 C 268.360 275.156,268.115 274.686,268.042 273.926 C 267.951 272.983,268.076 272.656,268.530 272.656 C 268.866 272.656,269.141 272.480,269.141 272.266 C 269.141 272.051,268.877 271.875,268.555 271.875 C 268.232 271.875,267.969 271.611,267.969 271.289 C 267.969 270.967,267.705 270.703,267.383 270.703 C 267.061 270.703,266.797 270.952,266.797 271.257 M275.818 271.582 C 275.634 272.065,275.199 273.142,274.851 273.973 C 274.062 275.860,274.061 276.172,274.841 276.172 C 275.184 276.172,275.556 275.820,275.668 275.391 C 275.963 274.262,278.125 274.471,278.125 275.628 C 278.125 275.927,278.495 276.172,278.948 276.172 C 279.576 276.172,279.706 276.010,279.496 275.488 C 279.345 275.112,278.862 273.882,278.423 272.754 C 277.549 270.505,276.421 269.998,275.818 271.582 M307.422 273.438 L 307.422 276.213 309.432 276.095 C 311.618 275.966,312.458 275.253,311.926 273.979 C 311.757 273.574,311.597 272.715,311.571 272.070 C 311.525 270.939,311.452 270.894,309.473 270.780 L 307.422 270.662 307.422 273.438 M310.474 272.363 C 310.571 272.871,310.346 273.047,309.599 273.047 C 308.843 273.047,308.594 272.846,308.594 272.238 C 308.594 271.215,310.276 271.327,310.474 272.363 M250.936 272.792 C 251.060 273.254,251.164 274.204,251.167 274.902 C 251.169 275.601,251.348 276.172,251.563 276.172 C 251.777 276.172,251.953 275.469,251.953 274.609 C 251.953 273.171,252.214 272.841,253.223 273.001 C 253.384 273.026,253.516 272.818,253.516 272.538 C 253.516 272.223,252.984 272.015,252.113 271.990 C 250.859 271.955,250.734 272.040,250.936 272.792 M254.980 272.297 C 252.793 273.571,255.154 276.868,257.585 275.935 C 258.655 275.524,258.263 274.925,257.093 275.182 C 256.333 275.349,255.826 275.235,255.483 274.822 C 255.044 274.293,255.204 274.219,256.788 274.219 C 258.763 274.219,259.005 273.849,257.813 272.656 C 256.956 271.800,256.034 271.683,254.980 272.297 M264.453 274.023 C 264.453 275.673,264.589 276.172,265.039 276.172 C 265.489 276.172,265.625 275.673,265.625 274.023 C 265.625 272.374,265.489 271.875,265.039 271.875 C 264.589 271.875,264.453 272.374,264.453 274.023 M269.922 272.461 C 269.922 272.783,270.186 273.047,270.508 273.047 C 270.830 273.047,271.094 272.783,271.094 272.461 C 271.094 272.139,270.830 271.875,270.508 271.875 C 270.186 271.875,269.922 272.139,269.922 272.461 M282.031 274.023 C 282.031 275.673,282.167 276.172,282.617 276.172 C 283.067 276.172,283.203 275.673,283.203 274.023 C 283.203 272.374,283.067 271.875,282.617 271.875 C 282.167 271.875,282.031 272.374,282.031 274.023 M284.635 272.135 C 284.023 272.747,284.460 273.090,285.547 272.852 C 286.239 272.699,286.719 272.754,286.719 272.985 C 286.719 273.200,286.206 273.488,285.580 273.626 C 284.304 273.906,283.752 274.835,284.397 275.613 C 284.877 276.191,288.672 276.307,288.672 275.744 C 288.672 275.550,288.496 275.391,288.281 275.391 C 288.066 275.391,287.891 274.878,287.891 274.251 C 287.891 272.156,285.905 270.866,284.635 272.135 M294.145 272.456 C 293.443 273.301,293.914 274.107,295.286 274.408 C 296.987 274.782,296.829 275.542,295.117 275.221 C 293.556 274.928,293.184 275.624,294.698 276.004 C 297.115 276.611,298.360 274.564,296.094 273.709 C 295.449 273.465,294.922 273.107,294.922 272.912 C 294.922 272.718,295.449 272.664,296.094 272.793 C 297.313 273.037,297.728 272.527,296.648 272.112 C 295.610 271.714,294.651 271.846,294.145 272.456 M298.655 272.743 C 297.240 274.764,298.982 276.838,301.335 275.935 C 302.375 275.536,302.023 275.077,300.725 275.138 C 300.048 275.169,299.420 274.976,299.325 274.707 C 299.206 274.368,299.641 274.219,300.749 274.219 C 302.516 274.219,302.832 273.610,301.629 272.521 C 300.635 271.621,299.375 271.715,298.655 272.743 M303.125 274.023 C 303.125 275.673,303.261 276.172,303.711 276.172 C 304.161 276.172,304.297 275.673,304.297 274.023 C 304.297 272.374,304.161 271.875,303.711 271.875 C 303.261 271.875,303.125 272.374,303.125 274.023 M312.891 274.063 C 312.891 275.677,313.028 276.172,313.477 276.172 C 313.897 276.172,314.063 275.743,314.063 274.655 C 314.063 273.467,314.232 273.094,314.844 272.934 C 316.119 272.600,315.733 271.953,314.258 271.953 L 312.891 271.953 312.891 274.063 M316.662 272.589 C 314.799 274.648,317.437 277.308,319.701 275.653 C 320.517 275.056,320.637 273.323,319.923 272.462 C 319.252 271.654,317.444 271.725,316.662 272.589 M321.094 273.268 C 321.094 275.551,321.629 276.148,323.639 276.108 L 325.391 276.073 325.391 273.974 C 325.391 271.423,324.347 270.892,324.145 273.340 C 323.955 275.631,322.266 275.743,322.266 273.465 C 322.266 272.312,322.105 271.875,321.680 271.875 C 321.268 271.875,321.094 272.290,321.094 273.268 M331.130 272.125 C 330.642 272.613,331.312 273.046,332.208 272.821 C 332.708 272.696,333.223 272.764,333.352 272.972 C 333.481 273.181,332.963 273.469,332.199 273.612 C 329.742 274.073,330.397 275.938,333.071 276.093 L 335.087 276.210 334.874 274.531 C 334.575 272.180,332.445 270.811,331.130 272.125 M277.344 273.265 C 277.344 273.575,277.080 273.828,276.758 273.828 C 276.101 273.828,276.074 273.756,276.408 272.886 C 276.683 272.171,277.344 272.439,277.344 273.265 M257.227 273.047 C 257.368 273.275,256.963 273.438,256.250 273.438 C 255.537 273.438,255.132 273.275,255.273 273.047 C 255.406 272.832,255.846 272.656,256.250 272.656 C 256.654 272.656,257.094 272.832,257.227 273.047 M262.256 273.528 C 262.787 274.371,261.716 275.623,260.772 275.261 C 260.153 275.023,259.919 273.414,260.430 272.903 C 260.862 272.471,261.790 272.788,262.256 273.528 M301.172 273.047 C 301.172 273.262,300.722 273.438,300.172 273.438 C 299.605 273.438,299.277 273.268,299.414 273.047 C 299.547 272.832,299.997 272.656,300.414 272.656 C 300.831 272.656,301.172 272.832,301.172 273.047 M319.141 274.042 C 319.141 275.106,318.681 275.490,317.809 275.155 C 317.074 274.873,316.973 273.187,317.676 272.942 C 318.531 272.643,319.141 273.102,319.141 274.042 M181.799 274.181 C 176.469 276.601,177.819 284.612,183.629 285.043 C 185.273 285.165,186.025 285.022,187.015 284.400 C 193.128 280.562,188.351 271.205,181.799 274.181 M310.769 274.262 C 311.080 274.766,310.269 275.376,309.277 275.385 C 308.852 275.388,308.594 275.095,308.594 274.609 C 308.594 273.743,310.281 273.473,310.769 274.262 M286.719 274.622 C 286.719 275.125,285.606 275.580,285.248 275.222 C 285.103 275.077,285.242 274.794,285.558 274.594 C 286.314 274.116,286.719 274.125,286.719 274.622 M333.594 274.622 C 333.594 275.089,332.492 275.591,332.171 275.270 C 331.829 274.927,332.409 274.219,333.031 274.219 C 333.340 274.219,333.594 274.400,333.594 274.622 M270.011 275.464 C 270.253 276.188,271.094 276.308,271.094 275.618 C 271.094 275.278,270.815 275.000,270.475 275.000 C 270.135 275.000,269.926 275.209,270.011 275.464 M6.055 390.625 C 5.922 390.840,6.175 391.016,6.618 391.016 C 7.641 391.016,7.631 391.328,6.573 392.455 L 5.723 393.359 7.256 393.314 C 8.099 393.289,8.487 393.189,8.118 393.093 C 7.578 392.951,7.533 392.780,7.887 392.213 C 8.129 391.826,8.216 391.223,8.082 390.872 C 7.813 390.172,6.438 390.004,6.055 390.625 M8.789 390.625 C 8.656 390.840,8.734 391.016,8.961 391.016 C 9.189 391.016,9.375 391.543,9.375 392.188 C 9.375 392.832,9.551 393.359,9.766 393.359 C 9.980 393.359,10.156 392.656,10.156 391.797 C 10.156 390.277,9.403 389.631,8.789 390.625 M10.951 390.990 C 10.159 392.470,10.437 393.424,11.621 393.288 C 12.868 393.144,13.480 391.406,12.284 391.406 C 11.741 391.406,11.710 391.302,12.109 390.820 C 12.507 390.341,12.482 390.234,11.976 390.234 C 11.635 390.234,11.174 390.574,10.951 390.990 M13.558 390.478 C 12.355 391.682,13.863 393.916,15.281 393.030 C 16.225 392.441,17.065 392.456,17.350 393.066 C 17.533 393.457,17.624 393.457,17.806 393.066 C 17.931 392.798,18.444 392.578,18.945 392.578 C 19.447 392.578,19.946 392.798,20.055 393.066 C 20.386 393.882,21.003 392.668,20.799 391.603 C 20.621 390.670,19.453 389.884,19.232 390.547 C 18.834 391.741,17.994 392.384,17.981 391.504 C 17.974 391.021,17.895 390.625,17.805 390.625 C 17.716 390.625,17.386 390.527,17.072 390.406 C 16.688 390.259,16.405 390.545,16.203 391.285 L 15.903 392.383 15.651 391.406 C 15.405 390.457,14.140 389.896,13.558 390.478 M21.484 390.667 C 21.484 390.905,21.768 390.991,22.114 390.858 C 22.560 390.687,22.679 390.784,22.521 391.194 C 22.400 391.512,22.471 391.878,22.680 392.007 C 23.251 392.360,22.717 392.968,22.058 392.715 C 21.742 392.594,21.484 392.689,21.484 392.927 C 21.484 393.442,23.297 393.512,23.608 393.009 C 24.155 392.124,23.340 390.234,22.412 390.234 C 21.902 390.234,21.484 390.429,21.484 390.667 M24.219 390.641 C 24.219 390.902,24.490 390.995,24.848 390.858 C 25.294 390.687,25.413 390.784,25.256 391.194 C 25.134 391.512,25.205 391.878,25.414 392.007 C 25.985 392.360,25.452 392.968,24.792 392.715 C 24.477 392.594,24.219 392.689,24.219 392.927 C 24.219 393.466,26.038 393.501,26.367 392.969 C 26.709 392.416,28.021 392.483,28.258 393.066 C 28.408 393.435,28.566 393.411,28.906 392.969 C 29.246 392.526,29.405 392.502,29.554 392.871 C 29.930 393.797,31.605 393.440,31.872 392.378 C 32.381 390.352,30.069 389.368,29.360 391.309 C 29.004 392.283,28.965 392.301,28.937 391.504 C 28.899 390.418,28.125 390.325,28.125 391.406 C 28.125 391.836,27.974 392.188,27.789 392.188 C 27.603 392.188,27.541 391.722,27.650 391.153 C 27.786 390.439,27.709 390.204,27.400 390.395 C 27.154 390.547,26.953 390.924,26.953 391.234 C 26.953 391.544,26.797 391.797,26.606 391.797 C 26.415 391.797,26.283 391.489,26.313 391.113 C 26.350 390.641,26.035 390.392,25.293 390.306 C 24.661 390.233,24.219 390.371,24.219 390.641 M14.844 391.797 C 14.844 392.201,14.688 392.628,14.498 392.746 C 14.097 392.993,13.720 391.836,13.964 391.111 C 14.198 390.415,14.844 390.918,14.844 391.797 M31.250 391.797 C 31.250 392.201,31.073 392.641,30.857 392.775 C 30.355 393.085,29.921 391.988,30.229 391.186 C 30.529 390.403,31.250 390.835,31.250 391.797 " stroke="none" fill="#fbfbfb" fill-rule="evenodd"></path><path id="path2" d="M197.353 117.699 C 197.288 122.544,197.147 124.192,196.815 123.986 C 196.524 123.806,196.470 123.880,196.663 124.192 C 197.412 125.404,197.668 123.507,197.558 117.549 L 197.440 111.133 197.353 117.699 M101.074 125.683 C 104.351 125.748,109.712 125.748,112.988 125.683 C 116.265 125.617,113.584 125.564,107.031 125.564 C 100.479 125.564,97.798 125.617,101.074 125.683 M287.231 125.683 C 290.629 125.748,296.078 125.748,299.341 125.683 C 302.604 125.617,299.824 125.564,293.164 125.564 C 286.504 125.564,283.834 125.618,287.231 125.683 M120.484 130.664 L 120.508 133.789 129.395 133.800 L 138.282 133.812 129.508 133.695 L 120.734 133.579 120.597 130.559 L 120.460 127.539 120.484 130.664 M279.414 130.078 C 279.414 131.260,279.487 131.743,279.577 131.152 C 279.666 130.562,279.666 129.595,279.577 129.004 C 279.487 128.413,279.414 128.896,279.414 130.078 M98.623 160.938 C 98.623 177.588,98.672 184.399,98.730 176.074 C 98.789 167.749,98.789 154.126,98.730 145.801 C 98.672 137.476,98.623 144.287,98.623 160.938 M197.434 140.820 C 197.434 145.977,197.490 148.032,197.558 145.388 C 197.625 142.744,197.625 138.525,197.557 136.013 C 197.489 133.501,197.434 135.664,197.434 140.820 M279.297 132.935 C 279.297 133.510,278.371 133.591,270.605 133.692 L 261.914 133.805 270.618 133.895 C 279.311 133.984,280.768 133.762,279.540 132.535 C 279.406 132.401,279.297 132.581,279.297 132.935 M120.495 161.133 C 120.495 173.379,120.545 178.332,120.605 172.140 C 120.666 165.948,120.666 155.929,120.605 149.875 C 120.545 143.820,120.495 148.887,120.495 161.133 M279.480 161.133 C 279.480 173.379,279.529 178.332,279.590 172.140 C 279.650 165.948,279.650 155.929,279.590 149.875 C 279.529 143.820,279.480 148.887,279.480 161.133 M197.434 168.555 C 197.434 173.711,197.490 175.766,197.558 173.122 C 197.625 170.478,197.625 166.259,197.557 163.747 C 197.489 161.235,197.434 163.398,197.434 168.555 M238.393 177.617 C 237.917 178.111,237.670 178.516,237.844 178.516 C 238.225 178.516,239.646 176.997,239.418 176.833 C 239.330 176.770,238.869 177.123,238.393 177.617 M196.663 185.183 C 196.470 185.495,196.524 185.569,196.815 185.389 C 197.147 185.183,197.288 186.831,197.353 191.676 L 197.440 198.242 197.558 191.826 C 197.668 185.868,197.412 183.971,196.663 185.183 M120.476 188.808 C 120.365 189.098,120.329 190.548,120.396 192.031 L 120.517 194.727 120.708 191.503 C 120.898 188.284,120.858 187.814,120.476 188.808 M279.414 191.797 C 279.414 192.979,279.487 193.462,279.577 192.871 C 279.666 192.280,279.666 191.313,279.577 190.723 C 279.487 190.132,279.414 190.615,279.414 191.797 M141.591 220.313 C 141.591 235.029,141.640 241.050,141.699 233.691 C 141.758 226.333,141.758 214.292,141.699 206.934 C 141.640 199.575,141.591 205.596,141.591 220.313 M243.359 196.289 C 244.088 197.041,244.772 197.656,244.880 197.656 C 244.987 197.656,244.479 197.041,243.750 196.289 C 243.021 195.537,242.337 194.922,242.230 194.922 C 242.122 194.922,242.631 195.537,243.359 196.289 M209.167 223.047 C 209.167 235.400,209.217 240.454,209.277 234.277 C 209.338 228.101,209.338 217.993,209.277 211.816 C 209.217 205.640,209.167 210.693,209.167 223.047 M166.895 207.301 C 167.271 207.399,167.886 207.399,168.262 207.301 C 168.638 207.202,168.330 207.122,167.578 207.122 C 166.826 207.122,166.519 207.202,166.895 207.301 M243.530 209.863 L 242.383 211.133 243.652 209.986 C 244.836 208.916,245.101 208.594,244.800 208.594 C 244.732 208.594,244.161 209.165,243.530 209.863 M236.235 212.776 C 236.721 212.870,237.424 212.866,237.798 212.768 C 238.171 212.671,237.773 212.594,236.914 212.599 C 236.055 212.603,235.749 212.683,236.235 212.776 M228.809 235.432 C 229.292 235.525,230.083 235.525,230.566 235.432 C 231.050 235.339,230.654 235.263,229.688 235.263 C 228.721 235.263,228.325 235.339,228.809 235.432 M159.277 236.994 C 159.761 237.088,160.552 237.088,161.035 236.994 C 161.519 236.901,161.123 236.825,160.156 236.825 C 159.189 236.825,158.794 236.901,159.277 236.994 M221.575 243.359 C 221.575 244.111,221.655 244.419,221.754 244.043 C 221.852 243.667,221.852 243.052,221.754 242.676 C 221.655 242.300,221.575 242.607,221.575 243.359 M169.622 246.484 C 169.622 247.236,169.702 247.544,169.801 247.168 C 169.899 246.792,169.899 246.177,169.801 245.801 C 169.702 245.425,169.622 245.732,169.622 246.484 M228.809 251.057 C 229.292 251.150,230.083 251.150,230.566 251.057 C 231.050 250.964,230.654 250.888,229.688 250.888 C 228.721 250.888,228.325 250.964,228.809 251.057 M239.063 253.289 C 239.063 255.348,239.983 257.105,241.546 258.028 C 243.125 258.961,244.107 260.006,244.771 261.458 L 245.337 262.695 245.130 261.523 C 244.888 260.154,245.236 259.491,246.191 259.499 C 246.787 259.504,246.875 259.923,246.875 262.760 C 246.875 264.551,246.719 266.016,246.529 266.016 C 246.338 266.016,246.104 266.551,246.008 267.204 C 245.872 268.133,245.959 268.345,246.410 268.172 C 246.867 267.996,246.891 268.064,246.526 268.504 C 245.461 269.787,245.669 271.429,246.840 270.987 C 248.125 270.503,250.000 270.896,250.000 271.650 C 250.000 272.053,249.614 272.139,248.488 271.989 C 247.585 271.867,246.868 271.961,246.707 272.221 C 246.559 272.460,246.604 272.656,246.806 272.656 C 247.009 272.656,247.255 273.080,247.354 273.597 C 247.493 274.322,247.391 274.494,246.912 274.347 C 246.471 274.211,246.514 274.338,247.059 274.781 C 247.483 275.126,248.098 275.291,248.426 275.147 C 248.755 275.004,249.331 274.875,249.707 274.860 C 250.083 274.845,250.414 274.563,250.442 274.233 C 250.470 273.903,250.637 274.248,250.813 275.000 C 251.071 276.098,251.104 275.926,250.986 274.121 C 250.904 272.886,250.996 271.875,251.190 271.875 C 251.729 271.875,252.802 269.567,252.495 269.069 C 252.329 268.801,252.399 268.738,252.674 268.908 C 252.941 269.073,253.125 268.939,253.125 268.578 C 253.125 268.243,252.905 267.966,252.637 267.963 C 252.311 267.959,252.344 267.831,252.734 267.578 C 253.222 267.263,253.189 267.194,252.539 267.166 L 251.758 267.133 252.539 266.797 C 253.266 266.484,253.269 266.459,252.589 266.434 C 251.953 266.410,251.927 266.322,252.394 265.756 C 252.878 265.169,252.848 265.150,252.076 265.561 C 250.253 266.533,246.580 265.362,247.757 264.185 C 248.214 263.728,248.526 263.692,249.147 264.024 C 250.190 264.582,251.443 264.572,251.795 264.002 C 251.959 263.736,251.903 263.657,251.658 263.808 C 251.093 264.157,250.109 263.739,249.839 263.035 C 249.715 262.712,249.787 262.564,250.004 262.698 C 250.217 262.829,250.391 262.691,250.391 262.390 C 250.391 262.090,249.949 261.643,249.408 261.397 C 247.892 260.706,247.391 259.253,248.227 257.976 C 248.602 257.403,248.726 257.048,248.502 257.187 C 248.278 257.325,247.914 257.127,247.692 256.746 C 247.391 256.229,247.286 256.199,247.278 256.626 C 247.271 256.940,246.925 256.528,246.508 255.710 C 245.995 254.705,245.851 253.952,246.061 253.382 C 246.653 251.779,246.234 251.563,242.546 251.563 L 239.063 251.563 239.063 253.289 M266.296 255.739 C 266.342 258.037,266.469 260.146,266.576 260.427 C 266.856 261.156,266.020 261.058,265.097 260.254 C 264.313 259.571,264.313 259.572,265.066 260.632 C 265.481 261.216,265.947 261.700,266.101 261.706 C 266.255 261.713,266.281 261.981,266.158 262.302 C 266.035 262.623,266.304 263.595,266.756 264.463 C 267.791 266.447,267.793 266.885,266.762 265.625 L 265.963 264.648 266.430 265.625 C 266.687 266.162,267.182 266.939,267.531 267.351 C 268.119 268.048,268.116 268.084,267.480 267.852 C 267.104 267.715,266.797 267.773,266.797 267.981 C 266.797 268.189,266.960 268.359,267.159 268.359 C 267.358 268.359,267.454 268.887,267.373 269.531 C 267.291 270.176,267.392 270.703,267.597 270.703 C 267.801 270.703,267.969 270.967,267.969 271.289 C 267.969 271.611,268.232 271.875,268.555 271.875 C 268.877 271.875,269.141 272.051,269.141 272.266 C 269.141 272.480,268.866 272.656,268.530 272.656 C 268.076 272.656,267.951 272.983,268.042 273.926 C 268.115 274.686,268.360 275.156,268.652 275.098 C 268.921 275.044,269.141 275.264,269.141 275.586 C 269.141 276.350,267.814 276.341,267.176 275.572 C 266.903 275.243,266.694 274.441,266.712 273.791 C 266.732 273.094,266.570 272.667,266.317 272.751 C 265.708 272.954,265.579 274.337,266.135 274.697 C 266.482 274.923,266.452 275.098,266.016 275.385 C 265.510 275.717,265.520 275.770,266.090 275.775 C 266.981 275.783,267.311 276.411,266.854 277.229 C 266.580 277.718,266.731 278.402,267.410 279.741 C 268.087 281.076,268.211 281.635,267.863 281.779 C 267.599 281.888,272.041 281.945,277.734 281.906 L 288.086 281.836 288.212 280.273 C 288.282 279.414,288.614 278.407,288.950 278.035 C 289.413 277.522,289.454 277.230,289.120 276.827 C 288.877 276.535,288.809 276.151,288.968 275.976 C 289.128 275.800,289.022 275.793,288.733 275.959 C 287.884 276.451,285.082 276.265,284.496 275.679 C 283.725 274.908,284.248 273.918,285.580 273.626 C 286.206 273.488,286.719 273.200,286.719 272.985 C 286.719 272.751,286.231 272.701,285.501 272.862 C 284.569 273.066,284.323 273.005,284.456 272.600 C 285.063 270.755,287.875 272.003,287.885 274.121 C 287.889 275.006,288.075 275.391,288.497 275.391 C 288.985 275.391,289.087 274.946,289.021 273.110 C 288.929 270.558,289.245 269.654,290.009 270.287 C 290.359 270.578,290.495 270.529,290.495 270.111 C 290.495 269.792,290.248 269.531,289.946 269.531 C 289.502 269.531,289.515 269.414,290.011 268.917 C 290.349 268.580,290.625 267.874,290.625 267.350 C 290.625 266.825,290.787 266.090,290.984 265.717 C 291.182 265.344,291.623 263.818,291.965 262.325 C 292.306 260.832,293.023 258.732,293.558 257.658 C 294.093 256.585,294.531 255.498,294.531 255.245 C 294.531 254.991,294.793 254.566,295.113 254.300 C 295.433 254.035,295.608 253.678,295.502 253.507 C 295.186 252.995,295.724 252.010,296.420 251.825 C 296.778 251.731,290.127 251.633,281.641 251.608 L 266.211 251.562 266.296 255.739 M309.766 253.923 C 309.766 256.960,308.849 261.362,307.398 265.298 C 306.088 268.852,306.078 268.899,306.738 268.503 C 307.072 268.302,307.057 268.418,306.692 268.868 C 306.398 269.231,306.250 269.880,306.363 270.310 C 306.475 270.741,306.408 271.094,306.213 271.094 C 306.019 271.094,305.859 271.449,305.859 271.884 C 305.859 273.423,303.618 277.570,301.589 279.785 L 299.531 282.031 306.699 282.032 L 313.867 282.033 313.739 279.102 C 313.668 277.491,313.448 276.172,313.250 276.172 C 313.053 276.172,312.891 275.185,312.891 273.978 C 312.891 272.082,312.983 271.808,313.574 271.960 C 314.200 272.121,314.269 271.606,314.394 265.853 C 314.536 259.312,314.741 258.115,315.550 259.090 C 316.176 259.843,316.543 266.859,316.112 269.811 C 315.724 272.475,315.970 273.457,316.782 272.479 C 317.422 271.708,319.288 271.698,319.923 272.462 C 321.689 274.590,318.582 277.510,316.629 275.558 C 316.071 275.000,316.016 275.002,316.016 275.581 C 316.016 275.931,315.875 276.131,315.704 276.025 C 315.533 275.919,315.137 276.014,314.825 276.234 C 314.341 276.577,314.347 276.608,314.863 276.447 C 315.670 276.193,315.946 281.196,315.153 281.699 C 314.875 281.875,333.853 282.022,357.324 282.025 L 400.000 282.031 400.000 278.710 L 400.000 275.388 397.216 278.319 C 395.685 279.931,394.319 281.250,394.180 281.250 C 393.909 281.250,393.961 276.207,394.282 271.386 L 394.480 268.406 393.431 268.285 C 392.429 268.169,392.379 268.056,392.298 265.723 C 392.207 263.068,392.608 262.614,393.422 264.453 C 393.935 265.612,394.819 266.157,394.395 265.053 C 393.939 263.863,394.914 252.298,395.508 251.861 C 395.723 251.704,392.925 251.572,389.290 251.568 C 385.656 251.565,382.793 251.674,382.929 251.809 C 383.065 251.945,383.018 252.351,382.824 252.712 C 382.631 253.073,382.364 254.321,382.231 255.485 C 382.098 256.650,381.758 257.869,381.475 258.196 C 381.193 258.522,381.037 258.997,381.129 259.251 C 381.222 259.505,381.033 260.225,380.709 260.851 C 380.385 261.477,380.212 262.342,380.325 262.773 C 380.439 263.210,380.257 263.827,379.913 264.172 C 379.574 264.511,379.297 264.907,379.297 265.052 C 379.297 265.197,378.836 266.221,378.273 267.326 C 377.709 268.432,377.264 269.890,377.283 270.566 C 377.311 271.592,377.140 271.841,376.256 272.063 C 374.968 272.386,373.944 273.424,373.613 274.743 C 373.478 275.283,373.108 275.824,372.792 275.946 C 372.475 276.067,372.336 276.361,372.483 276.599 C 372.672 276.904,372.535 276.920,372.020 276.655 C 370.955 276.106,367.082 275.716,363.339 275.781 C 361.280 275.816,360.163 275.695,360.314 275.452 C 360.445 275.240,359.977 274.711,359.274 274.277 C 358.001 273.490,356.250 271.454,356.250 270.761 C 356.250 270.560,355.986 270.295,355.663 270.171 C 355.341 270.047,354.781 269.325,354.419 268.567 C 354.058 267.808,353.618 267.188,353.443 267.188 C 353.268 267.188,353.125 266.913,353.125 266.579 C 353.125 266.244,352.968 266.067,352.775 266.186 C 352.583 266.305,352.327 266.145,352.206 265.831 C 352.086 265.516,352.155 265.156,352.361 265.029 C 352.566 264.902,352.734 264.984,352.734 265.211 C 352.734 265.439,352.872 265.625,353.041 265.625 C 353.210 265.625,353.348 265.293,353.348 264.888 C 353.348 264.412,353.152 264.227,352.793 264.364 C 351.628 264.811,352.623 263.460,353.869 262.902 C 355.078 262.360,355.134 262.247,354.842 260.949 C 354.671 260.191,354.522 257.769,354.512 255.566 L 354.492 251.563 332.129 251.563 L 309.766 251.563 309.766 253.923 M276.645 254.048 C 277.012 254.327,277.495 255.036,277.718 255.622 C 277.941 256.208,278.283 256.589,278.478 256.468 C 278.674 256.348,278.737 256.619,278.618 257.071 C 278.498 257.530,278.623 258.028,278.900 258.199 C 279.462 258.547,279.103 259.378,278.395 259.369 C 278.115 259.365,278.164 259.212,278.516 258.984 C 279.016 258.661,279.002 258.605,278.418 258.600 C 278.042 258.596,277.734 258.727,277.734 258.890 C 277.734 259.570,276.094 260.235,275.638 259.740 C 275.304 259.378,275.316 259.329,275.687 259.538 C 276.212 259.835,277.344 258.933,277.344 258.217 C 277.344 257.915,277.122 257.903,276.609 258.178 C 275.870 258.574,275.143 257.024,275.365 255.527 C 275.408 255.237,275.255 255.116,275.026 255.257 C 274.455 255.610,274.498 254.565,275.078 253.984 C 275.657 253.406,275.807 253.412,276.645 254.048 M275.000 259.007 C 275.000 261.502,275.252 261.779,276.384 260.528 C 277.182 259.647,279.312 259.594,279.592 260.449 C 279.680 260.718,279.552 260.938,279.306 260.938 C 279.053 260.938,278.987 260.726,279.153 260.449 C 279.355 260.113,279.242 260.127,278.790 260.493 C 278.429 260.786,278.247 261.209,278.385 261.433 C 278.534 261.674,278.446 261.722,278.168 261.550 C 277.911 261.391,277.440 261.477,277.121 261.741 C 276.446 262.302,277.494 263.867,278.238 263.407 C 278.457 263.271,278.525 263.340,278.390 263.559 C 278.254 263.779,278.491 264.272,278.915 264.657 C 279.923 265.568,279.893 266.016,278.825 266.016 C 278.351 266.016,277.296 265.365,276.481 264.569 L 275.000 263.123 275.000 264.569 C 275.000 265.755,274.859 266.016,274.219 266.016 C 273.260 266.016,272.978 256.871,273.926 256.531 C 274.808 256.214,275.000 256.657,275.000 259.007 M246.684 257.038 C 246.819 257.256,247.080 257.341,247.266 257.227 C 248.138 256.687,247.916 257.809,247.035 258.385 C 245.866 259.152,244.922 258.930,244.922 257.890 C 244.922 256.703,246.119 256.124,246.684 257.038 M255.109 258.469 C 255.089 259.028,254.777 259.379,254.199 259.490 L 253.320 259.659 254.211 259.712 C 255.137 259.768,255.690 258.987,255.341 258.118 C 255.230 257.843,255.126 258.000,255.109 258.469 M271.264 259.756 C 272.284 260.144,272.596 261.078,271.858 261.534 C 271.634 261.673,271.189 261.569,270.870 261.304 C 269.900 260.499,268.277 261.466,268.431 262.757 C 268.599 264.163,269.666 264.801,270.732 264.135 C 271.526 263.639,272.656 264.047,272.656 264.829 C 272.656 266.068,269.105 266.284,267.759 265.126 C 264.893 262.660,267.678 258.393,271.264 259.756 M255.185 262.500 C 255.185 263.467,255.261 263.862,255.354 263.379 C 255.447 262.896,255.447 262.104,255.354 261.621 C 255.261 261.138,255.185 261.533,255.185 262.500 M262.695 261.211 C 263.125 261.312,263.696 261.676,263.965 262.022 C 264.233 262.367,264.453 262.475,264.453 262.262 C 264.453 261.599,263.552 260.935,262.715 260.983 C 261.931 261.027,261.931 261.032,262.695 261.211 M239.171 264.046 C 239.133 264.553,239.273 264.760,239.543 264.593 C 239.826 264.418,239.887 264.557,239.719 264.995 C 239.567 265.393,239.619 265.569,239.848 265.427 C 240.363 265.109,240.335 264.740,239.733 263.917 C 239.266 263.278,239.228 263.287,239.171 264.046 M263.359 273.066 C 263.316 274.688,263.106 276.227,262.892 276.486 C 262.678 276.744,262.774 276.721,263.106 276.434 C 263.574 276.028,263.678 275.265,263.573 273.014 L 263.436 270.117 263.359 273.066 M281.250 273.242 C 281.250 275.586,281.133 276.172,280.664 276.172 C 280.195 276.172,280.078 275.586,280.078 273.242 C 280.078 270.898,280.195 270.313,280.664 270.313 C 281.133 270.313,281.250 270.898,281.250 273.242 M283.203 270.898 C 283.203 271.221,283.038 271.484,282.836 271.484 C 282.343 271.484,281.990 270.874,282.302 270.562 C 282.742 270.122,283.203 270.294,283.203 270.898 M327.344 271.943 L 327.344 273.574 328.248 272.724 C 329.547 271.504,330.353 271.593,329.519 272.865 C 328.904 273.804,328.913 273.909,329.707 274.916 C 330.813 276.319,329.675 276.707,328.512 275.324 L 327.748 274.414 327.500 275.293 C 326.915 277.369,326.172 276.222,326.172 273.242 C 326.172 270.898,326.289 270.313,326.758 270.313 C 327.185 270.313,327.344 270.754,327.344 271.943 M278.423 272.754 C 278.862 273.882,279.345 275.112,279.496 275.488 C 279.706 276.010,279.576 276.172,278.948 276.172 C 278.495 276.172,278.125 275.927,278.125 275.628 C 278.125 274.471,275.963 274.262,275.668 275.391 C 275.556 275.820,275.184 276.172,274.841 276.172 C 274.061 276.172,274.062 275.860,274.851 273.973 C 275.199 273.142,275.634 272.065,275.818 271.582 C 276.421 269.998,277.549 270.505,278.423 272.754 M311.571 272.070 C 311.597 272.715,311.757 273.574,311.926 273.979 C 312.458 275.253,311.618 275.966,309.432 276.095 L 307.422 276.213 307.422 273.438 L 307.422 270.662 309.473 270.780 C 311.452 270.894,311.525 270.939,311.571 272.070 M308.594 272.238 C 308.594 272.846,308.843 273.047,309.599 273.047 C 310.881 273.047,310.767 271.740,309.469 271.555 C 308.804 271.460,308.594 271.624,308.594 272.238 M271.094 272.461 C 271.094 272.783,270.830 273.047,270.508 273.047 C 270.186 273.047,269.922 272.783,269.922 272.461 C 269.922 272.139,270.186 271.875,270.508 271.875 C 270.830 271.875,271.094 272.139,271.094 272.461 M283.203 274.023 C 283.203 275.673,283.067 276.172,282.617 276.172 C 282.167 276.172,282.031 275.673,282.031 274.023 C 282.031 272.374,282.167 271.875,282.617 271.875 C 283.067 271.875,283.203 272.374,283.203 274.023 M292.226 272.810 C 291.543 273.537,291.463 273.812,291.865 274.045 C 292.150 274.209,292.249 274.197,292.086 274.017 C 291.923 273.838,292.174 273.282,292.643 272.783 C 293.112 272.284,293.408 271.875,293.300 271.875 C 293.193 271.875,292.710 272.296,292.226 272.810 M322.266 273.465 C 322.266 275.743,323.955 275.631,324.145 273.340 C 324.347 270.892,325.391 271.423,325.391 273.974 L 325.391 276.073 323.639 276.108 C 321.629 276.148,321.094 275.551,321.094 273.268 C 321.094 272.290,321.268 271.875,321.680 271.875 C 322.105 271.875,322.266 272.312,322.266 273.465 M334.274 272.363 C 334.487 272.632,334.756 273.607,334.874 274.531 L 335.087 276.210 333.071 276.093 C 330.397 275.938,329.742 274.073,332.199 273.612 C 332.963 273.469,333.481 273.181,333.352 272.972 C 333.223 272.764,332.708 272.696,332.208 272.821 C 331.312 273.046,330.642 272.613,331.130 272.125 C 331.572 271.684,333.876 271.858,334.274 272.363 M276.408 272.886 C 276.074 273.756,276.101 273.828,276.758 273.828 C 277.080 273.828,277.344 273.575,277.344 273.265 C 277.344 272.439,276.683 272.171,276.408 272.886 M317.676 272.942 C 316.973 273.187,317.074 274.873,317.809 275.155 C 318.681 275.490,319.141 275.106,319.141 274.042 C 319.141 273.102,318.531 272.643,317.676 272.942 M308.594 274.609 C 308.594 275.436,309.536 275.648,310.499 275.038 C 311.257 274.557,310.683 273.828,309.547 273.828 C 308.854 273.828,308.594 274.041,308.594 274.609 M285.558 274.594 C 285.242 274.794,285.103 275.077,285.248 275.222 C 285.606 275.580,286.719 275.125,286.719 274.622 C 286.719 274.125,286.314 274.116,285.558 274.594 M332.211 274.635 C 332.069 274.865,332.051 275.150,332.171 275.270 C 332.492 275.591,333.594 275.089,333.594 274.622 C 333.594 274.091,332.540 274.102,332.211 274.635 M236.035 274.879 C 236.411 274.977,237.026 274.977,237.402 274.879 C 237.778 274.780,237.471 274.700,236.719 274.700 C 235.967 274.700,235.659 274.780,236.035 274.879 M242.011 275.818 C 242.857 277.454,242.552 277.584,240.662 276.390 L 239.063 275.381 239.063 278.722 L 239.063 282.064 242.049 281.950 L 245.035 281.836 245.983 280.336 C 246.871 278.931,246.881 278.852,246.153 279.083 C 245.708 279.224,245.199 279.114,244.966 278.825 C 244.742 278.547,244.025 277.682,243.373 276.902 C 242.721 276.121,242.188 275.286,242.188 275.046 C 242.188 274.806,242.007 274.609,241.787 274.609 C 241.561 274.609,241.659 275.138,242.011 275.818 M245.313 274.967 C 245.313 275.164,245.796 275.705,246.387 276.168 C 246.978 276.632,247.211 276.881,246.906 276.723 C 246.500 276.512,246.419 276.609,246.601 277.084 C 246.743 277.455,246.660 277.734,246.407 277.734 C 246.163 277.734,246.086 277.857,246.235 278.006 C 246.852 278.623,247.578 278.364,248.206 277.301 C 248.870 276.177,248.868 276.172,247.874 276.172 C 247.324 276.172,246.523 275.820,246.094 275.391 C 245.664 274.961,245.313 274.770,245.313 274.967 M271.094 275.618 C 271.094 276.308,270.253 276.188,270.011 275.464 C 269.926 275.209,270.135 275.000,270.475 275.000 C 270.815 275.000,271.094 275.278,271.094 275.618 M265.446 276.536 C 265.180 276.967,265.796 277.433,266.156 277.073 C 266.528 276.701,266.459 276.172,266.039 276.172 C 265.837 276.172,265.570 276.336,265.446 276.536 M255.419 277.220 C 254.855 277.571,254.088 278.373,253.716 279.003 C 253.344 279.633,252.497 280.792,251.834 281.578 C 251.171 282.365,250.874 282.788,251.174 282.520 C 251.520 282.209,252.941 282.031,255.073 282.031 C 258.166 282.031,258.426 281.971,258.426 281.250 C 258.426 280.820,258.267 280.469,258.072 280.469 C 257.876 280.469,257.939 280.201,258.211 279.873 C 258.911 279.030,258.553 278.861,257.006 279.304 C 256.092 279.566,255.621 279.559,255.529 279.281 C 255.441 279.020,255.172 279.054,254.777 279.378 C 254.326 279.748,254.360 279.569,254.907 278.711 C 255.317 278.066,255.919 277.325,256.245 277.063 C 257.089 276.384,256.625 276.472,255.419 277.220 M178.216 279.297 C 178.216 280.049,178.296 280.356,178.394 279.980 C 178.493 279.604,178.493 278.989,178.394 278.613 C 178.296 278.237,178.216 278.545,178.216 279.297 M242.557 284.277 L 241.211 285.742 242.676 284.396 C 244.039 283.143,244.320 282.813,244.022 282.813 C 243.957 282.813,243.297 283.472,242.557 284.277 M158.594 285.352 C 159.761 286.533,160.803 287.500,160.911 287.500 C 161.018 287.500,160.151 286.533,158.984 285.352 C 157.817 284.170,156.775 283.203,156.667 283.203 C 156.560 283.203,157.427 284.170,158.594 285.352 M176.172 287.305 C 176.901 288.057,177.585 288.672,177.692 288.672 C 177.800 288.672,177.291 288.057,176.563 287.305 C 175.834 286.553,175.149 285.938,175.042 285.938 C 174.935 285.938,175.443 286.553,176.172 287.305 M239.432 287.402 L 238.086 288.867 239.551 287.521 C 240.914 286.268,241.195 285.938,240.897 285.938 C 240.832 285.938,240.172 286.597,239.432 287.402 M155.273 289.453 C 156.549 290.742,157.681 291.797,157.788 291.797 C 157.895 291.797,156.940 290.742,155.664 289.453 C 154.388 288.164,153.257 287.109,153.149 287.109 C 153.042 287.109,153.998 288.164,155.273 289.453 M196.001 308.089 C 196.487 308.182,197.190 308.179,197.563 308.081 C 197.937 307.983,197.539 307.907,196.680 307.911 C 195.820 307.915,195.515 307.995,196.001 308.089 M202.641 308.089 C 203.127 308.182,203.830 308.179,204.204 308.081 C 204.577 307.983,204.180 307.907,203.320 307.911 C 202.461 307.915,202.155 307.995,202.641 308.089 M0.000 391.797 L 0.000 394.922 17.578 394.922 L 35.156 394.922 35.156 391.797 L 35.156 388.672 17.578 388.672 L 0.000 388.672 0.000 391.797 M8.082 390.872 C 8.216 391.223,8.129 391.826,7.887 392.213 C 7.533 392.780,7.578 392.951,8.118 393.093 C 8.487 393.189,8.099 393.289,7.256 393.314 L 5.723 393.359 6.573 392.455 C 7.631 391.328,7.641 391.016,6.618 391.016 C 6.175 391.016,5.922 390.840,6.055 390.625 C 6.438 390.004,7.813 390.172,8.082 390.872 M10.156 391.797 C 10.156 392.656,9.980 393.359,9.766 393.359 C 9.551 393.359,9.375 392.832,9.375 392.188 C 9.375 391.543,9.189 391.016,8.961 391.016 C 8.734 391.016,8.656 390.840,8.789 390.625 C 9.403 389.631,10.156 390.277,10.156 391.797 M12.109 390.820 C 11.710 391.302,11.741 391.406,12.284 391.406 C 12.746 391.406,12.907 391.671,12.820 392.285 C 12.643 393.534,10.547 393.804,10.547 392.578 C 10.547 391.389,11.251 390.234,11.976 390.234 C 12.482 390.234,12.507 390.341,12.109 390.820 M15.651 391.406 L 15.903 392.383 16.203 391.285 C 16.405 390.545,16.688 390.259,17.072 390.406 C 17.386 390.527,17.716 390.625,17.805 390.625 C 17.895 390.625,17.974 391.021,17.981 391.504 C 17.994 392.384,18.834 391.741,19.232 390.547 C 19.453 389.884,20.621 390.670,20.799 391.603 C 21.003 392.668,20.386 393.882,20.055 393.066 C 19.946 392.798,19.447 392.578,18.945 392.578 C 18.444 392.578,17.931 392.798,17.806 393.066 C 17.624 393.457,17.533 393.457,17.350 393.066 C 17.065 392.456,16.225 392.441,15.281 393.030 C 14.202 393.704,13.281 393.172,13.281 391.874 C 13.281 389.928,15.171 389.554,15.651 391.406 M23.582 391.446 C 23.716 392.113,23.727 392.816,23.608 393.009 C 23.297 393.512,21.484 393.442,21.484 392.927 C 21.484 392.689,21.742 392.594,22.058 392.715 C 22.717 392.968,23.251 392.360,22.680 392.007 C 22.471 391.878,22.400 391.512,22.521 391.194 C 22.679 390.784,22.560 390.687,22.114 390.858 C 21.768 390.991,21.484 390.905,21.484 390.667 C 21.484 389.560,23.343 390.251,23.582 391.446 M26.313 391.113 C 26.283 391.489,26.415 391.797,26.606 391.797 C 26.797 391.797,26.953 391.544,26.953 391.234 C 26.953 390.924,27.154 390.547,27.400 390.395 C 27.709 390.204,27.786 390.439,27.650 391.153 C 27.541 391.722,27.603 392.188,27.789 392.188 C 27.974 392.188,28.125 391.836,28.125 391.406 C 28.125 390.325,28.899 390.418,28.937 391.504 C 28.965 392.301,29.004 392.283,29.360 391.309 C 30.069 389.368,32.381 390.352,31.872 392.378 C 31.605 393.440,29.930 393.797,29.554 392.871 C 29.405 392.502,29.246 392.526,28.906 392.969 C 28.566 393.411,28.408 393.435,28.258 393.066 C 28.021 392.483,26.709 392.416,26.367 392.969 C 26.038 393.501,24.219 393.466,24.219 392.927 C 24.219 392.689,24.477 392.594,24.792 392.715 C 25.452 392.968,25.985 392.360,25.414 392.007 C 25.205 391.878,25.134 391.512,25.256 391.194 C 25.413 390.784,25.294 390.687,24.848 390.858 C 24.490 390.995,24.219 390.902,24.219 390.641 C 24.219 390.371,24.661 390.233,25.293 390.306 C 26.035 390.392,26.350 390.641,26.313 391.113 M13.964 391.111 C 13.720 391.836,14.097 392.993,14.498 392.746 C 14.951 392.465,14.944 391.123,14.486 390.841 C 14.290 390.719,14.055 390.841,13.964 391.111 M30.229 391.186 C 29.921 391.988,30.355 393.085,30.857 392.775 C 31.073 392.641,31.250 392.201,31.250 391.797 C 31.250 390.835,30.529 390.403,30.229 391.186 " stroke="none" fill="#a5abac" fill-rule="evenodd"></path><path id="path3" d="M202.503 118.359 C 202.503 121.904,202.562 123.354,202.634 121.582 C 202.707 119.810,202.707 116.909,202.634 115.137 C 202.562 113.364,202.503 114.814,202.503 118.359 M93.546 161.133 C 93.546 179.609,93.594 187.111,93.652 177.803 C 93.711 168.495,93.711 153.377,93.652 144.209 C 93.594 135.041,93.546 142.656,93.546 161.133 M106.736 130.757 L 115.230 130.875 115.333 161.238 L 115.437 191.602 115.433 161.133 L 115.430 130.664 106.836 130.652 L 98.242 130.640 106.736 130.757 M202.775 131.006 C 202.461 131.384,202.363 134.307,202.442 140.869 L 202.554 150.195 202.644 140.801 C 202.708 134.121,202.870 131.271,203.203 130.938 C 203.461 130.680,203.570 130.469,203.446 130.469 C 203.322 130.469,203.020 130.710,202.775 131.006 M284.630 130.762 C 284.530 130.923,287.024 131.009,290.173 130.954 C 300.740 130.768,301.820 130.627,293.285 130.547 C 288.625 130.504,284.730 130.601,284.630 130.762 M125.684 138.963 C 127.886 139.033,131.489 139.033,133.691 138.963 C 135.894 138.894,134.092 138.837,129.688 138.837 C 125.283 138.837,123.481 138.894,125.684 138.963 M266.699 138.963 C 269.116 139.032,273.071 139.032,275.488 138.963 C 277.905 138.895,275.928 138.839,271.094 138.839 C 266.260 138.839,264.282 138.895,266.699 138.963 M202.519 159.481 C 202.415 159.754,202.377 164.104,202.435 169.149 L 202.540 178.320 202.735 168.652 C 202.925 159.192,202.908 158.467,202.519 159.481 M202.516 184.879 C 202.410 185.156,202.376 188.188,202.442 191.617 L 202.560 197.852 202.647 191.261 C 202.729 185.046,202.773 184.701,203.418 185.206 C 204.038 185.692,204.051 185.678,203.565 185.059 C 202.925 184.242,202.771 184.216,202.516 184.879 M214.245 223.438 C 214.245 235.791,214.295 240.845,214.355 234.668 C 214.416 228.491,214.416 218.384,214.355 212.207 C 214.295 206.030,214.245 211.084,214.245 223.438 M246.184 203.125 C 246.184 203.877,246.265 204.185,246.363 203.809 C 246.461 203.433,246.461 202.817,246.363 202.441 C 246.265 202.065,246.184 202.373,246.184 203.125 M159.473 242.066 C 159.849 242.164,160.464 242.164,160.840 242.066 C 161.216 241.968,160.908 241.888,160.156 241.888 C 159.404 241.888,159.097 241.968,159.473 242.066 M136.427 245.898 C 136.431 246.758,136.511 247.063,136.604 246.577 C 136.698 246.092,136.694 245.388,136.597 245.015 C 136.499 244.642,136.422 245.039,136.427 245.898 M263.372 248.828 C 263.372 249.580,263.452 249.888,263.551 249.512 C 263.649 249.136,263.649 248.521,263.551 248.145 C 263.452 247.769,263.372 248.076,263.372 248.828 M247.519 252.138 C 247.398 252.454,247.722 253.457,248.239 254.368 C 248.979 255.670,249.083 256.151,248.729 256.625 C 248.380 257.093,248.386 257.134,248.756 256.809 C 249.226 256.398,252.867 256.643,253.342 257.118 C 253.979 257.755,252.576 258.884,251.523 258.582 C 250.655 258.333,250.485 258.385,250.662 258.846 C 250.783 259.162,251.103 259.335,251.373 259.231 C 251.705 259.104,251.797 259.302,251.656 259.839 C 251.465 260.570,251.526 260.594,252.384 260.137 C 253.187 259.709,253.255 259.717,252.860 260.197 C 252.493 260.641,252.589 260.938,253.328 261.649 C 253.897 262.197,254.163 262.786,254.015 263.171 C 253.854 263.590,253.926 263.706,254.230 263.518 C 254.482 263.362,254.688 263.421,254.688 263.649 C 254.688 263.876,254.512 264.063,254.297 264.063 C 254.082 264.063,253.906 264.223,253.906 264.419 C 253.906 264.614,254.214 264.723,254.590 264.660 C 254.966 264.596,255.199 264.304,255.108 264.011 C 255.017 263.717,254.964 263.013,254.991 262.447 C 255.031 261.592,254.828 261.371,253.789 261.141 C 253.102 260.989,252.759 260.778,253.027 260.673 C 253.296 260.568,253.516 260.233,253.516 259.928 C 253.516 259.624,253.867 259.375,254.297 259.375 C 254.818 259.375,255.078 259.115,255.078 258.594 C 255.078 258.021,255.339 257.813,256.055 257.813 C 256.592 257.813,257.031 257.681,257.032 257.520 C 257.032 257.358,257.275 255.952,257.572 254.395 L 258.112 251.563 252.926 251.563 C 248.720 251.563,247.698 251.671,247.519 252.138 M262.756 255.328 C 262.188 258.533,262.203 260.702,262.781 259.082 C 262.877 258.813,263.205 258.594,263.509 258.594 C 263.878 258.594,264.054 258.171,264.038 257.324 C 264.015 256.172,263.980 256.136,263.660 256.934 C 263.144 258.217,263.062 258.030,263.233 255.957 C 263.354 254.488,263.457 254.264,263.728 254.883 C 263.971 255.436,264.010 255.248,263.860 254.235 C 263.719 253.275,263.814 252.741,264.149 252.606 C 264.505 252.463,264.480 252.395,264.063 252.369 C 263.542 252.336,263.542 252.290,264.063 251.953 C 264.577 251.621,264.574 251.574,264.036 251.568 C 263.566 251.564,263.266 252.445,262.756 255.328 M302.832 252.137 C 302.563 252.447,302.344 252.895,302.344 253.132 C 302.344 253.368,302.170 253.454,301.958 253.323 C 301.736 253.186,301.671 253.343,301.804 253.691 C 301.932 254.024,301.842 254.297,301.604 254.297 C 301.366 254.297,301.172 254.154,301.172 253.979 C 301.172 253.718,300.016 253.019,297.949 252.028 C 297.788 251.951,297.656 252.177,297.656 252.530 C 297.656 252.882,297.510 253.081,297.331 252.970 C 297.152 252.859,296.997 252.981,296.987 253.240 C 296.906 255.274,295.907 260.817,295.469 261.656 C 295.171 262.228,294.926 262.968,294.924 263.301 C 294.923 263.634,294.758 264.073,294.557 264.277 C 294.356 264.481,294.070 266.230,293.921 268.164 C 293.747 270.428,293.438 271.923,293.054 272.363 C 292.621 272.859,292.593 273.047,292.950 273.047 C 293.221 273.047,293.353 273.283,293.242 273.571 C 292.967 274.287,293.560 275.232,293.920 274.651 C 294.066 274.413,294.031 274.219,293.840 274.219 C 293.370 274.219,293.457 272.533,293.945 272.174 C 294.160 272.016,294.899 271.884,295.588 271.881 C 296.725 271.876,296.864 271.741,297.106 270.410 C 297.768 266.776,302.033 257.411,303.019 257.427 C 303.902 257.441,306.250 262.457,306.250 264.330 C 306.250 264.925,306.412 265.181,306.682 265.013 C 306.974 264.833,307.029 265.017,306.851 265.576 C 306.707 266.033,306.680 266.406,306.793 266.406 C 307.099 266.406,309.038 260.080,308.803 259.845 C 308.692 259.733,308.782 259.424,309.003 259.157 C 309.224 258.891,309.442 257.117,309.488 255.215 L 309.570 251.758 306.445 251.665 C 304.117 251.596,303.196 251.717,302.832 252.137 M359.424 253.906 C 359.453 255.195,359.640 256.250,359.840 256.250 C 360.039 256.250,360.099 256.418,359.972 256.623 C 359.845 256.829,359.996 257.609,360.309 258.357 C 361.038 260.101,360.750 261.149,359.386 261.714 C 358.078 262.256,358.407 264.646,360.032 266.399 C 360.530 266.936,360.938 267.499,360.938 267.652 C 360.938 268.624,365.260 271.875,366.552 271.875 C 367.091 271.875,367.641 272.051,367.773 272.266 C 368.112 272.813,371.875 272.769,371.875 272.218 C 371.875 271.915,372.056 271.930,372.461 272.266 C 372.938 272.662,373.047 272.641,373.047 272.153 C 373.047 271.823,373.534 271.143,374.130 270.640 C 374.974 269.928,376.390 267.247,376.778 265.625 C 376.804 265.518,376.949 265.152,377.101 264.812 C 377.868 263.094,379.537 257.792,379.364 257.620 C 379.256 257.511,378.757 257.422,378.255 257.422 L 377.344 257.422 378.125 256.641 C 378.555 256.211,378.906 255.442,378.906 254.932 C 378.906 254.421,379.016 253.455,379.150 252.783 L 379.395 251.563 369.383 251.563 L 359.371 251.563 359.424 253.906 M398.779 252.734 C 398.727 253.981,398.694 254.160,398.339 255.078 C 398.214 255.400,398.116 255.928,398.121 256.250 C 398.126 256.572,397.999 258.269,397.840 260.021 C 397.667 261.921,397.729 264.678,397.994 266.857 C 398.697 272.641,398.864 276.172,398.433 276.172 C 398.221 276.172,398.047 276.369,398.047 276.610 C 398.047 276.913,398.228 276.898,398.633 276.563 C 398.955 276.295,399.219 275.834,399.219 275.538 C 399.219 275.242,399.395 275.000,399.609 275.000 C 399.861 275.000,400.000 270.833,400.000 263.281 C 400.000 253.125,399.922 251.563,399.414 251.563 C 399.034 251.563,398.811 251.975,398.779 252.734 M261.590 261.621 C 261.364 262.001,261.464 263.661,261.719 263.750 C 262.389 263.983,264.039 262.356,263.631 261.865 C 263.154 261.290,261.878 261.138,261.590 261.621 M263.012 262.720 C 261.961 263.517,261.467 263.393,262.334 262.550 C 262.748 262.148,263.228 261.901,263.402 262.002 C 263.576 262.102,263.400 262.426,263.012 262.720 M259.636 266.862 C 259.289 267.745,259.099 268.619,259.213 268.804 C 259.327 268.989,259.240 269.141,259.020 269.141 C 258.799 269.141,258.731 269.433,258.868 269.791 C 259.019 270.185,258.960 270.343,258.717 270.194 C 258.497 270.058,258.126 270.366,257.893 270.878 C 257.554 271.622,257.587 271.855,258.056 272.035 C 258.379 272.159,258.534 272.437,258.400 272.653 C 257.959 273.367,258.542 273.063,259.553 272.053 C 260.151 271.454,260.562 271.260,260.586 271.564 C 260.607 271.843,260.765 271.631,260.938 271.094 C 261.132 270.486,261.265 270.367,261.289 270.778 C 261.311 271.141,261.518 271.556,261.751 271.699 C 262.019 271.865,262.126 271.624,262.044 271.039 C 261.946 270.344,262.106 270.107,262.695 270.077 C 264.450 269.988,264.514 269.954,263.997 269.401 C 263.458 268.823,262.500 268.698,262.500 269.206 C 262.500 269.385,262.354 269.531,262.174 269.531 C 261.995 269.531,261.849 269.275,261.849 268.962 C 261.849 268.650,261.960 268.462,262.095 268.546 C 262.231 268.630,262.597 268.537,262.909 268.340 C 263.393 268.034,263.385 267.980,262.858 267.975 C 262.518 267.971,262.240 267.705,262.240 267.383 C 262.240 267.061,262.518 266.792,262.858 266.785 C 263.367 266.775,263.350 266.699,262.765 266.359 C 262.373 266.131,261.582 266.054,261.007 266.188 C 260.320 266.347,260.143 266.309,260.491 266.076 C 260.801 265.870,260.864 265.626,260.644 265.489 C 260.436 265.361,259.982 265.979,259.636 266.862 M305.905 268.282 C 305.880 268.562,305.464 269.373,304.980 270.085 C 304.270 271.131,304.131 271.780,304.255 273.482 L 304.408 275.586 304.916 274.414 C 305.629 272.772,306.341 269.269,306.128 268.455 C 306.030 268.080,305.930 268.002,305.905 268.282 M244.434 270.356 C 244.066 270.997,243.938 271.415,244.148 271.284 C 244.359 271.154,244.549 271.278,244.571 271.559 C 244.593 271.840,244.756 271.456,244.932 270.706 C 245.339 268.972,245.260 268.917,244.434 270.356 M242.739 272.583 C 241.824 273.348,242.188 275.000,243.272 275.000 C 243.695 275.000,243.736 274.868,243.429 274.498 C 242.980 273.957,243.004 273.143,243.491 272.363 C 243.898 271.712,243.718 271.765,242.739 272.583 M297.266 272.568 C 297.266 273.021,297.411 273.482,297.590 273.592 C 297.974 273.829,297.923 272.402,297.534 272.013 C 297.386 271.866,297.266 272.115,297.266 272.568 M295.313 273.038 C 295.313 273.208,295.664 273.438,296.094 273.551 C 296.523 273.663,296.875 273.616,296.875 273.446 C 296.875 273.277,296.523 273.046,296.094 272.934 C 295.664 272.821,295.313 272.868,295.313 273.038 M260.331 273.471 C 260.077 273.881,260.669 275.071,261.124 275.068 C 261.446 275.067,262.093 274.213,262.103 273.776 C 262.113 273.362,260.563 273.096,260.331 273.471 M302.471 273.649 C 302.219 274.088,302.043 274.791,302.081 275.211 C 302.129 275.753,301.865 276.016,301.176 276.114 C 300.640 276.189,299.546 276.844,298.743 277.570 C 297.301 278.872,295.489 279.129,296.522 277.884 C 296.769 277.587,296.855 277.344,296.714 277.344 C 296.572 277.344,296.656 276.971,296.900 276.515 C 297.260 275.843,297.244 275.750,296.816 276.022 C 296.092 276.481,294.420 276.452,293.945 275.972 C 293.730 275.754,293.599 275.652,293.653 275.745 C 293.707 275.837,293.460 276.235,293.104 276.628 C 292.717 277.056,292.638 277.344,292.908 277.344 C 293.156 277.344,293.339 277.476,293.313 277.637 C 293.288 277.798,293.301 278.018,293.343 278.125 C 293.608 278.805,293.803 280.016,293.778 280.823 C 293.751 281.686,293.805 281.714,294.433 281.167 C 295.237 280.467,296.144 280.663,295.835 281.471 C 295.173 283.195,299.062 282.077,301.055 279.970 C 303.134 277.771,304.186 276.172,303.552 276.172 C 303.342 276.172,303.116 275.425,303.050 274.512 C 302.942 273.025,302.882 272.935,302.471 273.649 M252.044 275.000 C 252.044 275.752,252.124 276.060,252.222 275.684 C 252.321 275.308,252.321 274.692,252.222 274.316 C 252.124 273.940,252.044 274.248,252.044 275.000 M294.531 274.604 C 294.531 275.063,295.644 275.412,295.882 275.027 C 295.993 274.846,295.735 274.607,295.308 274.495 C 294.881 274.383,294.531 274.432,294.531 274.604 M258.594 276.605 C 258.110 276.953,258.136 276.985,258.741 276.788 C 259.144 276.657,259.693 276.731,259.961 276.953 C 260.229 277.175,260.734 277.247,261.083 277.113 C 261.778 276.847,261.954 276.172,261.328 276.172 C 261.113 276.172,260.938 276.383,260.938 276.641 C 260.938 277.005,260.833 277.005,260.469 276.641 C 259.893 276.065,259.359 276.055,258.594 276.605 M173.159 279.492 C 173.162 280.566,173.237 280.959,173.327 280.366 C 173.417 279.772,173.415 278.893,173.322 278.413 C 173.229 277.932,173.156 278.418,173.159 279.492 M195.020 279.492 C 195.025 280.352,195.105 280.657,195.198 280.171 C 195.292 279.685,195.288 278.982,195.190 278.609 C 195.092 278.235,195.016 278.633,195.020 279.492 M251.953 280.859 C 251.494 281.504,251.207 282.031,251.314 282.031 C 251.421 282.031,251.885 281.504,252.344 280.859 C 252.803 280.215,253.090 279.688,252.983 279.688 C 252.875 279.688,252.412 280.215,251.953 280.859 M241.193 286.035 L 239.648 287.695 241.309 286.151 C 242.853 284.715,243.148 284.375,242.853 284.375 C 242.789 284.375,242.042 285.122,241.193 286.035 M196.582 303.004 C 196.958 303.102,197.573 303.102,197.949 303.004 C 198.325 302.905,198.018 302.825,197.266 302.825 C 196.514 302.825,196.206 302.905,196.582 303.004 M202.441 303.004 C 202.817 303.102,203.433 303.102,203.809 303.004 C 204.185 302.905,203.877 302.825,203.125 302.825 C 202.373 302.825,202.065 302.905,202.441 303.004 " stroke="none" fill="#84848a" fill-rule="evenodd"></path><path id="path4" d="M185.729 222.461 C 185.729 234.277,185.779 239.168,185.840 233.328 C 185.900 227.489,185.900 217.821,185.840 211.844 C 185.779 205.867,185.729 210.645,185.729 222.461 M190.807 223.047 C 190.807 234.971,190.857 239.849,190.918 233.887 C 190.978 227.925,190.978 218.169,190.918 212.207 C 190.857 206.245,190.807 211.123,190.807 223.047 M246.200 252.051 C 246.295 252.319,246.230 252.924,246.056 253.395 C 245.831 254.003,246.008 254.754,246.668 255.996 C 247.179 256.956,247.566 257.809,247.529 257.890 C 247.491 257.972,247.876 257.592,248.383 257.047 C 248.890 256.501,249.170 256.302,249.006 256.603 C 248.813 256.959,248.860 257.058,249.141 256.884 C 249.432 256.704,249.199 255.979,248.432 254.677 C 247.803 253.611,247.390 252.474,247.514 252.151 C 247.673 251.737,247.486 251.563,246.884 251.563 C 246.369 251.563,246.097 251.756,246.200 252.051 M264.116 251.912 C 263.666 252.197,263.666 252.282,264.116 252.461 C 264.524 252.623,264.530 252.680,264.142 252.704 C 263.782 252.725,263.699 253.156,263.854 254.199 C 264.005 255.223,263.968 255.429,263.728 254.883 C 263.457 254.264,263.354 254.488,263.233 255.957 C 263.062 258.030,263.144 258.217,263.660 256.934 C 263.980 256.136,264.015 256.172,264.038 257.324 C 264.055 258.203,263.882 258.594,263.477 258.594 C 263.154 258.594,262.891 258.770,262.891 258.984 C 262.891 259.199,263.131 259.375,263.424 259.375 C 263.717 259.375,264.404 259.727,264.950 260.156 C 266.024 261.001,267.011 261.210,266.573 260.500 C 266.424 260.259,266.334 258.610,266.373 256.835 C 266.480 251.971,265.927 250.764,264.116 251.912 M296.420 251.825 C 295.724 252.010,295.186 252.995,295.502 253.507 C 295.608 253.678,295.433 254.035,295.113 254.300 C 294.793 254.566,294.531 254.991,294.531 255.245 C 294.531 255.498,294.093 256.585,293.558 257.658 C 293.023 258.732,292.306 260.832,291.965 262.325 C 291.623 263.818,291.182 265.344,290.984 265.717 C 290.787 266.090,290.625 266.825,290.625 267.350 C 290.625 267.874,290.349 268.580,290.011 268.917 C 289.516 269.413,289.503 269.531,289.945 269.531 C 290.352 269.531,290.464 269.995,290.382 271.333 C 290.278 273.038,290.309 273.100,290.968 272.504 C 291.350 272.158,292.107 271.875,292.650 271.875 C 293.616 271.875,293.644 271.794,293.910 268.262 C 294.060 266.274,294.349 264.481,294.552 264.277 C 294.755 264.073,294.923 263.634,294.924 263.301 C 294.926 262.968,295.171 262.228,295.469 261.656 C 295.907 260.817,296.906 255.274,296.987 253.240 C 296.997 252.981,297.152 252.859,297.331 252.970 C 297.510 253.081,297.656 252.882,297.656 252.530 C 297.656 252.177,297.788 251.951,297.949 252.028 C 300.016 253.019,301.172 253.718,301.172 253.979 C 301.172 254.154,301.366 254.297,301.604 254.297 C 301.842 254.297,301.932 254.024,301.804 253.691 C 301.671 253.343,301.736 253.186,301.958 253.323 C 302.170 253.454,302.344 253.288,302.344 252.953 C 302.344 252.618,302.520 252.344,302.734 252.344 C 302.949 252.344,303.125 252.168,303.125 251.953 C 303.125 251.571,297.767 251.469,296.420 251.825 M354.442 252.139 C 354.185 252.809,354.510 259.408,354.886 261.146 C 355.116 262.210,355.011 262.390,353.864 262.904 C 352.621 263.461,351.631 264.810,352.793 264.364 C 353.152 264.227,353.348 264.412,353.348 264.888 C 353.348 265.293,353.210 265.625,353.041 265.625 C 352.872 265.625,352.734 265.439,352.734 265.211 C 352.734 264.984,352.566 264.902,352.361 265.029 C 352.155 265.156,352.086 265.516,352.206 265.831 C 352.327 266.145,352.583 266.305,352.775 266.186 C 352.968 266.067,353.125 266.244,353.125 266.579 C 353.125 266.913,353.268 267.188,353.443 267.188 C 353.618 267.188,354.058 267.808,354.419 268.567 C 354.781 269.325,355.341 270.047,355.663 270.171 C 355.986 270.295,356.250 270.560,356.250 270.761 C 356.250 271.454,358.001 273.490,359.274 274.277 C 359.977 274.711,360.445 275.240,360.314 275.452 C 360.163 275.695,361.280 275.816,363.339 275.781 C 367.082 275.716,370.955 276.106,372.020 276.655 C 372.535 276.920,372.672 276.904,372.483 276.599 C 372.336 276.361,372.475 276.067,372.792 275.946 C 373.108 275.824,373.478 275.283,373.613 274.743 C 373.944 273.424,374.968 272.386,376.256 272.063 C 377.140 271.841,377.311 271.592,377.283 270.566 C 377.264 269.890,377.709 268.432,378.273 267.326 C 378.836 266.221,379.297 265.197,379.297 265.052 C 379.297 264.907,379.574 264.511,379.913 264.172 C 380.257 263.827,380.439 263.210,380.325 262.773 C 380.212 262.342,380.385 261.477,380.709 260.851 C 381.033 260.225,381.222 259.505,381.129 259.251 C 381.037 258.997,381.193 258.522,381.475 258.196 C 381.758 257.869,382.098 256.650,382.231 255.485 C 382.364 254.321,382.631 253.073,382.824 252.712 C 383.312 251.801,382.941 251.563,381.038 251.563 C 379.296 251.563,378.906 252.178,378.906 254.932 C 378.906 255.442,378.555 256.211,378.125 256.641 L 377.344 257.422 378.255 257.422 C 378.757 257.422,379.256 257.511,379.364 257.620 C 379.537 257.792,377.868 263.094,377.101 264.812 C 376.949 265.152,376.804 265.518,376.778 265.625 C 376.390 267.247,374.974 269.928,374.130 270.640 C 373.534 271.143,373.047 271.823,373.047 272.153 C 373.047 272.641,372.938 272.662,372.461 272.266 C 372.056 271.930,371.875 271.915,371.875 272.218 C 371.875 272.769,368.112 272.813,367.773 272.266 C 367.641 272.051,367.091 271.875,366.552 271.875 C 365.260 271.875,360.938 268.624,360.938 267.652 C 360.938 267.499,360.530 266.936,360.032 266.399 C 358.407 264.646,358.078 262.256,359.386 261.714 C 360.750 261.149,361.038 260.101,360.309 258.357 C 359.996 257.609,359.845 256.829,359.972 256.623 C 360.099 256.418,360.005 256.250,359.764 256.250 C 359.523 256.250,359.357 255.942,359.395 255.566 C 359.434 255.190,359.445 254.136,359.420 253.223 L 359.375 251.563 357.019 251.563 C 355.303 251.563,354.603 251.719,354.442 252.139 M395.508 251.861 C 394.914 252.298,393.939 263.863,394.395 265.053 C 394.819 266.157,393.935 265.612,393.422 264.453 C 392.608 262.614,392.207 263.068,392.298 265.723 C 392.379 268.056,392.429 268.169,393.431 268.285 L 394.480 268.406 394.282 271.386 C 393.978 275.952,393.903 281.250,394.143 281.250 C 394.567 281.250,399.236 276.319,399.018 276.102 C 398.896 275.980,398.716 274.671,398.617 273.194 C 398.519 271.716,398.239 268.865,397.994 266.857 C 397.727 264.655,397.667 261.941,397.845 260.021 C 398.007 258.269,398.127 256.492,398.112 256.073 C 398.096 255.653,398.218 255.126,398.383 254.901 C 399.459 253.433,398.903 251.562,397.393 251.568 C 396.571 251.572,395.723 251.704,395.508 251.861 M275.078 253.984 C 274.498 254.565,274.455 255.610,275.026 255.257 C 275.255 255.116,275.408 255.237,275.365 255.527 C 275.143 257.024,275.870 258.574,276.609 258.178 C 277.122 257.903,277.344 257.915,277.344 258.217 C 277.344 258.933,276.212 259.835,275.687 259.538 C 275.316 259.329,275.304 259.378,275.638 259.740 C 276.094 260.235,277.734 259.570,277.734 258.890 C 277.734 258.727,278.042 258.596,278.418 258.600 C 279.002 258.605,279.016 258.661,278.516 258.984 C 278.164 259.212,278.115 259.365,278.395 259.369 C 279.103 259.378,279.462 258.547,278.900 258.199 C 278.623 258.028,278.498 257.530,278.618 257.071 C 278.737 256.619,278.674 256.348,278.478 256.468 C 278.283 256.589,277.941 256.208,277.718 255.622 C 277.070 253.916,275.883 253.180,275.078 253.984 M239.075 255.909 C 239.068 256.259,239.326 256.764,239.648 257.031 C 240.399 257.655,240.407 257.019,239.661 256.032 C 239.179 255.395,239.085 255.375,239.075 255.909 M250.285 258.630 C 249.520 259.075,249.673 259.563,250.760 260.145 C 251.324 260.447,251.517 260.371,251.670 259.786 C 251.815 259.234,251.708 259.103,251.255 259.277 C 250.806 259.449,250.712 259.339,250.896 258.857 C 251.187 258.099,251.193 258.101,250.285 258.630 M314.687 259.438 C 314.584 259.941,314.390 262.944,314.257 266.113 L 314.015 271.875 314.980 271.875 C 315.915 271.875,315.953 271.767,316.183 268.457 C 316.734 260.550,316.742 260.325,316.421 261.523 C 316.120 262.649,316.106 262.632,316.062 261.083 C 316.007 259.175,314.992 257.960,314.687 259.438 M252.441 260.024 C 251.920 260.235,251.755 260.969,252.246 260.891 C 252.982 260.775,253.543 260.968,253.355 261.272 C 253.242 261.456,253.627 261.513,254.211 261.399 L 255.273 261.191 253.990 260.854 C 253.284 260.669,252.811 260.348,252.939 260.141 C 253.190 259.735,253.171 259.730,252.441 260.024 M262.755 262.146 C 262.388 262.574,261.890 262.801,261.648 262.652 C 261.379 262.485,261.316 262.555,261.486 262.830 C 261.861 263.436,262.139 263.391,263.237 262.547 C 263.749 262.153,264.000 261.727,263.795 261.599 C 263.589 261.472,263.121 261.718,262.755 262.146 M250.391 262.509 C 250.391 262.744,250.217 262.829,250.004 262.698 C 249.787 262.564,249.715 262.712,249.839 263.035 C 250.097 263.707,251.085 264.162,251.598 263.845 C 252.177 263.487,252.006 262.946,251.172 262.500 C 250.612 262.200,250.391 262.203,250.391 262.509 M245.028 264.063 C 245.028 265.029,245.104 265.425,245.198 264.941 C 245.291 264.458,245.291 263.667,245.198 263.184 C 245.104 262.700,245.028 263.096,245.028 264.063 M253.412 264.506 C 252.219 266.047,252.072 266.411,252.631 266.434 C 253.227 266.457,253.215 266.506,252.539 266.797 L 251.758 267.133 252.539 267.166 C 253.120 267.191,253.187 267.284,252.799 267.530 C 252.371 267.802,252.376 267.898,252.832 268.072 C 253.205 268.215,253.553 267.818,253.896 266.857 C 254.177 266.072,254.500 265.181,254.614 264.877 C 254.745 264.527,254.654 264.428,254.363 264.607 C 254.112 264.763,253.906 264.704,253.906 264.476 C 253.906 264.249,254.063 264.063,254.255 264.063 C 254.584 264.063,255.219 262.878,254.990 262.693 C 254.931 262.645,254.221 263.462,253.412 264.506 M262.938 263.136 C 262.250 263.617,262.154 263.848,262.539 264.087 C 263.156 264.468,263.537 264.263,264.074 263.259 C 264.570 262.333,264.149 262.287,262.938 263.136 M266.016 263.715 C 266.016 264.054,265.668 264.646,265.244 265.031 C 264.819 265.415,264.564 265.879,264.677 266.062 C 264.790 266.245,264.303 266.294,263.594 266.172 C 262.614 266.003,262.445 266.050,262.891 266.367 C 263.406 266.735,263.402 266.786,262.858 266.791 C 262.050 266.799,262.050 267.967,262.858 267.975 C 263.385 267.980,263.393 268.034,262.909 268.340 C 262.597 268.537,262.231 268.630,262.095 268.546 C 261.960 268.462,261.849 268.650,261.849 268.962 C 261.849 269.275,261.995 269.531,262.174 269.531 C 262.354 269.531,262.500 269.385,262.500 269.206 C 262.500 268.681,263.465 268.832,264.039 269.445 C 264.490 269.928,264.456 269.975,263.806 269.769 C 263.370 269.631,262.720 269.788,262.284 270.137 C 261.548 270.727,261.551 270.733,262.377 270.334 C 263.504 269.790,263.672 269.812,263.672 270.508 C 263.672 270.830,263.858 271.094,264.086 271.094 C 264.313 271.094,264.391 270.918,264.258 270.703 C 264.125 270.488,264.378 270.313,264.821 270.313 C 265.800 270.313,265.914 271.465,264.941 271.531 C 264.565 271.556,264.126 271.556,263.965 271.531 C 263.804 271.505,263.672 272.518,263.672 273.780 C 263.672 275.465,263.496 276.219,263.011 276.612 C 262.562 276.977,262.444 276.992,262.643 276.660 C 262.828 276.353,262.711 276.172,262.328 276.172 C 261.993 276.172,261.719 276.329,261.719 276.521 C 261.719 277.088,260.488 277.391,259.961 276.953 C 259.693 276.731,259.144 276.652,258.741 276.778 C 258.307 276.914,258.406 276.763,258.984 276.408 C 259.831 275.889,259.801 275.602,258.914 275.726 C 258.768 275.746,258.716 275.284,258.798 274.698 C 258.881 274.112,258.853 273.854,258.737 274.124 C 258.622 274.393,258.367 274.515,258.170 274.394 C 257.974 274.273,257.857 274.579,257.911 275.075 C 257.994 275.852,257.811 275.993,256.583 276.095 C 255.495 276.186,255.107 276.417,254.942 277.072 C 254.761 277.791,254.802 277.835,255.197 277.344 C 255.455 277.021,255.930 276.711,256.251 276.654 C 256.765 276.564,256.764 276.611,256.245 277.045 C 255.919 277.317,255.317 278.066,254.907 278.711 C 254.360 279.569,254.326 279.748,254.777 279.378 C 255.172 279.054,255.441 279.020,255.529 279.281 C 255.621 279.559,256.092 279.566,257.006 279.304 C 258.553 278.861,258.911 279.030,258.211 279.873 C 257.932 280.209,257.889 280.469,258.112 280.469 C 258.329 280.469,258.483 280.776,258.453 281.152 C 258.396 281.864,265.287 282.391,267.483 281.844 L 268.364 281.624 267.421 279.763 C 266.709 278.357,266.574 277.728,266.873 277.194 C 267.469 276.129,266.693 275.525,265.454 276.090 C 264.298 276.616,264.191 276.459,264.307 274.414 C 264.356 273.555,264.409 272.632,264.425 272.363 C 264.469 271.605,265.625 271.788,265.625 272.553 C 265.625 273.445,267.277 270.375,267.408 269.238 C 267.464 268.755,267.349 268.359,267.153 268.359 C 266.957 268.359,266.797 268.189,266.797 267.981 C 266.797 267.773,267.104 267.715,267.480 267.852 C 268.116 268.084,268.119 268.048,267.531 267.351 C 267.182 266.939,266.687 266.162,266.430 265.625 L 265.963 264.648 266.762 265.625 C 267.782 266.871,267.796 266.420,266.797 264.555 C 266.367 263.753,266.016 263.375,266.016 263.715 M239.531 264.531 C 238.833 265.230,238.963 265.899,239.844 266.129 C 240.371 266.267,240.625 266.141,240.625 265.742 C 240.625 265.373,240.401 265.237,240.030 265.379 C 239.545 265.565,239.511 265.465,239.848 264.835 C 240.320 263.955,240.211 263.851,239.531 264.531 M239.063 267.443 C 239.063 268.298,239.153 268.380,239.648 267.969 C 239.971 267.701,240.234 267.347,240.234 267.181 C 240.234 267.016,239.971 266.779,239.648 266.656 C 239.221 266.491,239.063 266.704,239.063 267.443 M245.967 268.244 C 245.558 268.350,245.343 268.657,245.462 268.967 C 245.576 269.264,245.501 269.610,245.295 269.737 C 245.090 269.864,244.919 270.441,244.916 271.019 C 244.912 271.774,244.813 271.918,244.567 271.529 C 244.297 271.102,244.117 271.184,243.713 271.920 C 243.015 273.191,242.937 273.905,243.429 274.498 C 243.738 274.870,243.688 275.000,243.238 275.000 C 242.904 275.000,242.519 274.648,242.383 274.219 C 242.090 273.297,241.474 273.197,241.158 274.021 C 241.035 274.342,240.792 274.517,240.619 274.411 C 240.197 274.150,239.063 274.606,239.063 275.037 C 239.063 275.462,242.190 277.472,242.449 277.213 C 242.551 277.110,242.355 276.482,242.011 275.818 C 241.659 275.138,241.561 274.609,241.787 274.609 C 242.007 274.609,242.188 274.846,242.188 275.135 C 242.188 275.836,243.540 277.033,243.912 276.661 C 244.074 276.499,244.156 276.543,244.096 276.758 C 243.912 277.412,244.528 278.822,245.094 279.039 C 245.802 279.310,247.266 278.912,247.266 278.447 C 247.266 278.245,247.102 278.180,246.902 278.304 C 246.702 278.427,246.428 278.350,246.293 278.131 C 246.158 277.913,246.228 277.734,246.449 277.734 C 246.670 277.734,246.738 277.442,246.601 277.084 C 246.417 276.605,246.497 276.514,246.906 276.737 C 247.211 276.903,246.997 276.624,246.431 276.117 C 245.864 275.610,245.315 274.821,245.210 274.363 C 244.959 273.266,245.891 269.570,246.226 270.331 C 246.364 270.643,246.376 270.494,246.253 270.001 C 246.130 269.507,246.241 268.848,246.500 268.536 C 246.759 268.224,246.905 267.989,246.825 268.014 C 246.745 268.039,246.359 268.142,245.967 268.244 M258.111 271.402 C 258.006 271.804,258.169 272.470,258.473 272.882 C 258.977 273.568,259.005 273.516,258.789 272.277 C 258.502 270.631,258.361 270.449,258.111 271.402 M315.678 272.777 C 315.646 273.210,315.448 273.374,315.168 273.201 C 314.854 273.007,314.795 273.139,314.982 273.624 C 315.200 274.192,315.147 274.242,314.712 273.881 C 314.108 273.380,313.682 275.717,313.675 279.567 C 313.672 281.703,313.969 282.192,315.027 281.787 C 315.536 281.591,315.661 281.039,315.623 279.149 C 315.596 277.834,315.699 276.248,315.852 275.626 C 316.074 274.717,316.021 274.558,315.584 274.822 C 315.126 275.097,315.122 275.048,315.557 274.511 C 315.842 274.159,315.998 273.466,315.903 272.971 C 315.785 272.350,315.715 272.290,315.678 272.777 M246.484 273.396 C 246.484 273.802,246.721 274.226,247.009 274.337 C 247.385 274.481,247.483 274.271,247.354 273.597 C 247.142 272.484,246.484 272.332,246.484 273.396 M260.552 273.819 C 260.208 274.462,260.245 274.551,260.773 274.348 C 261.126 274.213,261.560 274.346,261.752 274.650 C 262.010 275.058,262.099 275.069,262.103 274.695 C 262.107 274.419,261.815 274.081,261.454 273.943 C 260.868 273.718,260.879 273.660,261.552 273.397 C 262.192 273.146,262.204 273.098,261.635 273.074 C 261.266 273.059,260.779 273.394,260.552 273.819 M292.017 273.397 C 291.898 273.589,292.139 274.161,292.553 274.666 L 293.304 275.586 293.272 274.316 C 293.242 273.112,292.520 272.583,292.017 273.397 M290.387 275.293 C 290.238 275.831,289.840 276.172,289.360 276.172 C 288.703 276.172,288.656 276.268,289.069 276.765 C 289.469 277.247,289.449 277.485,288.963 278.035 C 288.635 278.407,288.298 279.458,288.216 280.371 L 288.065 282.031 290.908 282.031 C 293.853 282.031,294.180 281.785,293.755 279.883 C 293.707 279.668,293.612 279.229,293.544 278.906 C 293.475 278.584,293.385 278.232,293.343 278.125 C 293.301 278.018,293.288 277.798,293.313 277.637 C 293.339 277.476,293.173 277.344,292.946 277.344 C 292.718 277.344,292.652 277.149,292.799 276.911 C 292.986 276.610,293.164 276.638,293.391 277.004 C 293.622 277.378,293.698 277.295,293.654 276.712 C 293.608 276.109,293.395 275.947,292.838 276.093 C 292.346 276.221,291.832 275.964,291.357 275.352 L 290.630 274.414 290.387 275.293 M266.406 276.497 C 266.406 277.006,265.942 277.344,265.564 277.111 C 265.160 276.861,265.509 276.172,266.039 276.172 C 266.241 276.172,266.406 276.318,266.406 276.497 M300.781 280.273 C 299.832 281.240,299.144 282.031,299.251 282.031 C 299.359 282.031,300.223 281.240,301.172 280.273 C 302.121 279.307,302.809 278.516,302.702 278.516 C 302.594 278.516,301.730 279.307,300.781 280.273 M294.552 281.030 C 294.226 281.422,294.306 281.593,294.888 281.745 C 295.318 281.857,295.738 281.722,295.849 281.434 C 296.120 280.726,295.074 280.400,294.552 281.030 M244.708 289.551 L 243.164 291.211 244.824 289.667 C 245.737 288.818,246.484 288.070,246.484 288.007 C 246.484 287.711,246.144 288.007,244.708 289.551 M199.322 303.015 C 199.916 303.104,200.794 303.102,201.275 303.009 C 201.755 302.917,201.270 302.843,200.195 302.846 C 199.121 302.849,198.728 302.925,199.322 303.015 " stroke="none" fill="#878e8a" fill-rule="evenodd"></path></g></svg>