<?xml version="1.0" encoding="UTF-8"?>
<!DOCTYPE svg PUBLIC "-//W3C//DTD SVG 1.1//EN" "http://www.w3.org/Graphics/SVG/1.1/DTD/svg11.dtd">
<svg xmlns="http://www.w3.org/2000/svg" version="1.1" width="1000px" height="1000px" style="shape-rendering:geometricPrecision; text-rendering:geometricPrecision; image-rendering:optimizeQuality; fill-rule:evenodd; clip-rule:evenodd" xmlns:xlink="http://www.w3.org/1999/xlink">
<g><path style="opacity:0.986" fill="#009ebe" d="M 36.5,11.5 C 43.0905,11.4798 49.0905,13.3131 54.5,17C 138.667,101.167 222.833,185.333 307,269.5C 389.833,186.667 472.667,103.833 555.5,21C 560.59,17.2888 566.257,14.9555 572.5,14C 706.167,13.3333 839.833,13.3333 973.5,14C 989.997,19.8545 994.163,30.6879 986,46.5C 901.139,131.027 816.639,215.861 732.5,301C 814.667,383.167 896.833,465.333 979,547.5C 984.323,553.458 987.323,560.458 988,568.5C 988.667,700.833 988.667,833.167 988,965.5C 984.232,981.801 974.399,987.301 958.5,982C 956.833,981 955.167,980 953.5,979C 869.333,894.833 785.167,810.667 701,726.5C 618.833,808.667 536.667,890.833 454.5,973C 448.839,978.163 442.172,981.163 434.5,982C 301.167,982.667 167.833,982.667 34.5,982C 19.6471,977.127 14.8138,967.294 20,952.5C 21,950.833 22,949.167 23,947.5C 107.167,863.333 191.333,779.167 275.5,695C 193,612.5 110.5,530 28,447.5C 23.7062,442.244 21.0395,436.244 20,429.5C 19.3333,295.833 19.3333,162.167 20,28.5C 22.3581,19.6435 27.8581,13.9768 36.5,11.5 Z M 580.5,57.5 C 691.167,57.3333 801.834,57.5 912.5,58C 783.667,186.833 654.833,315.667 526,444.5C 525.333,333.833 525.333,223.167 526,112.5C 544.368,94.2986 562.535,75.9653 580.5,57.5 Z M 63.5,89.5 C 192.632,218.132 321.632,346.965 450.5,476C 340.167,476.667 229.833,476.667 119.5,476C 101,457.5 82.5,439 64,420.5C 63.5,310.167 63.3333,199.834 63.5,89.5 Z M 480.5,157.5 C 481.666,252.666 481.832,347.999 481,443.5C 433.5,396 386,348.5 338.5,301C 386.397,253.604 433.73,205.771 480.5,157.5 Z M 700.5,332.5 C 748.632,380.132 796.632,427.965 844.5,476C 748.833,476.667 653.167,476.667 557.5,476C 605.368,428.299 653.035,380.465 700.5,332.5 Z M 163.5,520.5 C 258.999,519.334 354.666,519.168 450.5,520C 402.667,567.833 354.833,615.667 307,663.5C 259.299,615.632 211.465,567.965 163.5,520.5 Z M 557.5,520.5 C 667.666,519.334 777.999,519.167 888.5,520C 907,538.5 925.5,557 944,575.5C 944.667,685.833 944.667,796.167 944,906.5C 815.299,777.632 686.465,648.965 557.5,520.5 Z M 525.5,551.5 C 573.632,599.132 621.632,646.965 669.5,695C 621.667,742.833 573.833,790.667 526,838.5C 525.5,742.834 525.333,647.167 525.5,551.5 Z M 480.5,552.5 C 481.666,662.666 481.833,772.999 481,883.5C 462.833,901.667 444.667,919.833 426.5,938C 316.167,938.667 205.833,938.667 95.5,938C 224.035,809.632 352.368,681.132 480.5,552.5 Z"/></g>
</svg>
